<svg width="1911" height="923" viewBox="0 0 1911 923" fill="none" xmlns="http://www.w3.org/2000/svg">
<rect x="4" width="1920" height="915" rx="150" fill="#76C4EF"/>
<mask id="mask0_370_15" style="mask-type:alpha" maskUnits="userSpaceOnUse" x="4" y="0" width="1920" height="915">
<rect x="4" width="1920" height="915" rx="150" fill="#76C4EF"/>
</mask>
<g mask="url(#mask0_370_15)">
<path opacity="0.2" d="M1618.59 291.566C1637.43 44.0036 1945.28 16.2626 1944.74 9.22136L1842.38 -145.144C1842.38 -145.144 1203.99 -183.678 1112.57 39.4743C1021.16 262.627 1403.44 553.097 1233.01 611.748C1062.58 670.398 1331.58 697.227 1317.06 763.405C1305.18 817.571 1152.83 874.234 1162.75 926.978C1175.62 1007.91 1332.63 1053.06 1345.69 1135.58C1361.43 1234.99 1200.63 1342.64 1185.97 1398.17C1185.97 1398.17 1802.13 1422.88 1891.67 1332.04C1981.2 1241.2 1641.03 1220.2 1657.39 1005.13C1663.55 924.238 1862.42 951.816 1841.34 834.669C1684.46 598.981 1863.29 487.611 1855.77 421.017C1843.71 314.276 1599.75 539.129 1618.59 291.566Z" fill="white"/>
<path opacity="0.2" d="M508.588 -43.4339C527.428 -290.996 835.284 -318.737 834.742 -325.779L732.38 -480.144C732.38 -480.144 93.9933 -518.678 2.57429 -295.526C-88.8447 -72.3732 293.439 218.097 123.008 276.748C-47.4225 335.398 221.579 362.227 207.065 428.405C195.185 482.571 42.8304 539.234 52.7483 591.978C65.6152 672.914 222.634 718.061 235.695 800.584C251.427 899.992 90.6327 1007.64 75.974 1063.17C75.974 1063.17 692.135 1087.88 781.667 997.042C871.199 906.203 531.025 885.198 547.393 670.128C553.548 589.238 752.418 616.816 731.341 499.669C574.464 263.981 753.291 152.611 745.77 86.0165C733.715 -20.7243 489.748 204.129 508.588 -43.4339Z" fill="white"/>
</g>
</svg>
