<svg width="390" height="1585" viewBox="0 0 390 1585" fill="none" xmlns="http://www.w3.org/2000/svg">
<rect width="390" height="1585" rx="70" fill="#76C4EF"/>
<mask id="mask0_422_8" style="mask-type:alpha" maskUnits="userSpaceOnUse" x="0" y="0" width="390" height="1585">
<rect width="390" height="1585" rx="70" fill="#76C4EF"/>
</mask>
<g mask="url(#mask0_422_8)">
<path opacity="0.2" d="M272 459C290.84 211.437 445 172 445 165L400 15C400 15 84.0001 0.999924 30.0001 227C-24 453 155 728 68 793C-19 858 113.75 874.46 104 941C96.0199 995.463 18.0855 1057.79 21 1110C24.3025 1190.21 100.662 1229.22 104 1311C108.021 1409.52 23.9389 1523 14.5247 1578.93C14.5247 1578.93 320 1580 368 1486C416 1392 247.633 1384.07 264 1169C270.156 1088.11 368 1108 362 992C293 763 386.193 645.113 385 579C383.088 473.031 253.16 706.563 272 459Z" fill="white"/>
</g>
</svg>
