<svg width="132" height="132" viewBox="0 0 132 132" fill="none" xmlns="http://www.w3.org/2000/svg">
<g filter="url(#filter0_i_370_12)">
<circle cx="66" cy="66" r="50" fill="#90CFF1"/>
</g>
<g filter="url(#filter1_d_370_12)">
<circle cx="66" cy="66" r="36" fill="white"/>
</g>
<path d="M86 83.3333V82.6667C86 82.313 85.8595 81.9739 85.6095 81.7239C85.3594 81.4738 85.0203 81.3333 84.6667 81.3333H84.1413C84.1962 81.1827 84.2327 81.026 84.25 80.8667L85.324 69.5133C85.3509 69.2377 85.3198 68.9595 85.2328 68.6965C85.1458 68.4336 85.0049 68.1917 84.8189 67.9865C84.633 67.7812 84.4062 67.6171 84.1532 67.5046C83.9001 67.3921 83.6263 67.3338 83.3493 67.3333H67.8281C67.0814 64.5041 66.6913 61.5927 66.6667 58.6667V54.6667C66.6667 52.3681 65.7536 50.1637 64.1283 48.5384C62.503 46.9131 60.2986 46 58.0001 46C55.7015 46 53.4971 46.9131 51.8718 48.5384C50.2465 50.1637 49.3334 52.3681 49.3334 54.6667V58.6667C49.2979 62.2479 48.7251 65.8035 47.6341 69.2147C47.1245 69.6446 46.7144 70.1801 46.4322 70.7842C46.1501 71.3884 46.0026 72.0466 46.0001 72.7133V84C45.9946 84.524 46.1971 85.0289 46.5633 85.4038C46.9295 85.7787 47.4294 85.9931 47.9534 86H83.3333C84.0406 86 84.7189 85.7191 85.219 85.219C85.7191 84.7189 86 84.0406 86 83.3333ZM83.828 68.8787C83.8905 68.9469 83.9379 69.0275 83.9671 69.1152C83.9963 69.203 84.0066 69.296 83.9973 69.388L82.9233 80.7373C82.9095 80.8997 82.8353 81.0511 82.7153 81.1614C82.5953 81.2717 82.4383 81.3331 82.2753 81.3333H67.0581C66.8952 81.3331 66.7383 81.2718 66.6183 81.1616C66.4984 81.0514 66.4241 80.9003 66.4101 80.738L65.3334 69.388C65.3242 69.296 65.3345 69.203 65.3636 69.1152C65.3928 69.0275 65.4402 68.9469 65.5027 68.8787C65.5633 68.8112 65.6376 68.7574 65.7206 68.7208C65.8035 68.6843 65.8934 68.6658 65.9841 68.6667H83.3493C83.4396 68.6662 83.5289 68.6848 83.6114 68.7214C83.6939 68.7579 83.7677 68.8115 83.828 68.8787ZM65.9841 67.3333C65.719 67.3345 65.4568 67.3888 65.2131 67.4932C64.9695 67.5975 64.7492 67.7497 64.5654 67.9407L61.7334 67.4947C61.6209 67.4766 61.5186 67.4188 61.4452 67.3316C61.3718 67.2445 61.3321 67.1339 61.3334 67.02V66.3167C62.1804 65.7333 62.9024 64.9868 63.457 64.1207C64.0116 63.2547 64.3878 62.2866 64.5634 61.2733C64.8679 61.2068 65.1583 61.0872 65.4214 60.92C65.5803 63.0833 65.9245 65.2289 66.4501 67.3333H65.9841ZM64.0001 57.3333C64.3537 57.3333 64.6928 57.4738 64.9429 57.7239C65.1929 57.9739 65.3334 58.313 65.3334 58.6667C65.3334 59.0203 65.1929 59.3594 64.9429 59.6095C64.6928 59.8595 64.3537 60 64.0001 60C63.8423 60.0001 63.6896 60.0561 63.5692 60.1582C63.4489 60.2602 63.3686 60.4017 63.3427 60.5573C62.6727 64.574 60.0461 66 58.0001 66C55.9541 66 53.3274 64.574 52.6574 60.5573C52.6315 60.4017 52.5513 60.2602 52.4309 60.1582C52.3106 60.0561 52.1579 60.0001 52.0001 60C51.6465 60 51.3073 59.8595 51.0573 59.6095C50.8072 59.3594 50.6668 59.0203 50.6668 58.6667C50.6668 58.313 50.8072 57.9739 51.0573 57.7239C51.3073 57.4738 51.6465 57.3333 52.0001 57.3333C52.1769 57.3333 52.3465 57.2631 52.4715 57.1381C52.5965 57.013 52.6668 56.8435 52.6668 56.6667C52.6646 56.4886 52.7289 56.3161 52.8471 56.183C52.9654 56.0498 53.129 55.9656 53.3061 55.9467C55.7022 55.8477 57.9889 54.9168 59.7727 53.314C60.0511 53.9285 60.4615 54.4741 60.9747 54.912C61.4879 55.3499 62.0914 55.6692 62.7421 55.8473C62.9059 55.8825 63.0531 55.9715 63.1603 56.1002C63.2675 56.2289 63.3285 56.3899 63.3334 56.5573V56.6667C63.3334 56.8435 63.4036 57.013 63.5287 57.1381C63.6537 57.2631 63.8232 57.3333 64.0001 57.3333ZM56.0001 67.02V66.982C57.2922 67.4506 58.7079 67.4506 60.0001 66.982V67.02C59.9971 67.4533 60.1505 67.8732 60.4321 68.2025C60.7138 68.5318 61.1048 68.7485 61.5334 68.8127L62.1754 68.914C61.4407 70.52 60.0414 71.3333 58.0001 71.3333C55.9587 71.3333 54.5588 70.5193 53.8281 68.9133L54.4694 68.8127C54.8975 68.7479 55.2879 68.531 55.569 68.2017C55.8502 67.8725 56.0032 67.4529 56.0001 67.02ZM58.0001 47.3333C58.9635 47.3319 59.9177 47.5207 60.8081 47.8887C61.6984 48.2567 62.5074 48.7968 63.1886 49.4781C63.8699 50.1593 64.41 50.9683 64.778 51.8587C65.1461 52.749 65.3348 53.7032 65.3334 54.6667V56.3653C65.107 56.231 64.8619 56.1313 64.6061 56.0693C64.5098 55.7026 64.3166 55.3685 64.0468 55.102C63.7771 54.8355 63.4406 54.6465 63.0727 54.5547C62.6091 54.4225 62.1802 54.1902 61.8161 53.8743C61.452 53.5583 61.1616 53.1663 60.9654 52.726C60.8737 52.535 60.7377 52.3688 60.5686 52.2412C60.3994 52.1136 60.2022 52.0284 59.9934 51.9927C59.7842 51.9564 59.5694 51.97 59.3665 52.0323C59.1636 52.0946 58.9782 52.2039 58.8254 52.3513C57.2677 53.7375 55.2764 54.5388 53.1928 54.618C52.7875 54.6553 52.4025 54.8126 52.0871 55.0698C51.7717 55.327 51.5401 55.6725 51.4221 56.062C51.1562 56.1232 50.9014 56.2253 50.6668 56.3647V54.6667C50.6691 52.7225 51.4424 50.8585 52.8172 49.4838C54.1919 48.109 56.0559 47.3356 58.0001 47.3333ZM50.5781 60.9193C50.8412 61.0871 51.1319 61.207 51.4368 61.2733C51.6124 62.2866 51.9885 63.2547 52.5432 64.1207C53.0978 64.9868 53.8198 65.7333 54.6668 66.3167V67.02C54.6679 67.1344 54.6278 67.2454 54.5537 67.3326C54.4796 67.4198 54.3765 67.4773 54.2634 67.4947L49.9101 68.1807C49.6992 68.2125 49.4908 68.2598 49.2868 68.322C49.9622 65.9035 50.3947 63.4237 50.5781 60.9193ZM47.3334 84V72.7133C47.3361 71.9342 47.6175 71.1817 48.1268 70.5921C48.6361 70.0025 49.3396 69.6146 50.1101 69.4987L52.4741 69.1267C53.0761 70.6507 54.5268 72.6667 58.0001 72.6667C61.4734 72.6667 62.9241 70.6507 63.5261 69.1273L64.0121 69.204C64.0041 69.307 64.0041 69.4104 64.0121 69.5133L65.0834 80.8667C65.1006 81.026 65.1371 81.1827 65.1921 81.3333H64.6667C64.3131 81.3333 63.974 81.4738 63.7239 81.7239C63.4739 81.9739 63.3334 82.313 63.3334 82.6667V83.3333C63.3362 83.8028 63.4641 84.2631 63.7041 84.6667H47.9534C47.7829 84.6602 47.6219 84.5865 47.5056 84.4615C47.3894 84.3365 47.3275 84.1706 47.3334 84ZM84.6667 83.3333C84.6667 83.687 84.5262 84.0261 84.2761 84.2761C84.0261 84.5262 83.687 84.6667 83.3333 84.6667H66.0001C65.6464 84.6667 65.3073 84.5262 65.0572 84.2761C64.8072 84.0261 64.6667 83.687 64.6667 83.3333V82.6667H84.6667V83.3333Z" fill="#C858BC"/>
<path d="M69.3333 79.3333H70.6666C71.0202 79.3333 71.3594 79.1929 71.6094 78.9428C71.8595 78.6928 71.9999 78.3536 71.9999 78V76.6667C71.9984 76.329 71.8688 76.0044 71.6373 75.7585C71.4058 75.5126 71.0896 75.3638 70.7526 75.342C70.8385 74.8619 71.0681 74.4192 71.4111 74.0724C71.754 73.7257 72.1941 73.4912 72.6733 73.4C72.6903 73.7408 72.8374 74.0621 73.0842 74.2977C73.331 74.5333 73.6587 74.6654 73.9999 74.6667H75.3333C75.6745 74.6654 76.0022 74.5333 76.249 74.2977C76.4958 74.0621 76.6429 73.7408 76.6599 73.4C77.1404 73.4884 77.5822 73.7219 77.9259 74.0692C78.2696 74.4164 78.4985 74.8606 78.5819 75.342C78.2447 75.3635 77.9281 75.5122 77.6963 75.7581C77.4645 76.004 77.3348 76.3287 77.3332 76.6667V78C77.3332 78.3536 77.4737 78.6928 77.7238 78.9428C77.9738 79.1929 78.313 79.3333 78.6666 79.3333H79.9999C80.3535 79.3333 80.6927 79.1929 80.9427 78.9428C81.1928 78.6928 81.3332 78.3536 81.3332 78V76.6667C81.3332 76.313 81.1928 75.9739 80.9427 75.7239C80.6927 75.4738 80.3535 75.3333 79.9999 75.3333H79.9412C79.8287 74.6034 79.5302 73.9146 79.0746 73.3333H80.6666C80.8434 73.3333 81.013 73.2631 81.138 73.1381C81.263 73.013 81.3332 72.8435 81.3332 72.6667C81.3332 72.4899 81.263 72.3203 81.138 72.1953C81.013 72.0702 80.8434 72 80.6666 72H76.6666C76.6666 71.6464 76.5261 71.3072 76.2761 71.0572C76.026 70.8071 75.6869 70.6667 75.3333 70.6667H73.9999C73.6463 70.6667 73.3072 70.8071 73.0571 71.0572C72.8071 71.3072 72.6666 71.6464 72.6666 72H68.6666C68.4898 72 68.3202 72.0702 68.1952 72.1953C68.0702 72.3203 67.9999 72.4899 67.9999 72.6667C67.9999 72.8435 68.0702 73.013 68.1952 73.1381C68.3202 73.2631 68.4898 73.3333 68.6666 73.3333H70.2606C69.8049 73.9146 69.5065 74.6034 69.3939 75.3333H69.3333C68.9796 75.3333 68.6405 75.4738 68.3905 75.7239C68.1404 75.9739 67.9999 76.313 67.9999 76.6667V78C67.9999 78.3536 68.1404 78.6928 68.3905 78.9428C68.6405 79.1929 68.9796 79.3333 69.3333 79.3333ZM79.9999 78H78.6666V76.6667H79.9999V78ZM73.9999 72H75.3333V73.3333H73.9999V72ZM69.3333 76.6667H70.6666V78H69.3333V76.6667Z" fill="#C858BC"/>
<path d="M79.8052 56.4073L76.2666 49.622C76.1115 49.3333 75.881 49.0921 75.5998 48.9239C75.3185 48.7558 74.997 48.667 74.6693 48.667C74.3416 48.667 74.02 48.7558 73.7387 48.9239C73.4575 49.0921 73.227 49.3333 73.0719 49.622L69.5279 56.4073C69.371 56.7098 69.3076 57.0521 69.3458 57.3907C69.384 57.7293 69.5222 58.0488 69.7426 58.3087L71.5226 60.364C71.259 60.5478 71.0435 60.7925 70.8945 61.0773C70.7455 61.3621 70.6673 61.6786 70.6666 62V63.3333C70.6666 63.8638 70.8773 64.3725 71.2524 64.7475C71.6275 65.1226 72.1362 65.3333 72.6666 65.3333H76.6666C77.197 65.3333 77.7057 65.1226 78.0808 64.7475C78.4559 64.3725 78.6666 63.8638 78.6666 63.3333V62C78.6659 61.6786 78.5877 61.3621 78.4387 61.0773C78.2897 60.7925 78.0742 60.5478 77.8106 60.364L79.5986 58.2973C79.8159 58.038 79.9515 57.72 79.9883 57.3836C80.025 57.0473 79.9614 56.7075 79.8052 56.4073ZM75.3333 56.6667C75.3333 56.7985 75.2942 56.9274 75.2209 57.037C75.1476 57.1467 75.0435 57.2321 74.9217 57.2826C74.7999 57.333 74.6658 57.3462 74.5365 57.3205C74.4072 57.2948 74.2884 57.2313 74.1952 57.1381C74.1019 57.0448 74.0385 56.926 74.0127 56.7967C73.987 56.6674 74.0002 56.5334 74.0507 56.4115C74.1011 56.2897 74.1866 56.1856 74.2962 56.1124C74.4058 56.0391 74.5347 56 74.6666 56C74.8434 56 75.013 56.0702 75.138 56.1953C75.263 56.3203 75.3333 56.4899 75.3333 56.6667ZM77.3332 63.3333C77.3332 63.5101 77.263 63.6797 77.138 63.8047C77.013 63.9298 76.8434 64 76.6666 64H72.6666C72.4898 64 72.3202 63.9298 72.1952 63.8047C72.0702 63.6797 71.9999 63.5101 71.9999 63.3333V62C71.9999 61.8232 72.0702 61.6536 72.1952 61.5286C72.3202 61.4036 72.4898 61.3333 72.6666 61.3333H76.6666C76.8434 61.3333 77.013 61.4036 77.138 61.5286C77.263 61.6536 77.3332 61.8232 77.3332 62V63.3333ZM78.5826 57.436L76.3626 60H72.9713L70.7593 57.4453C70.7095 57.3884 70.6781 57.3178 70.6693 57.2427C70.6605 57.1676 70.6747 57.0916 70.7099 57.0247L73.9999 50.7193V54.7893C73.5551 54.9466 73.1802 55.256 72.9415 55.663C72.7028 56.0699 72.6156 56.5482 72.6954 57.0132C72.7752 57.4782 73.0168 57.9 73.3775 58.2041C73.7382 58.5082 74.1948 58.675 74.6666 58.675C75.1384 58.675 75.595 58.5082 75.9557 58.2041C76.3164 57.9 76.558 57.4782 76.6378 57.0132C76.7176 56.5482 76.6304 56.0699 76.3917 55.663C76.153 55.256 75.7781 54.9466 75.3333 54.7893V50.72L78.6232 57.0247C78.658 57.0895 78.6727 57.1633 78.6654 57.2365C78.6582 57.3098 78.6294 57.3792 78.5826 57.436Z" fill="#C858BC"/>
<defs>
<filter id="filter0_i_370_12" x="16" y="16" width="100" height="100" filterUnits="userSpaceOnUse" color-interpolation-filters="sRGB">
<feFlood flood-opacity="0" result="BackgroundImageFix"/>
<feBlend mode="normal" in="SourceGraphic" in2="BackgroundImageFix" result="shape"/>
<feColorMatrix in="SourceAlpha" type="matrix" values="0 0 0 0 0 0 0 0 0 0 0 0 0 0 0 0 0 0 127 0" result="hardAlpha"/>
<feOffset/>
<feGaussianBlur stdDeviation="2"/>
<feComposite in2="hardAlpha" operator="arithmetic" k2="-1" k3="1"/>
<feColorMatrix type="matrix" values="0 0 0 0 0 0 0 0 0 0 0 0 0 0 0 0 0 0 0.1 0"/>
<feBlend mode="normal" in2="shape" result="effect1_innerShadow_370_12"/>
</filter>
<filter id="filter1_d_370_12" x="0" y="0" width="132" height="132" filterUnits="userSpaceOnUse" color-interpolation-filters="sRGB">
<feFlood flood-opacity="0" result="BackgroundImageFix"/>
<feColorMatrix in="SourceAlpha" type="matrix" values="0 0 0 0 0 0 0 0 0 0 0 0 0 0 0 0 0 0 127 0" result="hardAlpha"/>
<feOffset/>
<feGaussianBlur stdDeviation="15"/>
<feComposite in2="hardAlpha" operator="out"/>
<feColorMatrix type="matrix" values="0 0 0 0 0.031612 0 0 0 0 0.193043 0 0 0 0 0.334296 0 0 0 0.1 0"/>
<feBlend mode="normal" in2="BackgroundImageFix" result="effect1_dropShadow_370_12"/>
<feBlend mode="normal" in="SourceGraphic" in2="effect1_dropShadow_370_12" result="shape"/>
</filter>
</defs>
</svg>
