<svg width="132" height="132" viewBox="0 0 132 132" fill="none" xmlns="http://www.w3.org/2000/svg">
<g filter="url(#filter0_i_370_8)">
<circle cx="66" cy="66" r="50" fill="#91D0F2"/>
</g>
<g filter="url(#filter1_d_370_8)">
<circle cx="66" cy="66" r="36" fill="white"/>
</g>
<path d="M53.0708 73.3176C53.0708 73.0046 53.3245 72.7508 53.6376 72.7508H67.3407C67.6538 72.7508 67.9075 73.0046 67.9075 73.3176C67.9075 73.6307 67.6538 73.8844 67.3407 73.8844H53.6376C53.3245 73.8844 53.0708 73.6307 53.0708 73.3176ZM53.6376 69.6823H63.6481C63.9611 69.6823 64.2149 69.4286 64.2149 69.1155C64.2149 68.8025 63.9611 68.5487 63.6481 68.5487H53.6376C53.3245 68.5487 53.0708 68.8025 53.0708 69.1155C53.0708 69.4286 53.3245 69.6823 53.6376 69.6823ZM76.8377 77.9614V84.6869C76.8377 85.4109 76.2487 85.9999 75.5246 85.9999H66.4908C65.7667 85.9999 65.1777 85.4109 65.1777 84.6869V80.58C63.6738 80.9294 62.1002 81.1067 60.4891 81.1067C59.8213 81.1067 59.15 81.0755 58.4906 81.0138L51.49 85.8981C51.3926 85.966 51.2791 86 51.1657 86C51.0548 86 50.944 85.9676 50.848 85.9026C50.6538 85.7711 50.5605 85.5335 50.6135 85.305L52.0189 79.2506C48.2405 77.397 46 74.4197 46 71.2166C46 69.0198 47.0235 66.9434 48.9598 65.2118C50.8122 63.5552 53.333 62.3598 56.2497 61.7548C56.5562 61.6914 56.8563 61.8881 56.9198 62.1946C56.9834 62.5011 56.7865 62.8011 56.48 62.8647C53.7974 63.4211 51.395 64.5548 49.7155 66.0568C48.0264 67.5673 47.1336 69.3515 47.1336 71.2166C47.1336 74.08 49.2927 76.7719 52.9092 78.4175C53.1549 78.5293 53.2876 78.7987 53.2266 79.0616L52.0514 84.124L58.0137 79.9642C58.1253 79.8863 58.2611 79.8514 58.3966 79.8652C59.0848 79.9367 59.7887 79.973 60.4891 79.973C62.106 79.973 63.6808 79.7846 65.1777 79.414V77.9613C65.1777 77.2373 65.7667 76.6483 66.4908 76.6483H70.9462C72.8168 75.103 73.8447 73.1806 73.8447 71.2165C73.8447 69.1179 72.6819 67.0834 70.5704 65.4879C70.3206 65.2991 70.2712 64.9437 70.4598 64.6939C70.6486 64.4442 71.004 64.3947 71.2538 64.5835C73.6555 66.3984 74.9783 68.754 74.9783 71.2165C74.9783 73.1593 74.1471 75.0472 72.6114 76.6483H75.5245C76.2486 76.6483 76.8377 77.2374 76.8377 77.9614ZM75.704 77.9614C75.704 77.8642 75.6219 77.782 75.5246 77.782H66.4908C66.3935 77.782 66.3113 77.8642 66.3113 77.9614V84.6869C66.3113 84.7841 66.3935 84.8663 66.4908 84.8663H75.5246C75.6219 84.8663 75.704 84.7841 75.704 84.6869V77.9614ZM73.1917 81.3241C73.1917 81.5266 73.0836 81.7137 72.9083 81.8149L69.6739 83.6822C69.5862 83.7328 69.4883 83.7581 69.3905 83.7581C69.2927 83.7581 69.1948 83.7329 69.1071 83.6822C68.9317 83.581 68.8237 83.3939 68.8237 83.1913V79.4567C68.8237 79.2542 68.9317 79.0671 69.1071 78.9659C69.2825 78.8646 69.4985 78.8646 69.6739 78.9659L72.9083 80.8332C73.0836 80.9345 73.1917 81.1216 73.1917 81.3241ZM71.4913 81.3241L69.9573 80.4385V82.2097L71.4913 81.3241ZM82.3008 51.9241C82.397 51.9241 82.4944 51.8997 82.5837 51.8481L84.7728 50.5843C85.0439 50.4278 85.1368 50.0811 84.9802 49.81C84.8238 49.5389 84.4772 49.4461 84.206 49.6026L82.0169 50.8664C81.7458 51.0229 81.653 51.3695 81.8095 51.6406C81.9144 51.8224 82.1049 51.9241 82.3008 51.9241ZM78.6521 49.3669C78.7415 49.4184 78.8389 49.4429 78.9351 49.4429C79.1309 49.4429 79.3215 49.3413 79.4264 49.1594L80.7596 46.8503C80.9161 46.5792 80.8232 46.2326 80.5521 46.076C80.2811 45.9195 79.9344 46.0124 79.7779 46.2835L78.4447 48.5926C78.2882 48.8637 78.3811 49.2104 78.6521 49.3669ZM82.2 55.5118C82.2 55.8248 82.4538 56.0786 82.7668 56.0786H85.4332C85.7462 56.0786 86 55.8248 86 55.5118C86 55.1987 85.7462 54.945 85.4332 54.945H82.7668C82.4538 54.945 82.2 55.1987 82.2 55.5118ZM58.1866 61.7322C58.488 60.6072 59.206 59.6691 60.2084 59.0904L63.1731 57.3787C63.3032 57.3035 63.4581 57.2831 63.6032 57.3221C63.6606 57.3374 63.7143 57.3618 63.7633 57.3933C66.8101 55.1131 69.2125 52.4733 70.5888 49.8895L70.5367 49.7992C69.8944 48.6868 70.2769 47.2593 71.3893 46.6169C72.5019 45.9747 73.9293 46.3572 74.5716 47.4696L76.8845 51.4755C78.113 50.84 79.6416 51.2786 80.3402 52.4888C81.0389 53.6989 80.6544 55.2418 79.4899 55.9882L81.8028 59.9942C82.113 60.5314 82.1948 61.159 82.0334 61.7614C81.872 62.3637 81.4873 62.8663 80.95 63.1765C80.5929 63.3828 80.1958 63.4881 79.7927 63.4881C79.5895 63.4881 79.3848 63.4613 79.1829 63.4072C78.5806 63.2458 78.078 62.8611 77.7679 62.3239L77.7157 62.2336C74.8156 62.1343 71.363 62.881 67.8954 64.3538L71.9879 69.8624C72.3963 70.4122 72.3246 71.1713 71.8211 71.6282L70.9208 72.4452C70.6769 72.6664 70.3589 72.7879 70.0327 72.7879C69.9908 72.7879 69.9487 72.7859 69.9067 72.7818C69.5418 72.7466 69.207 72.5584 68.9882 72.2655L64.7067 66.5364L64.5573 66.6227C63.8911 67.0073 63.1501 67.2038 62.3978 67.2038C62.0182 67.2038 61.6358 67.1538 61.2585 67.0527C60.1336 66.7513 59.1955 66.0333 58.6168 65.0309C58.038 64.0285 57.8853 62.857 58.1866 61.7322ZM71.0778 70.5384L67.0847 65.1634L65.6953 65.9656L69.8963 71.5869C69.9329 71.636 69.9814 71.6502 70.0156 71.6535C70.0463 71.6564 70.1055 71.6541 70.159 71.6056L71.0593 70.7886C71.13 70.7244 71.1379 70.6192 71.0778 70.5384ZM77.4528 52.46L78.9215 55.0039C79.545 54.5717 79.7445 53.7242 79.3585 53.0556C78.9725 52.3871 78.1388 52.1361 77.4528 52.46ZM71.5184 49.2324L78.7495 61.757C78.9083 62.032 79.1663 62.2292 79.4763 62.3122C79.7862 62.3951 80.1082 62.3535 80.3832 62.1948C80.6582 62.036 80.8554 61.7779 80.9385 61.468C81.0215 61.1582 80.9798 60.8361 80.8211 60.5611L73.5899 48.0364C73.3687 47.6532 72.9657 47.4387 72.5521 47.4387C72.3494 47.4387 72.144 47.4902 71.9562 47.5987C71.6812 47.7574 71.484 48.0155 71.4011 48.3254C71.3181 48.6353 71.3597 48.9574 71.5184 49.2324ZM64.3849 58.344L67.2918 63.379C70.6915 61.9143 74.1019 61.118 77.0568 61.0925L71.2476 51.0304C69.7481 53.5767 67.3532 56.1321 64.3849 58.344ZM59.5984 64.4641C60.0257 65.2042 60.7194 65.7347 61.5518 65.9577C62.3841 66.1807 63.2502 66.0682 63.9904 65.6409L66.4642 64.2126L63.249 58.6438L60.7751 60.072C60.035 60.4993 59.5046 61.1931 59.2815 62.0254C59.0585 62.8578 59.1711 63.724 59.5984 64.4641ZM49.1096 52.5524C49.1096 50.6541 50.6539 49.1096 52.5523 49.1096C54.4507 49.1096 55.9951 50.654 55.9951 52.5524C55.9951 54.4507 54.4507 55.995 52.5523 55.995C50.6539 55.995 49.1096 54.4507 49.1096 52.5524ZM50.2432 52.5524C50.2432 53.8256 51.279 54.8614 52.5523 54.8614C53.8256 54.8614 54.8615 53.8256 54.8615 52.5524C54.8615 51.2791 53.8256 50.2432 52.5523 50.2432C51.279 50.2432 50.2432 51.2791 50.2432 52.5524ZM46 53.1509V51.9538C46 51.4244 46.4306 50.9938 46.9599 50.9938C47.4287 50.9938 47.6137 50.6354 47.6591 50.5256C47.7046 50.4157 47.8274 50.0315 47.4958 49.7C47.3145 49.5188 47.2146 49.2777 47.2146 49.0212C47.2146 48.7648 47.3144 48.5236 47.4958 48.3423L48.3422 47.4959C48.7164 47.1215 49.3255 47.1215 49.6998 47.4959C50.0314 47.8274 50.4156 47.7047 50.5254 47.6592C50.6353 47.6137 50.9937 47.4288 50.9937 46.96C50.9937 46.4306 51.4243 46 51.9536 46H53.1507C53.68 46 54.1106 46.4306 54.1106 46.96C54.1106 47.4288 54.469 47.6137 54.5789 47.6592C54.6887 47.7047 55.073 47.8273 55.4045 47.4959C55.7788 47.1215 56.3878 47.1215 56.7621 47.4959L57.6086 48.3423C57.7899 48.5236 57.8897 48.7647 57.8897 49.0211C57.8897 49.2776 57.7899 49.5187 57.6085 49.7C57.277 50.0315 57.3998 50.4157 57.4453 50.5256C57.4908 50.6354 57.6756 50.9938 58.1445 50.9938C58.6738 50.9938 59.1044 51.4244 59.1044 51.9538V53.1509C59.1044 53.6802 58.6738 54.1108 58.1445 54.1108C57.6756 54.1108 57.4907 54.4692 57.4453 54.5791C57.3998 54.6889 57.277 55.0732 57.6086 55.4047C57.9829 55.779 57.9829 56.3881 57.6086 56.7623L56.7621 57.6088C56.5809 57.7901 56.3398 57.89 56.0833 57.89C55.8269 57.89 55.5857 57.7902 55.4045 57.6088C55.073 57.2774 54.6888 57.4 54.5789 57.4455C54.4691 57.491 54.1106 57.6759 54.1106 58.1448C54.1106 58.6741 53.68 59.1047 53.1507 59.1047H51.9538C51.4245 59.1047 50.9938 58.6741 50.9938 58.1448C50.9938 57.6749 50.6357 57.4901 50.526 57.4447C50.4161 57.3991 50.0322 57.2766 49.7 57.6089C49.5188 57.7902 49.2777 57.8901 49.0212 57.8901C48.7648 57.8901 48.5236 57.7902 48.3423 57.6089L47.496 56.7625C47.3147 56.5813 47.2147 56.3401 47.2147 56.0836C47.2147 55.8272 47.3146 55.586 47.496 55.4047C47.8274 55.0732 47.7047 54.689 47.6592 54.5792C47.6137 54.4694 47.4288 54.111 46.96 54.111C46.4306 54.1108 46 53.6802 46 53.1509ZM47.1336 52.9848C47.8373 53.046 48.4305 53.4789 48.7065 54.1453C48.9825 54.8117 48.8691 55.5373 48.4148 56.0783L49.0264 56.6898C49.5678 56.235 50.2935 56.1214 50.9597 56.3973C51.6259 56.6732 52.0586 57.2668 52.1198 57.9712H52.9846C53.0459 57.2675 53.4788 56.6743 54.1452 56.3983C54.8115 56.1224 55.5371 56.2356 56.0781 56.6898L56.6897 56.0783C56.2354 55.5373 56.1221 54.8117 56.3981 54.1453C56.6741 53.479 57.2672 53.046 57.9709 52.9848V52.12C57.2672 52.0587 56.674 51.6258 56.3981 50.9594C56.1221 50.293 56.2354 49.5675 56.6896 49.0265L56.0781 48.4149C55.5369 48.8691 54.8114 48.9824 54.1451 48.7065C53.4788 48.4304 53.0459 47.8373 52.9846 47.1336H52.1198C52.0585 47.8373 51.6257 48.4305 50.9594 48.7065C50.293 48.9825 49.5674 48.8691 49.0264 48.4148L48.4148 49.0264C48.8691 49.5675 48.9824 50.293 48.7064 50.9593C48.4305 51.6258 47.8373 52.0587 47.1336 52.12V52.9848ZM85.9555 68.0543C85.7554 69.7327 84.9483 71.3294 84.485 72.1317C84.0217 72.9341 83.0426 74.4313 81.6891 75.4438C80.8117 76.1002 79.928 76.4304 79.0718 76.4304C78.4739 76.4304 77.8893 76.2694 77.3294 75.9461L77.1258 75.8285C76.7904 75.6349 76.5505 75.3218 76.45 74.9467C76.3495 74.5716 76.4007 74.1805 76.5943 73.8451L77.4082 72.4355C77.8084 71.7422 78.6982 71.5038 79.3916 71.904L79.869 72.1797C80.0043 72.2579 80.1645 72.2314 80.2676 72.1139C80.7127 71.6064 81.1227 71.0299 81.4862 70.4003C81.8496 69.7708 82.144 69.1274 82.3609 68.4882C82.4111 68.3402 82.3539 68.1883 82.2186 68.1101L81.7412 67.8346C81.4058 67.641 81.1659 67.3278 81.0653 66.9527C80.9649 66.5777 81.0161 66.1864 81.2097 65.8511L82.0236 64.4415C82.4237 63.7482 83.3135 63.5098 84.007 63.91L84.2106 64.0275C85.5725 64.8138 86.1758 66.2062 85.9555 68.0543ZM83.6438 65.0092L83.4402 64.8917C83.2883 64.8039 83.093 64.8562 83.0053 65.0082L82.1915 66.4178C82.1493 66.4909 82.1382 66.5766 82.1604 66.6592C82.1825 66.7418 82.235 66.8105 82.3081 66.8527L82.7855 67.1283C83.393 67.4791 83.6599 68.1881 83.4344 68.8525C83.1937 69.5618 82.8685 70.2732 82.4679 70.967C82.0674 71.6607 81.6138 72.298 81.1199 72.8613C80.6572 73.389 79.9099 73.5122 79.3023 73.1614L78.8249 72.8859C78.7749 72.8571 78.7202 72.8433 78.6662 72.8433C78.5561 72.8433 78.4488 72.9004 78.3899 73.0024L77.576 74.412C77.5338 74.4851 77.5228 74.5708 77.5449 74.6534C77.567 74.736 77.6195 74.8047 77.6926 74.8469L77.8962 74.9645C78.8615 75.5217 79.88 75.3816 81.0101 74.5361C82.2459 73.6116 83.1653 72.1503 83.5034 71.5649C83.8414 70.9796 84.6472 69.4525 84.8299 67.9202C84.9969 66.5186 84.609 65.5665 83.6438 65.0092Z" fill="#C858BC"/>
<defs>
<filter id="filter0_i_370_8" x="16" y="16" width="100" height="100" filterUnits="userSpaceOnUse" color-interpolation-filters="sRGB">
<feFlood flood-opacity="0" result="BackgroundImageFix"/>
<feBlend mode="normal" in="SourceGraphic" in2="BackgroundImageFix" result="shape"/>
<feColorMatrix in="SourceAlpha" type="matrix" values="0 0 0 0 0 0 0 0 0 0 0 0 0 0 0 0 0 0 127 0" result="hardAlpha"/>
<feOffset/>
<feGaussianBlur stdDeviation="2"/>
<feComposite in2="hardAlpha" operator="arithmetic" k2="-1" k3="1"/>
<feColorMatrix type="matrix" values="0 0 0 0 0 0 0 0 0 0 0 0 0 0 0 0 0 0 0.1 0"/>
<feBlend mode="normal" in2="shape" result="effect1_innerShadow_370_8"/>
</filter>
<filter id="filter1_d_370_8" x="0" y="0" width="132" height="132" filterUnits="userSpaceOnUse" color-interpolation-filters="sRGB">
<feFlood flood-opacity="0" result="BackgroundImageFix"/>
<feColorMatrix in="SourceAlpha" type="matrix" values="0 0 0 0 0 0 0 0 0 0 0 0 0 0 0 0 0 0 127 0" result="hardAlpha"/>
<feOffset/>
<feGaussianBlur stdDeviation="15"/>
<feComposite in2="hardAlpha" operator="out"/>
<feColorMatrix type="matrix" values="0 0 0 0 0.031612 0 0 0 0 0.193043 0 0 0 0 0.334296 0 0 0 0.1 0"/>
<feBlend mode="normal" in2="BackgroundImageFix" result="effect1_dropShadow_370_8"/>
<feBlend mode="normal" in="SourceGraphic" in2="effect1_dropShadow_370_8" result="shape"/>
</filter>
</defs>
</svg>
