<svg width="132" height="132" viewBox="0 0 132 132" fill="none" xmlns="http://www.w3.org/2000/svg">
<g filter="url(#filter0_i_370_13)">
<circle cx="66" cy="66" r="50" fill="#91D0F2"/>
</g>
<g filter="url(#filter1_d_370_13)">
<circle cx="66" cy="66" r="36" fill="white"/>
</g>
<path fill-rule="evenodd" clip-rule="evenodd" d="M66.2399 66.248C62.4714 66.248 59.331 62.0488 58.9384 56.5059C58.5459 52.2227 59.0954 50.627 59.174 50.375C60.4301 47.1836 63.4135 45 66.711 45C68.8308 45 70.7151 45.9238 71.9712 47.5195C73.1489 48.9473 74.3266 51.7188 73.62 56.4219C73.5415 57.1777 73.4629 57.9336 73.3059 58.6055C73.2274 58.8574 73.0704 59.0254 72.9134 59.0254C71.1076 59.6973 69.93 61.7129 69.93 64.0645V64.4844C69.93 64.7363 69.8514 64.9043 69.6944 64.9883C68.6738 65.8281 67.4176 66.248 66.2399 66.248ZM60.1946 50.8789C60.1946 50.9629 59.645 52.3906 60.0376 56.4219C60.1946 58.7734 60.9797 61.041 62.1574 62.6367C63.2565 64.2324 64.7482 65.0723 66.2399 65.0723C67.1821 65.0723 67.9672 64.8203 68.8308 64.2324C68.8308 64.2324 68.8308 64.1484 68.8308 64.0645C68.8308 61.377 70.244 58.9414 72.2853 58.1016C72.3638 57.5137 72.4423 56.8418 72.5208 56.2539C73.0704 52.8105 72.5993 50.123 71.1076 48.2754C70.087 46.9316 68.4382 46.1758 66.711 46.1758C63.8061 46.1758 61.2152 48.0234 60.1946 50.7949V50.8789Z" fill="#C858BC"/>
<path fill-rule="evenodd" clip-rule="evenodd" d="M61.1367 57.0098H59.488C59.174 57.0098 58.9384 56.7578 58.9384 56.4219C58.9384 56.0859 59.174 55.834 59.488 55.834H60.5872C60.5872 54.4062 61.2152 53.2305 62.3144 52.3066C63.335 51.4668 64.6697 50.8789 66.0044 50.375C68.4382 49.3672 69.93 48.6953 69.7729 46.7637C69.6944 46.5117 69.93 46.1758 70.244 46.1758C70.558 46.0918 70.7936 46.3438 70.8721 46.6797C70.9506 48.0234 70.558 49.0312 69.5374 49.8711C68.6738 50.543 67.5746 50.9629 66.397 51.4668C63.8846 52.4746 61.5293 53.3984 61.6863 56.4219C61.6863 56.5898 61.6078 56.6738 61.5293 56.8418C61.3723 56.9258 61.2938 57.0098 61.1367 57.0098Z" fill="#C858BC"/>
<path fill-rule="evenodd" clip-rule="evenodd" d="M73.0704 57.0938H71.5002C71.3432 57.0938 71.1861 57.0098 71.1076 56.9258C70.9506 56.8418 70.9506 56.6738 70.9506 56.5059C71.1076 53.9023 69.1448 50.543 68.6738 49.7871C68.5168 49.5352 68.5168 49.1992 68.7523 48.9473C69.0663 48.7793 69.3804 48.8633 69.5374 49.1152C70.087 49.8711 71.9712 53.1465 72.0498 55.918H73.0704C73.3844 55.918 73.62 56.1699 73.62 56.5059C73.62 56.8418 73.3844 57.0938 73.0704 57.0938Z" fill="#C858BC"/>
<path fill-rule="evenodd" clip-rule="evenodd" d="M68.3597 88C66.868 88 65.2978 87.748 63.7276 87.2441C63.6491 87.2441 63.4921 87.2441 63.4135 87.3281C61.6078 87.4961 60.1946 87.5801 59.331 87.5801H59.2525C59.174 87.5801 59.174 87.5801 59.0954 87.5801C56.8186 87.5801 54.3848 85.4805 53.8352 83.1289C53.6782 82.2051 53.5212 81.3652 53.2856 80.4414C52.8931 78.6777 52.5005 76.8301 52.1865 74.9824C51.7939 72.7988 52.0295 71.1191 52.8146 70.0273C53.7567 68.7676 55.0914 68.5996 55.2484 68.5996C60.0376 68.3477 61.5293 66.752 61.7648 66.332V63.8125C61.7648 63.4766 62.0789 63.2246 62.3144 63.2246C62.6284 63.2246 62.864 63.4766 62.864 63.8125V66.752C62.7069 67.0039 61.4508 69.4395 55.3269 69.7754C55.2484 69.7754 54.3063 69.8594 53.6782 70.6992C53.0501 71.623 52.8931 72.9668 53.2856 74.8145C53.5997 76.5781 53.9922 78.4258 54.3848 80.1895C54.5418 81.1133 54.7773 81.9531 54.9344 82.877C55.3269 84.7246 57.3682 86.4883 59.174 86.4043H59.2525C60.1161 86.4043 61.5293 86.3203 63.2565 86.1523C63.4135 86.1523 63.4921 86.0684 63.5706 86.0684H63.7276C69.2234 85.3125 75.8183 83.0449 76.2108 76.2422V68.7676C76.2108 68.5996 76.2893 68.4316 76.3679 68.3477C76.5249 68.2637 76.6819 68.1797 76.8389 68.1797C79.3513 68.4316 80.9215 70.5312 81 73.5547C81 78.5938 79.2728 82.793 76.0538 85.3965C74.4051 86.6562 72.5208 87.4961 70.401 87.832C69.7729 87.916 69.0663 88 68.3597 88ZM66.7895 86.7402C70.0085 87.0762 73.0704 86.3203 75.3472 84.3887C78.3306 82.0371 79.9008 78.1738 79.9008 73.5547C79.8223 71.875 79.1942 70.0273 77.31 69.5234V76.3262C76.9959 81.6172 73.3844 85.1445 66.7895 86.7402Z" fill="#C858BC"/>
<path fill-rule="evenodd" clip-rule="evenodd" d="M65.2978 83.3809C64.4342 83.3809 63.6491 83.2969 62.9425 83.1289C61.3723 82.709 60.1161 81.9531 59.2525 80.7773C58.3103 79.5176 57.8393 77.7539 57.9963 75.7383C57.9963 75.4023 58.2318 75.1504 58.5459 75.1504C58.8599 75.1504 59.0954 75.4863 59.0954 75.7383C58.8599 80.0215 61.2152 81.5332 63.178 81.9531C63.8846 82.1211 64.5912 82.2051 65.2978 82.2051C69.6944 82.2051 74.8761 79.4336 76.2893 75.9062C76.3679 75.5703 76.6819 75.4023 76.9959 75.5703C77.2315 75.6543 77.3885 76.0742 77.31 76.3262C76.3679 78.5938 74.1695 80.6934 71.2646 82.0371C69.3019 82.9609 67.1821 83.3809 65.2978 83.3809Z" fill="#C858BC"/>
<path fill-rule="evenodd" clip-rule="evenodd" d="M74.0125 70.4473C71.1076 70.4473 68.8308 67.5918 68.8308 64.0645C68.8308 60.5371 71.1076 57.6816 74.0125 57.6816C76.9174 57.6816 79.2728 60.5371 79.2728 64.0645C79.2728 67.5918 76.9174 70.4473 74.0125 70.4473ZM74.0125 58.8574C71.7357 58.8574 69.93 61.209 69.93 64.0645C69.93 66.9199 71.7357 69.2715 74.0125 69.2715C76.2893 69.2715 78.1736 66.9199 78.1736 64.0645C78.1736 61.209 76.2893 58.8574 74.0125 58.8574Z" fill="#C858BC"/>
<path fill-rule="evenodd" clip-rule="evenodd" d="M72.1283 71.791C71.5787 71.791 71.0291 71.707 70.3225 71.4551C70.087 71.2871 69.7729 71.2031 69.5374 71.1191C67.2606 70.3633 64.9053 69.6074 61.8433 64.0645C61.6863 63.8125 61.8433 63.4766 62.0789 63.3086C62.3144 63.1406 62.7069 63.2246 62.7855 63.4766C65.6119 68.5996 67.8102 69.3555 69.8514 70.0273C70.087 70.1113 70.401 70.1953 70.7151 70.2793C71.6572 70.6992 72.3638 70.6992 72.8349 70.4473C73.0704 70.3633 73.2274 70.1113 73.3059 69.7754C73.3844 69.4395 73.62 69.2715 73.934 69.2715C74.2481 69.3555 74.4051 69.6914 74.3266 70.0273C74.1695 70.6992 73.8555 71.2031 73.3059 71.5391C72.9919 71.707 72.5993 71.791 72.1283 71.791Z" fill="#C858BC"/>
<path fill-rule="evenodd" clip-rule="evenodd" d="M67.0251 83.2969C66.7895 83.2969 66.554 83.1289 66.4755 82.877C65.8474 80.8613 66.0829 78.6777 67.1821 76.4941C67.6531 75.6543 68.0457 75.0664 68.4382 74.5625C67.1821 74.1426 65.9259 73.1348 64.7482 71.707C63.5706 70.3633 62.5499 68.5156 61.8433 66.752C61.7648 66.416 61.8433 66.0801 62.1574 65.9961C62.3929 65.8281 62.7855 65.9961 62.864 66.248C64.1201 69.5234 66.711 73.2188 69.5374 73.6387C69.7729 73.6387 69.93 73.8066 70.0085 74.0586C70.087 74.3105 70.0085 74.4785 69.8514 74.6465C69.8514 74.7305 66.1614 78.3418 67.4961 82.457C67.6531 82.793 67.4961 83.1289 67.1821 83.2129C67.1036 83.2969 67.1036 83.2969 67.0251 83.2969Z" fill="#C858BC"/>
<path fill-rule="evenodd" clip-rule="evenodd" d="M59.174 69.1875C59.0169 69.1875 58.8599 69.1035 58.7814 68.9355C58.5459 68.7676 58.5459 68.3477 58.7814 68.0957C59.488 67.4238 59.8806 63.4766 60.0376 60.957C60.0376 60.6211 60.2731 60.3691 60.5872 60.3691C60.9012 60.3691 61.1367 60.7051 61.1367 60.957C61.1367 61.041 61.0582 62.6367 60.8227 64.4004C60.4301 67.7598 59.8806 68.5996 59.5665 69.0195C59.4095 69.1035 59.331 69.1875 59.174 69.1875Z" fill="#C858BC"/>
<defs>
<filter id="filter0_i_370_13" x="16" y="16" width="100" height="100" filterUnits="userSpaceOnUse" color-interpolation-filters="sRGB">
<feFlood flood-opacity="0" result="BackgroundImageFix"/>
<feBlend mode="normal" in="SourceGraphic" in2="BackgroundImageFix" result="shape"/>
<feColorMatrix in="SourceAlpha" type="matrix" values="0 0 0 0 0 0 0 0 0 0 0 0 0 0 0 0 0 0 127 0" result="hardAlpha"/>
<feOffset/>
<feGaussianBlur stdDeviation="2"/>
<feComposite in2="hardAlpha" operator="arithmetic" k2="-1" k3="1"/>
<feColorMatrix type="matrix" values="0 0 0 0 0 0 0 0 0 0 0 0 0 0 0 0 0 0 0.1 0"/>
<feBlend mode="normal" in2="shape" result="effect1_innerShadow_370_13"/>
</filter>
<filter id="filter1_d_370_13" x="0" y="0" width="132" height="132" filterUnits="userSpaceOnUse" color-interpolation-filters="sRGB">
<feFlood flood-opacity="0" result="BackgroundImageFix"/>
<feColorMatrix in="SourceAlpha" type="matrix" values="0 0 0 0 0 0 0 0 0 0 0 0 0 0 0 0 0 0 127 0" result="hardAlpha"/>
<feOffset/>
<feGaussianBlur stdDeviation="15"/>
<feComposite in2="hardAlpha" operator="out"/>
<feColorMatrix type="matrix" values="0 0 0 0 0.031612 0 0 0 0 0.193043 0 0 0 0 0.334296 0 0 0 0.1 0"/>
<feBlend mode="normal" in2="BackgroundImageFix" result="effect1_dropShadow_370_13"/>
<feBlend mode="normal" in="SourceGraphic" in2="effect1_dropShadow_370_13" result="shape"/>
</filter>
</defs>
</svg>
