<svg width="29" height="43" viewBox="0 0 29 43" fill="none" xmlns="http://www.w3.org/2000/svg">
<path fill-rule="evenodd" clip-rule="evenodd" d="M14.2399 21.248C10.4714 21.248 7.33098 17.0488 6.93842 11.5059C6.54587 7.22266 7.09544 5.62695 7.17395 5.375C8.43013 2.18359 11.4135 0 14.711 0C16.8308 0 18.7151 0.923828 19.9712 2.51953C21.1489 3.94727 22.3266 6.71875 21.62 11.4219C21.5415 12.1777 21.4629 12.9336 21.3059 13.6055C21.2274 13.8574 21.0704 14.0254 20.9134 14.0254C19.1076 14.6973 17.93 16.7129 17.93 19.0645V19.4844C17.93 19.7363 17.8514 19.9043 17.6944 19.9883C16.6738 20.8281 15.4176 21.248 14.2399 21.248ZM8.1946 5.87891C8.1946 5.96289 7.64502 7.39062 8.03758 11.4219C8.1946 13.7734 8.97971 16.041 10.1574 17.6367C11.2565 19.2324 12.7482 20.0723 14.2399 20.0723C15.1821 20.0723 15.9672 19.8203 16.8308 19.2324C16.8308 19.2324 16.8308 19.1484 16.8308 19.0645C16.8308 16.377 18.244 13.9414 20.2853 13.1016C20.3638 12.5137 20.4423 11.8418 20.5208 11.2539C21.0704 7.81055 20.5993 5.12305 19.1076 3.27539C18.087 1.93164 16.4382 1.17578 14.711 1.17578C11.8061 1.17578 9.21524 3.02344 8.1946 5.79492V5.87891Z" fill="#C858BC"/>
<path fill-rule="evenodd" clip-rule="evenodd" d="M9.13673 12.0098H7.488C7.17395 12.0098 6.93842 11.7578 6.93842 11.4219C6.93842 11.0859 7.17395 10.834 7.488 10.834H8.58715C8.58715 9.40625 9.21524 8.23047 10.3144 7.30664C11.335 6.4668 12.6697 5.87891 14.0044 5.375C16.4382 4.36719 17.93 3.69531 17.7729 1.76367C17.6944 1.51172 17.93 1.17578 18.244 1.17578C18.558 1.0918 18.7936 1.34375 18.8721 1.67969C18.9506 3.02344 18.558 4.03125 17.5374 4.87109C16.6738 5.54297 15.5746 5.96289 14.397 6.4668C11.8846 7.47461 9.52928 8.39844 9.68631 11.4219C9.68631 11.5898 9.60779 11.6738 9.52928 11.8418C9.37226 11.9258 9.29375 12.0098 9.13673 12.0098Z" fill="#C858BC"/>
<path fill-rule="evenodd" clip-rule="evenodd" d="M21.0704 12.0938H19.5002C19.3432 12.0938 19.1861 12.0098 19.1076 11.9258C18.9506 11.8418 18.9506 11.6738 18.9506 11.5059C19.1076 8.90234 17.1448 5.54297 16.6738 4.78711C16.5168 4.53516 16.5168 4.19922 16.7523 3.94727C17.0663 3.7793 17.3804 3.86328 17.5374 4.11523C18.087 4.87109 19.9712 8.14648 20.0498 10.918H21.0704C21.3844 10.918 21.62 11.1699 21.62 11.5059C21.62 11.8418 21.3844 12.0938 21.0704 12.0938Z" fill="#C858BC"/>
<path fill-rule="evenodd" clip-rule="evenodd" d="M16.3597 43C14.868 43 13.2978 42.748 11.7276 42.2441C11.6491 42.2441 11.4921 42.2441 11.4135 42.3281C9.60779 42.4961 8.1946 42.5801 7.33098 42.5801H7.25247C7.17395 42.5801 7.17395 42.5801 7.09544 42.5801C4.81863 42.5801 2.38479 40.4805 1.83521 38.1289C1.67819 37.2051 1.52117 36.3652 1.28563 35.4414C0.893078 33.6777 0.500523 31.8301 0.186479 29.9824C-0.206076 27.7988 0.0294572 26.1191 0.814567 25.0273C1.7567 23.7676 3.09138 23.5996 3.24841 23.5996C8.03758 23.3477 9.52928 21.752 9.76482 21.332V18.8125C9.76482 18.4766 10.0789 18.2246 10.3144 18.2246C10.6284 18.2246 10.864 18.4766 10.864 18.8125V21.752C10.7069 22.0039 9.45077 24.4395 3.32692 24.7754C3.24841 24.7754 2.30628 24.8594 1.67819 25.6992C1.0501 26.623 0.893078 27.9668 1.28563 29.8145C1.59968 31.5781 1.99223 33.4258 2.38479 35.1895C2.54181 36.1133 2.77734 36.9531 2.93436 37.877C3.32692 39.7246 5.3682 41.4883 7.17395 41.4043H7.25247C8.11609 41.4043 9.52928 41.3203 11.2565 41.1523C11.4135 41.1523 11.4921 41.0684 11.5706 41.0684H11.7276C17.2234 40.3125 23.8183 38.0449 24.2108 31.2422V23.7676C24.2108 23.5996 24.2893 23.4316 24.3679 23.3477C24.5249 23.2637 24.6819 23.1797 24.8389 23.1797C27.3513 23.4316 28.9215 25.5312 29 28.5547C29 33.5938 27.2728 37.793 24.0538 40.3965C22.4051 41.6562 20.5208 42.4961 18.401 42.832C17.7729 42.916 17.0663 43 16.3597 43ZM14.7895 41.7402C18.0085 42.0762 21.0704 41.3203 23.3472 39.3887C26.3306 37.0371 27.9008 33.1738 27.9008 28.5547C27.8223 26.875 27.1942 25.0273 25.31 24.5234V31.3262C24.9959 36.6172 21.3844 40.1445 14.7895 41.7402Z" fill="#C858BC"/>
<path fill-rule="evenodd" clip-rule="evenodd" d="M13.2978 38.3809C12.4342 38.3809 11.6491 38.2969 10.9425 38.1289C9.37226 37.709 8.11609 36.9531 7.25247 35.7773C6.31033 34.5176 5.83927 32.7539 5.99629 30.7383C5.99629 30.4023 6.23182 30.1504 6.54587 30.1504C6.85991 30.1504 7.09544 30.4863 7.09544 30.7383C6.85991 35.0215 9.21524 36.5332 11.178 36.9531C11.8846 37.1211 12.5912 37.2051 13.2978 37.2051C17.6944 37.2051 22.8761 34.4336 24.2893 30.9062C24.3679 30.5703 24.6819 30.4023 24.9959 30.5703C25.2315 30.6543 25.3885 31.0742 25.31 31.3262C24.3679 33.5938 22.1695 35.6934 19.2646 37.0371C17.3019 37.9609 15.1821 38.3809 13.2978 38.3809Z" fill="#C858BC"/>
<path fill-rule="evenodd" clip-rule="evenodd" d="M22.0125 25.4473C19.1076 25.4473 16.8308 22.5918 16.8308 19.0645C16.8308 15.5371 19.1076 12.6816 22.0125 12.6816C24.9174 12.6816 27.2728 15.5371 27.2728 19.0645C27.2728 22.5918 24.9174 25.4473 22.0125 25.4473ZM22.0125 13.8574C19.7357 13.8574 17.93 16.209 17.93 19.0645C17.93 21.9199 19.7357 24.2715 22.0125 24.2715C24.2893 24.2715 26.1736 21.9199 26.1736 19.0645C26.1736 16.209 24.2893 13.8574 22.0125 13.8574Z" fill="#C858BC"/>
<path fill-rule="evenodd" clip-rule="evenodd" d="M20.1283 26.791C19.5787 26.791 19.0291 26.707 18.3225 26.4551C18.087 26.2871 17.7729 26.2031 17.5374 26.1191C15.2606 25.3633 12.9053 24.6074 9.84333 19.0645C9.68631 18.8125 9.84333 18.4766 10.0789 18.3086C10.3144 18.1406 10.7069 18.2246 10.7855 18.4766C13.6119 23.5996 15.8102 24.3555 17.8514 25.0273C18.087 25.1113 18.401 25.1953 18.7151 25.2793C19.6572 25.6992 20.3638 25.6992 20.8349 25.4473C21.0704 25.3633 21.2274 25.1113 21.3059 24.7754C21.3844 24.4395 21.62 24.2715 21.934 24.2715C22.2481 24.3555 22.4051 24.6914 22.3266 25.0273C22.1695 25.6992 21.8555 26.2031 21.3059 26.5391C20.9919 26.707 20.5993 26.791 20.1283 26.791Z" fill="#C858BC"/>
<path fill-rule="evenodd" clip-rule="evenodd" d="M15.0251 38.2969C14.7895 38.2969 14.554 38.1289 14.4755 37.877C13.8474 35.8613 14.0829 33.6777 15.1821 31.4941C15.6531 30.6543 16.0457 30.0664 16.4382 29.5625C15.1821 29.1426 13.9259 28.1348 12.7482 26.707C11.5706 25.3633 10.5499 23.5156 9.84333 21.752C9.76482 21.416 9.84333 21.0801 10.1574 20.9961C10.3929 20.8281 10.7855 20.9961 10.864 21.248C12.1201 24.5234 14.711 28.2188 17.5374 28.6387C17.7729 28.6387 17.93 28.8066 18.0085 29.0586C18.087 29.3105 18.0085 29.4785 17.8514 29.6465C17.8514 29.7305 14.1614 33.3418 15.4961 37.457C15.6531 37.793 15.4961 38.1289 15.1821 38.2129C15.1036 38.2969 15.1036 38.2969 15.0251 38.2969Z" fill="#C858BC"/>
<path fill-rule="evenodd" clip-rule="evenodd" d="M7.17395 24.1875C7.01693 24.1875 6.85991 24.1035 6.7814 23.9355C6.54587 23.7676 6.54587 23.3477 6.7814 23.0957C7.488 22.4238 7.88055 18.4766 8.03758 15.957C8.03758 15.6211 8.27311 15.3691 8.58715 15.3691C8.9012 15.3691 9.13673 15.7051 9.13673 15.957C9.13673 16.041 9.05822 17.6367 8.82269 19.4004C8.43013 22.7598 7.88055 23.5996 7.56651 24.0195C7.40949 24.1035 7.33098 24.1875 7.17395 24.1875Z" fill="#C858BC"/>
</svg>
