<svg width="132" height="132" viewBox="0 0 132 132" fill="none" xmlns="http://www.w3.org/2000/svg">
<g filter="url(#filter0_i_370_11)">
<circle cx="66" cy="66" r="50" fill="#91D0F2"/>
</g>
<g filter="url(#filter1_d_370_11)">
<circle cx="66" cy="66" r="36" fill="white"/>
</g>
<path d="M52.9214 57.426C53.0212 57.5256 53.1501 57.591 53.2894 57.6128C53.4287 57.6346 53.5713 57.6117 53.6968 57.5473C54.0748 57.3526 54.4679 57.1885 54.8721 57.0567C55.0062 57.0133 55.123 56.9286 55.2059 56.8147C55.2887 56.7008 55.3334 56.5635 55.3335 56.4227V55.3333C55.3335 55.1565 55.2632 54.987 55.1382 54.8619C55.0132 54.7369 54.8436 54.6667 54.6668 54.6667C54.49 54.6667 54.3204 54.7369 54.1954 54.8619C54.0704 54.987 54.0001 55.1565 54.0001 55.3333V55.952C53.8435 56.0127 53.6861 56.0787 53.5334 56.1487L52.1514 54.7673C52.0264 54.6424 51.8569 54.5721 51.6801 54.5721C51.5033 54.5721 51.3338 54.6424 51.2087 54.7673L47.4334 58.5387C47.3084 58.6637 47.2382 58.8332 47.2382 59.01C47.2382 59.1868 47.3084 59.3563 47.4334 59.4813L48.8154 60.8627C48.7447 61.0193 48.682 61.1767 48.6187 61.3333H46.6667C46.4899 61.3333 46.3203 61.4036 46.1953 61.5286C46.0702 61.6536 46 61.8232 46 62V67.3333C46 67.5101 46.0702 67.6797 46.1953 67.8047C46.3203 67.9298 46.4899 68 46.6667 68H48.6187C48.6794 68.1567 48.7447 68.314 48.8154 68.4707L47.4334 69.852C47.3084 69.977 47.2382 70.1466 47.2382 70.3233C47.2382 70.5001 47.3084 70.6696 47.4334 70.7947L50.2414 73.6C50.3671 73.7214 50.5355 73.7886 50.7103 73.7871C50.8851 73.7856 51.0524 73.7155 51.176 73.5919C51.2996 73.4683 51.3697 73.3011 51.3712 73.1263C51.3727 72.9515 51.3055 72.7831 51.1841 72.6573L48.8507 70.324L50.0961 69.08C50.1957 68.9802 50.2611 68.8514 50.2829 68.7121C50.3047 68.5728 50.2818 68.4301 50.2174 68.3047C50.0225 67.9268 49.8586 67.5337 49.7274 67.1293C49.684 66.9944 49.5988 66.8768 49.4841 66.7936C49.3693 66.7104 49.2311 66.666 49.0894 66.6667H47.3334V62.6667H49.0894C49.2304 62.6667 49.3679 62.622 49.4819 62.539C49.596 62.456 49.6808 62.3389 49.7241 62.2047C49.8553 61.8003 50.0191 61.4072 50.2141 61.0293C50.2784 60.9039 50.3014 60.7612 50.2796 60.6219C50.2578 60.4826 50.1924 60.3538 50.0927 60.254L48.8474 59.01L51.6768 56.1813L52.9214 57.426Z" fill="#C858BC"/>
<path d="M69.2764 72.9373L71.7671 67.3333H72.0004C73.0488 67.333 74.0658 67.6907 74.8831 68.3473C74.9512 68.4054 75.0304 68.4492 75.1158 68.4761C75.2012 68.5029 75.2912 68.5123 75.3803 68.5036C75.4695 68.4949 75.5559 68.4684 75.6346 68.4256C75.7132 68.3828 75.7824 68.3245 75.8381 68.2544C75.8937 68.1842 75.9347 68.1035 75.9584 68.0172C75.9822 67.9309 75.9884 67.8407 75.9765 67.7519C75.9647 67.6631 75.9351 67.5777 75.8895 67.5006C75.8439 67.4235 75.7832 67.3564 75.7111 67.3033C74.659 66.4584 73.3497 65.9986 72.0004 66H69.3337V65.472C70.356 64.8067 71.1962 63.8969 71.7783 62.8251C72.3603 61.7532 72.6658 60.553 72.6671 59.3333V57.7893C73.2961 57.2298 73.7995 56.5435 74.1442 55.7755C74.4889 55.0075 74.6671 54.1752 74.6671 53.3333C74.6648 51.3891 73.8914 49.5252 72.5167 48.1504C71.1419 46.7756 69.2779 46.0023 67.3337 46H63.3336C61.5383 46.0017 59.8063 46.6632 58.4669 47.8587C58.3348 47.9762 58.2548 48.1415 58.2446 48.318C58.2343 48.4945 58.2946 48.6679 58.4122 48.8C58.5298 48.9321 58.695 49.012 58.8715 49.0223C59.0481 49.0325 59.2215 48.9722 59.3535 48.8547C60.4489 47.8768 61.8653 47.3354 63.3336 47.3333H67.3337C68.9244 47.3351 70.4496 47.9678 71.5744 49.0926C72.6993 50.2175 73.332 51.7426 73.3337 53.3333C73.3331 54.175 73.1025 55.0004 72.6671 55.7207V54C72.6671 53.8232 72.5968 53.6536 72.4718 53.5286C72.3468 53.4036 72.1772 53.3333 72.0004 53.3333H69.221C68.151 53.3302 67.0999 53.0517 66.1688 52.5245C65.2377 51.9973 64.4581 51.2392 63.9049 50.3233C63.8373 50.2108 63.738 50.1207 63.6194 50.0643C63.5008 50.008 63.3682 49.9879 63.2383 50.0067L62.5316 50.108C61.2761 50.2929 60.1284 50.9217 59.297 51.8805C58.4656 52.8392 58.0055 54.0643 58.0002 55.3333V55.7187C57.5647 54.9992 57.3342 54.1743 57.3335 53.3333C57.334 52.4573 57.5282 51.5922 57.9022 50.8C57.9393 50.7206 57.9603 50.6348 57.9642 50.5472C57.9681 50.4597 57.9547 50.3723 57.9248 50.29C57.8949 50.2076 57.8491 50.132 57.79 50.0674C57.7308 50.0028 57.6595 49.9504 57.5802 49.9133C57.4199 49.8385 57.2364 49.8303 57.0701 49.8907C56.9039 49.9511 56.7684 50.0751 56.6935 50.2353C56.2371 51.2044 56.0004 52.2622 56.0002 53.3333C56.0001 54.1752 56.1783 55.0075 56.523 55.7755C56.8677 56.5435 57.3712 57.2298 58.0002 57.7893V59.3333C58.0015 60.553 58.307 61.7532 58.889 62.8251C59.471 63.8969 60.3113 64.8067 61.3336 65.472V66H58.6669C57.1634 66.0003 55.7156 66.5682 54.6128 67.59C54.0957 67.1112 53.7146 66.5041 53.5083 65.8303C53.3019 65.1565 53.2776 64.4401 53.4378 63.7538C53.598 63.0676 53.9371 62.436 54.4205 61.9233C54.904 61.4106 55.5145 61.035 56.1902 60.8347C56.3585 60.7833 56.4996 60.6675 56.5829 60.5124C56.6661 60.3574 56.6847 60.1757 56.6345 60.007C56.5844 59.8384 56.4696 59.6964 56.3151 59.612C56.1607 59.5276 55.9792 59.5077 55.8101 59.5567C54.906 59.8251 54.0894 60.3289 53.4438 61.0163C52.7982 61.7038 52.3467 62.5504 52.1355 63.4696C51.9243 64.3887 51.9609 65.3475 52.2417 66.2478C52.5224 67.1482 53.0372 67.9578 53.7335 68.594C53.0382 69.5936 52.6659 70.7823 52.6668 72V85.3333C52.6668 85.5101 52.737 85.6797 52.862 85.8047C52.9871 85.9298 53.1566 86 53.3334 86C53.5103 86 53.6798 85.9298 53.8049 85.8047C53.9299 85.6797 54.0001 85.5101 54.0001 85.3333V72C54.0015 70.7628 54.4937 69.5766 55.3685 68.7017C56.2434 67.8269 57.4296 67.3347 58.6669 67.3333H58.9002L61.3909 72.9373C61.4323 73.0306 61.4945 73.1131 61.5728 73.1785C61.6511 73.2439 61.7433 73.2905 61.8424 73.3146C61.9415 73.3388 62.0449 73.3398 62.1445 73.3178C62.2441 73.2957 62.3373 73.2511 62.4169 73.1873L64.667 71.3873V84.6667C64.667 84.8435 64.7372 85.0131 64.8622 85.1381C64.9872 85.2631 65.1568 85.3333 65.3336 85.3333C65.5104 85.3333 65.68 85.2631 65.805 85.1381C65.9301 85.0131 66.0003 84.8435 66.0003 84.6667V71.3873L68.2503 73.1873C68.33 73.2511 68.4232 73.2957 68.5228 73.3178C68.6224 73.3398 68.7257 73.3388 68.8248 73.3146C68.9239 73.2905 69.0162 73.2439 69.0945 73.1785C69.1727 73.1131 69.235 73.0306 69.2764 72.9373ZM59.3335 59.3333V55.3333C59.3376 54.3847 59.6816 53.469 60.3031 52.7524C60.9246 52.0357 61.7824 51.5656 62.7209 51.4273L63.0043 51.3873C63.6984 52.3956 64.6266 53.2206 65.7092 53.7917C66.7919 54.3628 67.9969 54.663 69.221 54.6667H71.3337V59.3333C71.3337 60.9246 70.7016 62.4508 69.5763 63.576C68.4511 64.7012 66.925 65.3333 65.3336 65.3333C63.7423 65.3333 62.2162 64.7012 61.0909 63.576C59.9657 62.4508 59.3335 60.9246 59.3335 59.3333ZM65.3336 66.6667C66.2466 66.6655 67.1512 66.4927 68.0003 66.1573V67.0133L65.3336 69.1467L62.6669 67.0133V66.1573C63.5161 66.4927 64.4207 66.6655 65.3336 66.6667ZM62.2589 71.6067L60.3596 67.3333H61.3336C61.3335 67.4333 61.356 67.532 61.3993 67.6221C61.4425 67.7123 61.5055 67.7915 61.5836 67.854L64.2669 70L62.2589 71.6067ZM68.4083 71.6067L66.4003 70L69.083 67.854C69.1612 67.7916 69.2243 67.7124 69.2677 67.6222C69.3111 67.5321 69.3336 67.4334 69.3337 67.3333H70.3077L68.4083 71.6067Z" fill="#C858BC"/>
<path d="M58.0002 74.6667C57.8234 74.6667 57.6538 74.7369 57.5288 74.8619C57.4037 74.987 57.3335 75.1565 57.3335 75.3333V85.3333C57.3335 85.5101 57.4037 85.6797 57.5288 85.8047C57.6538 85.9298 57.8234 86 58.0002 86C58.177 86 58.3466 85.9298 58.4716 85.8047C58.5966 85.6797 58.6669 85.5101 58.6669 85.3333V75.3333C58.6669 75.1565 58.5966 74.987 58.4716 74.8619C58.3466 74.7369 58.177 74.6667 58.0002 74.6667Z" fill="#C858BC"/>
<path d="M60.8622 56.862C60.7408 56.9877 60.6736 57.1561 60.6751 57.3309C60.6766 57.5057 60.7467 57.6729 60.8703 57.7965C60.994 57.9202 61.1612 57.9903 61.336 57.9918C61.5108 57.9933 61.6792 57.9261 61.8049 57.8047C62.0337 57.5764 62.3437 57.4483 62.6669 57.4483C62.9901 57.4483 63.3001 57.5764 63.5289 57.8047C63.6547 57.9261 63.8231 57.9933 63.9979 57.9918C64.1727 57.9903 64.3399 57.9202 64.4635 57.7965C64.5871 57.6729 64.6572 57.5057 64.6587 57.3309C64.6603 57.1561 64.5931 56.9877 64.4716 56.862C63.9927 56.384 63.3436 56.1155 62.6669 56.1155C61.9902 56.1155 61.3412 56.384 60.8622 56.862Z" fill="#C858BC"/>
<path d="M67.1383 57.8047C67.3672 57.5764 67.6771 57.4483 68.0003 57.4483C68.3235 57.4483 68.6335 57.5764 68.8623 57.8047C68.9881 57.9261 69.1565 57.9933 69.3313 57.9918C69.5061 57.9903 69.6733 57.9202 69.7969 57.7965C69.9205 57.6729 69.9906 57.5057 69.9921 57.3309C69.9937 57.1561 69.9265 56.9877 69.805 56.862C69.3261 56.384 68.677 56.1155 68.0003 56.1155C67.3236 56.1155 66.6746 56.384 66.1956 56.862C66.0742 56.9877 66.007 57.1561 66.0085 57.3309C66.01 57.5057 66.0802 57.6729 66.2038 57.7965C66.3274 57.9202 66.4946 57.9903 66.6694 57.9918C66.8442 57.9933 67.0126 57.9261 67.1383 57.8047Z" fill="#C858BC"/>
<path d="M70.667 52C70.8439 52 71.0134 51.9298 71.1385 51.8047C71.2635 51.6797 71.3337 51.5101 71.3337 51.3333C71.3337 51.1565 71.2635 50.987 71.1385 50.8619C71.0134 50.7369 70.8439 50.6667 70.667 50.6667C69.9087 50.6687 69.1575 50.5202 68.4569 50.2299C67.7563 49.9396 67.1203 49.5132 66.5856 48.9753L66.471 48.8613C66.4094 48.7978 66.3358 48.7471 66.2544 48.7123C66.173 48.6774 66.0855 48.6592 65.997 48.6585C65.9084 48.6579 65.8207 48.6749 65.7388 48.7085C65.6569 48.7422 65.5826 48.7918 65.5201 48.8544C65.4575 48.9171 65.4081 48.9916 65.3747 49.0736C65.3413 49.1556 65.3246 49.2434 65.3255 49.3319C65.3264 49.4204 65.3449 49.5079 65.3799 49.5891C65.415 49.6704 65.4659 49.7439 65.5296 49.8053L65.6436 49.9187C66.3016 50.5807 67.0844 51.1055 67.9467 51.4628C68.809 51.8201 69.7337 52.0027 70.667 52Z" fill="#C858BC"/>
<path d="M77.3338 65.3333H84.0006C84.1774 65.3333 84.347 65.2631 84.472 65.1381C84.597 65.013 84.6673 64.8435 84.6673 64.6667V61.3333C84.6673 61.1565 84.597 60.987 84.472 60.8619C84.347 60.7369 84.1774 60.6667 84.0006 60.6667C83.8238 60.6667 83.6542 60.7369 83.5292 60.8619C83.4041 60.987 83.3339 61.1565 83.3339 61.3333V64H77.3338C77.157 64 76.9874 63.9298 76.8624 63.8047C76.7374 63.6797 76.6671 63.5101 76.6671 63.3333V56.6667C76.6671 56.4899 76.7374 56.3203 76.8624 56.1953C76.9874 56.0702 77.157 56 77.3338 56H78.0005V58C78.0004 58.1137 78.0294 58.2254 78.0847 58.3247C78.14 58.424 78.2198 58.5075 78.3165 58.5673C78.4131 58.6271 78.5235 58.6612 78.637 58.6663C78.7505 58.6714 78.8635 58.6475 78.9652 58.5967L80.0005 58.0787L81.0359 58.5967C81.1375 58.6475 81.2505 58.6714 81.364 58.6663C81.4776 58.6612 81.5879 58.6271 81.6846 58.5673C81.7812 58.5075 81.861 58.424 81.9163 58.3247C81.9716 58.2254 82.0006 58.1137 82.0005 58V56H83.3339V58.6547C83.3339 58.8315 83.4041 59.001 83.5292 59.1261C83.6542 59.2511 83.8238 59.3213 84.0006 59.3213C84.1774 59.3213 84.347 59.2511 84.472 59.1261C84.597 59.001 84.6673 58.8315 84.6673 58.6547V55.3333C84.6673 55.1565 84.597 54.987 84.472 54.8619C84.347 54.7369 84.1774 54.6667 84.0006 54.6667H81.8152C81.6991 54.4646 81.5319 54.2967 81.3304 54.1797C81.1289 54.0627 80.9002 54.0007 80.6672 54H79.3338C79.1008 54.0007 78.8721 54.0627 78.6706 54.1797C78.4691 54.2967 78.3019 54.4646 78.1858 54.6667H77.3338C76.8034 54.6667 76.2947 54.8774 75.9196 55.2525C75.5445 55.6275 75.3338 56.1362 75.3338 56.6667V63.3333C75.3338 63.8638 75.5445 64.3725 75.9196 64.7475C76.2947 65.1226 76.8034 65.3333 77.3338 65.3333ZM80.6672 55.3333V56.9213L80.2985 56.7367C80.206 56.6904 80.104 56.6664 80.0005 56.6664C79.8971 56.6664 79.795 56.6904 79.7025 56.7367L79.3338 56.9213V55.3333H80.6672Z" fill="#C858BC"/>
<path d="M78.6672 60.6667C78.4903 60.6667 78.3208 60.7369 78.1958 60.8619C78.0707 60.987 78.0005 61.1565 78.0005 61.3333C78.0005 61.5101 78.0707 61.6797 78.1958 61.8047C78.3208 61.9298 78.4903 62 78.6672 62H80.6672C80.844 62 81.0136 61.9298 81.1386 61.8047C81.2636 61.6797 81.3339 61.5101 81.3339 61.3333C81.3339 61.1565 81.2636 60.987 81.1386 60.8619C81.0136 60.7369 80.844 60.6667 80.6672 60.6667H78.6672Z" fill="#C858BC"/>
<path d="M85.9073 75.2C85.8309 75.0714 85.7135 74.9723 85.574 74.9185C85.4344 74.8647 85.2809 74.8593 85.1379 74.9033L78.0005 77.0973V72.582L79.2085 75.0287C79.2448 75.111 79.2974 75.185 79.3631 75.2465C79.4288 75.3079 79.5063 75.3554 79.5908 75.3861C79.6753 75.4168 79.7652 75.4301 79.855 75.4252C79.9448 75.4202 80.0327 75.3972 80.1134 75.3574C80.194 75.3176 80.2658 75.2619 80.3244 75.1936C80.3829 75.1254 80.4271 75.046 80.4542 74.9602C80.4813 74.8744 80.4907 74.7841 80.4819 74.6946C80.4732 74.605 80.4464 74.5182 80.4032 74.4393L77.9338 69.43C77.8726 69.326 77.7852 69.2399 77.6805 69.18C77.5757 69.1202 77.4571 69.0887 77.3365 69.0887C77.2158 69.0887 77.0972 69.1202 76.9925 69.18C76.8877 69.2399 76.8004 69.326 76.7391 69.43L74.4218 74.1247L69.2404 74.8773C69.1172 74.8952 69.0015 74.9472 68.9064 75.0274C68.8113 75.1076 68.7405 75.2128 68.7021 75.3312C68.6636 75.4495 68.6591 75.5763 68.689 75.697C68.7188 75.8178 68.7819 75.9279 68.871 76.0147L72.6177 79.6667L71.7337 84.8293C71.7125 84.9519 71.726 85.078 71.7728 85.1934C71.8195 85.3087 71.8976 85.4086 71.9982 85.4819C72.0988 85.5552 72.2178 85.5988 72.3419 85.6079C72.466 85.617 72.5902 85.5912 72.7004 85.5333L77.3338 83.096L81.9672 85.5333C82.0774 85.5912 82.2016 85.617 82.3257 85.6079C82.4498 85.5988 82.5689 85.5552 82.6695 85.4819C82.77 85.4086 82.8481 85.3087 82.8949 85.1934C82.9416 85.078 82.9551 84.9519 82.9339 84.8293L82.0499 79.6667L85.8006 76.0147C85.9068 75.9103 85.975 75.7734 85.9944 75.6257C86.0137 75.4781 85.983 75.3282 85.9073 75.2ZM74.9578 75.4C75.0647 75.3843 75.1662 75.3428 75.2535 75.2792C75.3409 75.2156 75.4114 75.1316 75.4591 75.0347L76.6671 72.582V77.0973L72.3597 75.7713L74.9578 75.4ZM71.7757 76.992L76.2551 78.3713L73.5398 82.1833L73.9904 79.5547C74.0087 79.4482 74.0009 79.3388 73.9676 79.2361C73.9342 79.1333 73.8764 79.0401 73.7991 78.9647L71.7757 76.992ZM77.0231 81.758L74.5564 83.056L77.3338 79.1493L80.1119 83.05L77.6451 81.752C77.5493 81.7014 77.4425 81.675 77.3341 81.675C77.2258 81.675 77.119 81.7014 77.0231 81.752V81.758ZM80.8685 78.9647C80.7912 79.0401 80.7334 79.1333 80.7001 79.2361C80.6667 79.3388 80.6589 79.4482 80.6772 79.5547L81.1279 82.1833L78.4125 78.3713L82.8919 76.992L80.8685 78.9647Z" fill="#C858BC"/>
<defs>
<filter id="filter0_i_370_11" x="16" y="16" width="100" height="100" filterUnits="userSpaceOnUse" color-interpolation-filters="sRGB">
<feFlood flood-opacity="0" result="BackgroundImageFix"/>
<feBlend mode="normal" in="SourceGraphic" in2="BackgroundImageFix" result="shape"/>
<feColorMatrix in="SourceAlpha" type="matrix" values="0 0 0 0 0 0 0 0 0 0 0 0 0 0 0 0 0 0 127 0" result="hardAlpha"/>
<feOffset/>
<feGaussianBlur stdDeviation="2"/>
<feComposite in2="hardAlpha" operator="arithmetic" k2="-1" k3="1"/>
<feColorMatrix type="matrix" values="0 0 0 0 0 0 0 0 0 0 0 0 0 0 0 0 0 0 0.1 0"/>
<feBlend mode="normal" in2="shape" result="effect1_innerShadow_370_11"/>
</filter>
<filter id="filter1_d_370_11" x="0" y="0" width="132" height="132" filterUnits="userSpaceOnUse" color-interpolation-filters="sRGB">
<feFlood flood-opacity="0" result="BackgroundImageFix"/>
<feColorMatrix in="SourceAlpha" type="matrix" values="0 0 0 0 0 0 0 0 0 0 0 0 0 0 0 0 0 0 127 0" result="hardAlpha"/>
<feOffset/>
<feGaussianBlur stdDeviation="15"/>
<feComposite in2="hardAlpha" operator="out"/>
<feColorMatrix type="matrix" values="0 0 0 0 0.031612 0 0 0 0 0.193043 0 0 0 0 0.334296 0 0 0 0.1 0"/>
<feBlend mode="normal" in2="BackgroundImageFix" result="effect1_dropShadow_370_11"/>
<feBlend mode="normal" in="SourceGraphic" in2="effect1_dropShadow_370_11" result="shape"/>
</filter>
</defs>
</svg>
