<svg width="40" height="40" viewBox="0 0 40 40" fill="none" xmlns="http://www.w3.org/2000/svg">
<path d="M6.92144 11.426C7.02124 11.5256 7.15005 11.591 7.28937 11.6128C7.42868 11.6346 7.57132 11.6117 7.69678 11.5473C8.07482 11.3526 8.46786 11.1885 8.87214 11.0567C9.00615 11.0133 9.12298 10.9286 9.20587 10.8147C9.28875 10.7008 9.33342 10.5635 9.33348 10.4227V9.33333C9.33348 9.15652 9.26324 8.98695 9.13821 8.86193C9.01318 8.73691 8.84361 8.66667 8.6668 8.66667C8.48998 8.66667 8.32041 8.73691 8.19539 8.86193C8.07036 8.98695 8.00012 9.15652 8.00012 9.33333V9.952C7.84345 10.0127 7.68612 10.0787 7.53345 10.1487L6.15143 8.76733C6.02641 8.64235 5.85687 8.57214 5.68009 8.57214C5.50331 8.57214 5.33377 8.64235 5.20875 8.76733L1.43336 12.5387C1.30837 12.6637 1.23816 12.8332 1.23816 13.01C1.23816 13.1868 1.30837 13.3563 1.43336 13.4813L2.81538 14.8627C2.74471 15.0193 2.68204 15.1767 2.61871 15.3333H0.666677C0.489863 15.3333 0.320291 15.4036 0.195265 15.5286C0.0702389 15.6536 0 15.8232 0 16V21.3333C0 21.5101 0.0702389 21.6797 0.195265 21.8047C0.320291 21.9298 0.489863 22 0.666677 22H2.61871C2.67937 22.1567 2.74471 22.314 2.81538 22.4707L1.43336 23.852C1.30837 23.977 1.23816 24.1466 1.23816 24.3233C1.23816 24.5001 1.30837 24.6696 1.43336 24.7947L4.2414 27.6C4.36714 27.7214 4.53554 27.7886 4.71034 27.7871C4.88514 27.7856 5.05235 27.7155 5.17596 27.5919C5.29957 27.4683 5.36968 27.3011 5.3712 27.1263C5.37272 26.9515 5.30552 26.7831 5.18408 26.6573L2.85071 24.324L4.09606 23.08C4.19569 22.9802 4.2611 22.8514 4.2829 22.7121C4.3047 22.5728 4.28177 22.4301 4.2174 22.3047C4.02247 21.9268 3.85859 21.5337 3.72739 21.1293C3.68403 20.9944 3.5988 20.8768 3.48407 20.7936C3.36935 20.7104 3.2311 20.666 3.08938 20.6667H1.33335V16.6667H3.08938C3.23044 16.6667 3.36788 16.622 3.48193 16.539C3.59598 16.456 3.68075 16.3389 3.72406 16.2047C3.85526 15.8003 4.01913 15.4072 4.21406 15.0293C4.27844 14.9039 4.30137 14.7612 4.27957 14.6219C4.25777 14.4826 4.19235 14.3538 4.09273 14.254L2.84738 13.01L5.67675 10.1813L6.92144 11.426Z" fill="#C858BC"/>
<path d="M23.2764 26.9373L25.7671 21.3333H26.0004C27.0488 21.333 28.0658 21.6907 28.8831 22.3473C28.9512 22.4054 29.0304 22.4492 29.1158 22.4761C29.2012 22.5029 29.2912 22.5123 29.3803 22.5036C29.4695 22.4949 29.5559 22.4684 29.6346 22.4256C29.7132 22.3828 29.7824 22.3245 29.8381 22.2544C29.8937 22.1842 29.9347 22.1035 29.9584 22.0172C29.9822 21.9309 29.9884 21.8407 29.9765 21.7519C29.9647 21.6631 29.9351 21.5777 29.8895 21.5006C29.8439 21.4235 29.7832 21.3564 29.7111 21.3033C28.659 20.4584 27.3497 19.9986 26.0004 20H23.3337V19.472C24.356 18.8067 25.1962 17.8969 25.7783 16.8251C26.3603 15.7532 26.6658 14.553 26.6671 13.3333V11.7893C27.2961 11.2298 27.7995 10.5435 28.1442 9.77549C28.4889 9.00747 28.6671 8.17517 28.6671 7.33333C28.6648 5.38912 27.8914 3.52519 26.5167 2.15042C25.1419 0.775647 23.2779 0.00229365 21.3337 0H17.3336C15.5383 0.00174641 13.8063 0.663234 12.4669 1.85867C12.3348 1.97625 12.2548 2.14148 12.2446 2.31801C12.2343 2.49455 12.2946 2.66792 12.4122 2.8C12.5298 2.93208 12.695 3.01204 12.8715 3.02229C13.0481 3.03254 13.2215 2.97225 13.3535 2.85467C14.4489 1.87679 15.8653 1.33539 17.3336 1.33333H21.3337C22.9244 1.3351 24.4496 1.96781 25.5744 3.09264C26.6993 4.21748 27.332 5.74258 27.3337 7.33333C27.3331 8.17497 27.1025 9.00044 26.6671 9.72067V8C26.6671 7.82319 26.5968 7.65362 26.4718 7.5286C26.3468 7.40357 26.1772 7.33333 26.0004 7.33333H23.221C22.151 7.33022 21.0999 7.05166 20.1688 6.52447C19.2377 5.99729 18.4581 5.23924 17.9049 4.32333C17.8373 4.21077 17.738 4.12066 17.6194 4.06433C17.5008 4.00799 17.3682 3.98793 17.2383 4.00667L16.5316 4.108C15.2761 4.29286 14.1284 4.92174 13.297 5.88049C12.4656 6.83924 12.0055 8.06431 12.0002 9.33333V9.71867C11.5647 8.99917 11.3342 8.17434 11.3335 7.33333C11.334 6.45729 11.5282 5.59219 11.9022 4.8C11.9393 4.72064 11.9603 4.63475 11.9642 4.54724C11.9681 4.45973 11.9547 4.37231 11.9248 4.28998C11.8949 4.20764 11.8491 4.132 11.79 4.06738C11.7308 4.00275 11.6595 3.95041 11.5802 3.91333C11.4199 3.83845 11.2364 3.83031 11.0701 3.8907C10.9039 3.95109 10.7684 4.07505 10.6935 4.23533C10.2371 5.20436 10.0004 6.26222 10.0002 7.33333C10.0001 8.17517 10.1783 9.00747 10.523 9.77549C10.8677 10.5435 11.3712 11.2298 12.0002 11.7893V13.3333C12.0015 14.553 12.307 15.7532 12.889 16.8251C13.471 17.8969 14.3113 18.8067 15.3336 19.472V20H12.6669C11.1634 20.0003 9.71558 20.5682 8.6128 21.59C8.09573 21.1112 7.71463 20.5041 7.50826 19.8303C7.30188 19.1565 7.27757 18.4401 7.4378 17.7538C7.59804 17.0676 7.9371 16.436 8.42053 15.9233C8.90396 15.4106 9.51452 15.035 10.1902 14.8347C10.3585 14.7833 10.4996 14.6675 10.5829 14.5124C10.6661 14.3574 10.6847 14.1757 10.6345 14.007C10.5844 13.8384 10.4696 13.6964 10.3151 13.612C10.1607 13.5276 9.97919 13.5077 9.81015 13.5567C8.90605 13.8251 8.08945 14.3289 7.44383 15.0163C6.7982 15.7038 6.34671 16.5504 6.13549 17.4696C5.92428 18.3887 5.96093 19.3475 6.24168 20.2478C6.52244 21.1482 7.03723 21.9578 7.73345 22.594C7.03815 23.5936 6.66588 24.7823 6.66677 26V39.3333C6.66677 39.5101 6.73701 39.6797 6.86203 39.8047C6.98706 39.9298 7.15663 40 7.33345 40C7.51026 40 7.67983 39.9298 7.80486 39.8047C7.92988 39.6797 8.00012 39.5101 8.00012 39.3333V26C8.00153 24.7628 8.49366 23.5766 9.36854 22.7017C10.2434 21.8269 11.4296 21.3347 12.6669 21.3333H12.9002L15.3909 26.9373C15.4323 27.0306 15.4945 27.1131 15.5728 27.1785C15.6511 27.2439 15.7433 27.2905 15.8424 27.3146C15.9415 27.3388 16.0449 27.3398 16.1445 27.3178C16.2441 27.2957 16.3373 27.2511 16.4169 27.1873L18.667 25.3873V38.6667C18.667 38.8435 18.7372 39.0131 18.8622 39.1381C18.9872 39.2631 19.1568 39.3333 19.3336 39.3333C19.5104 39.3333 19.68 39.2631 19.805 39.1381C19.9301 39.0131 20.0003 38.8435 20.0003 38.6667V25.3873L22.2503 27.1873C22.33 27.2511 22.4232 27.2957 22.5228 27.3178C22.6224 27.3398 22.7257 27.3388 22.8248 27.3146C22.9239 27.2905 23.0162 27.2439 23.0945 27.1785C23.1727 27.1131 23.235 27.0306 23.2764 26.9373ZM13.3335 13.3333V9.33333C13.3376 8.38474 13.6816 7.46903 14.3031 6.75237C14.9246 6.03571 15.7824 5.5656 16.7209 5.42733L17.0043 5.38733C17.6984 6.39558 18.6266 7.22058 19.7092 7.7917C20.7919 8.36282 21.9969 8.66305 23.221 8.66667H25.3337V13.3333C25.3337 14.9246 24.7016 16.4508 23.5763 17.576C22.4511 18.7012 20.925 19.3333 19.3336 19.3333C17.7423 19.3333 16.2162 18.7012 15.0909 17.576C13.9657 16.4508 13.3335 14.9246 13.3335 13.3333ZM19.3336 20.6667C20.2466 20.6655 21.1512 20.4927 22.0003 20.1573V21.0133L19.3336 23.1467L16.6669 21.0133V20.1573C17.5161 20.4927 18.4207 20.6655 19.3336 20.6667ZM16.2589 25.6067L14.3596 21.3333H15.3336C15.3335 21.4333 15.356 21.532 15.3993 21.6221C15.4425 21.7123 15.5055 21.7915 15.5836 21.854L18.2669 24L16.2589 25.6067ZM22.4083 25.6067L20.4003 24L23.083 21.854C23.1612 21.7916 23.2243 21.7124 23.2677 21.6222C23.3111 21.5321 23.3336 21.4334 23.3337 21.3333H24.3077L22.4083 25.6067Z" fill="#C858BC"/>
<path d="M12.0002 28.6667C11.8234 28.6667 11.6538 28.7369 11.5288 28.8619C11.4037 28.987 11.3335 29.1565 11.3335 29.3333V39.3333C11.3335 39.5101 11.4037 39.6797 11.5288 39.8047C11.6538 39.9298 11.8234 40 12.0002 40C12.177 40 12.3466 39.9298 12.4716 39.8047C12.5966 39.6797 12.6669 39.5101 12.6669 39.3333V29.3333C12.6669 29.1565 12.5966 28.987 12.4716 28.8619C12.3466 28.7369 12.177 28.6667 12.0002 28.6667Z" fill="#C858BC"/>
<path d="M14.8622 10.862C14.7408 10.9877 14.6736 11.1561 14.6751 11.3309C14.6766 11.5057 14.7467 11.6729 14.8703 11.7965C14.994 11.9202 15.1612 11.9903 15.336 11.9918C15.5108 11.9933 15.6792 11.9261 15.8049 11.8047C16.0337 11.5764 16.3437 11.4483 16.6669 11.4483C16.9901 11.4483 17.3001 11.5764 17.5289 11.8047C17.6547 11.9261 17.8231 11.9933 17.9979 11.9918C18.1727 11.9903 18.3399 11.9202 18.4635 11.7965C18.5871 11.6729 18.6572 11.5057 18.6587 11.3309C18.6603 11.1561 18.5931 10.9877 18.4716 10.862C17.9927 10.384 17.3436 10.1155 16.6669 10.1155C15.9902 10.1155 15.3412 10.384 14.8622 10.862Z" fill="#C858BC"/>
<path d="M21.1383 11.8047C21.3672 11.5764 21.6771 11.4483 22.0003 11.4483C22.3235 11.4483 22.6335 11.5764 22.8623 11.8047C22.9881 11.9261 23.1565 11.9933 23.3313 11.9918C23.5061 11.9903 23.6733 11.9202 23.7969 11.7965C23.9205 11.6729 23.9906 11.5057 23.9921 11.3309C23.9937 11.1561 23.9265 10.9877 23.805 10.862C23.3261 10.384 22.677 10.1155 22.0003 10.1155C21.3236 10.1155 20.6746 10.384 20.1956 10.862C20.0742 10.9877 20.007 11.1561 20.0085 11.3309C20.01 11.5057 20.0802 11.6729 20.2038 11.7965C20.3274 11.9202 20.4946 11.9903 20.6694 11.9918C20.8442 11.9933 21.0126 11.9261 21.1383 11.8047Z" fill="#C858BC"/>
<path d="M24.667 6C24.8439 6 25.0134 5.92976 25.1385 5.80474C25.2635 5.67971 25.3337 5.51014 25.3337 5.33333C25.3337 5.15652 25.2635 4.98695 25.1385 4.86193C25.0134 4.7369 24.8439 4.66667 24.667 4.66667C23.9087 4.66868 23.1575 4.52022 22.4569 4.2299C21.7563 3.93958 21.1203 3.51316 20.5856 2.97533L20.471 2.86133C20.4094 2.79775 20.3358 2.74707 20.2544 2.71226C20.173 2.67744 20.0855 2.65917 19.997 2.65853C19.9084 2.65789 19.8207 2.67488 19.7388 2.70852C19.6569 2.74216 19.5826 2.79176 19.5201 2.85444C19.4575 2.91712 19.4081 2.99163 19.3747 3.0736C19.3413 3.15558 19.3246 3.24338 19.3255 3.3319C19.3264 3.42041 19.3449 3.50786 19.3799 3.58915C19.415 3.67043 19.4659 3.74392 19.5296 3.80533L19.6436 3.91867C20.3016 4.58068 21.0844 5.10553 21.9467 5.4628C22.809 5.82007 23.7337 6.00267 24.667 6Z" fill="#C858BC"/>
<path d="M31.3338 19.3333H38.0006C38.1774 19.3333 38.347 19.2631 38.472 19.1381C38.597 19.013 38.6673 18.8435 38.6673 18.6667V15.3333C38.6673 15.1565 38.597 14.987 38.472 14.8619C38.347 14.7369 38.1774 14.6667 38.0006 14.6667C37.8238 14.6667 37.6542 14.7369 37.5292 14.8619C37.4041 14.987 37.3339 15.1565 37.3339 15.3333V18H31.3338C31.157 18 30.9874 17.9298 30.8624 17.8047C30.7374 17.6797 30.6671 17.5101 30.6671 17.3333V10.6667C30.6671 10.4899 30.7374 10.3203 30.8624 10.1953C30.9874 10.0702 31.157 10 31.3338 10H32.0005V12C32.0004 12.1137 32.0294 12.2254 32.0847 12.3247C32.14 12.424 32.2198 12.5075 32.3165 12.5673C32.4131 12.6271 32.5235 12.6612 32.637 12.6663C32.7505 12.6714 32.8635 12.6475 32.9652 12.5967L34.0005 12.0787L35.0359 12.5967C35.1375 12.6475 35.2505 12.6714 35.364 12.6663C35.4776 12.6612 35.5879 12.6271 35.6846 12.5673C35.7812 12.5075 35.861 12.424 35.9163 12.3247C35.9716 12.2254 36.0006 12.1137 36.0005 12V10H37.3339V12.6547C37.3339 12.8315 37.4041 13.001 37.5292 13.1261C37.6542 13.2511 37.8238 13.3213 38.0006 13.3213C38.1774 13.3213 38.347 13.2511 38.472 13.1261C38.597 13.001 38.6673 12.8315 38.6673 12.6547V9.33333C38.6673 9.15652 38.597 8.98695 38.472 8.86193C38.347 8.73691 38.1774 8.66667 38.0006 8.66667H35.8152C35.6991 8.46464 35.5319 8.29669 35.3304 8.17968C35.1289 8.06267 34.9002 8.0007 34.6672 8H33.3338C33.1008 8.0007 32.8721 8.06267 32.6706 8.17968C32.4691 8.29669 32.3019 8.46464 32.1858 8.66667H31.3338C30.8034 8.66667 30.2947 8.87738 29.9196 9.25245C29.5445 9.62753 29.3338 10.1362 29.3338 10.6667V17.3333C29.3338 17.8638 29.5445 18.3725 29.9196 18.7475C30.2947 19.1226 30.8034 19.3333 31.3338 19.3333ZM34.6672 9.33333V10.9213L34.2985 10.7367C34.206 10.6904 34.104 10.6664 34.0005 10.6664C33.8971 10.6664 33.795 10.6904 33.7025 10.7367L33.3338 10.9213V9.33333H34.6672Z" fill="#C858BC"/>
<path d="M32.6672 14.6667C32.4903 14.6667 32.3208 14.7369 32.1958 14.8619C32.0707 14.987 32.0005 15.1565 32.0005 15.3333C32.0005 15.5101 32.0707 15.6797 32.1958 15.8047C32.3208 15.9298 32.4903 16 32.6672 16H34.6672C34.844 16 35.0136 15.9298 35.1386 15.8047C35.2636 15.6797 35.3339 15.5101 35.3339 15.3333C35.3339 15.1565 35.2636 14.987 35.1386 14.8619C35.0136 14.7369 34.844 14.6667 34.6672 14.6667H32.6672Z" fill="#C858BC"/>
<path d="M39.9073 29.2C39.8309 29.0714 39.7135 28.9723 39.574 28.9185C39.4344 28.8647 39.2809 28.8593 39.1379 28.9033L32.0005 31.0973V26.582L33.2085 29.0287C33.2448 29.111 33.2974 29.185 33.3631 29.2465C33.4288 29.3079 33.5063 29.3554 33.5908 29.3861C33.6753 29.4168 33.7652 29.4301 33.855 29.4252C33.9448 29.4202 34.0327 29.3972 34.1134 29.3574C34.194 29.3176 34.2658 29.2619 34.3244 29.1936C34.3829 29.1254 34.4271 29.046 34.4542 28.9602C34.4813 28.8744 34.4907 28.7841 34.4819 28.6946C34.4732 28.605 34.4464 28.5182 34.4032 28.4393L31.9338 23.43C31.8726 23.326 31.7852 23.2399 31.6805 23.18C31.5757 23.1202 31.4571 23.0887 31.3365 23.0887C31.2158 23.0887 31.0972 23.1202 30.9925 23.18C30.8877 23.2399 30.8004 23.326 30.7391 23.43L28.4218 28.1247L23.2404 28.8773C23.1172 28.8952 23.0015 28.9472 22.9064 29.0274C22.8113 29.1076 22.7405 29.2128 22.7021 29.3312C22.6636 29.4495 22.6591 29.5763 22.689 29.697C22.7188 29.8178 22.7819 29.9279 22.871 30.0147L26.6177 33.6667L25.7337 38.8293C25.7125 38.9519 25.726 39.078 25.7728 39.1934C25.8195 39.3087 25.8976 39.4086 25.9982 39.4819C26.0988 39.5552 26.2178 39.5988 26.3419 39.6079C26.466 39.617 26.5902 39.5912 26.7004 39.5333L31.3338 37.096L35.9672 39.5333C36.0774 39.5912 36.2016 39.617 36.3257 39.6079C36.4498 39.5988 36.5689 39.5552 36.6695 39.4819C36.77 39.4086 36.8481 39.3087 36.8949 39.1934C36.9416 39.078 36.9551 38.9519 36.9339 38.8293L36.0499 33.6667L39.8006 30.0147C39.9068 29.9103 39.975 29.7734 39.9944 29.6257C40.0137 29.4781 39.983 29.3282 39.9073 29.2ZM28.9578 29.4C29.0647 29.3843 29.1662 29.3428 29.2535 29.2792C29.3409 29.2156 29.4114 29.1316 29.4591 29.0347L30.6671 26.582V31.0973L26.3597 29.7713L28.9578 29.4ZM25.7757 30.992L30.2551 32.3713L27.5398 36.1833L27.9904 33.5547C28.0087 33.4482 28.0009 33.3388 27.9676 33.2361C27.9342 33.1333 27.8764 33.0401 27.7991 32.9647L25.7757 30.992ZM31.0231 35.758L28.5564 37.056L31.3338 33.1493L34.1119 37.05L31.6451 35.752C31.5493 35.7014 31.4425 35.675 31.3341 35.675C31.2258 35.675 31.119 35.7014 31.0231 35.752V35.758ZM34.8685 32.9647C34.7912 33.0401 34.7334 33.1333 34.7001 33.2361C34.6667 33.3388 34.6589 33.4482 34.6772 33.5547L35.1279 36.1833L32.4125 32.3713L36.8919 30.992L34.8685 32.9647Z" fill="#C858BC"/>
</svg>
