<svg width="132" height="132" viewBox="0 0 132 132" fill="none" xmlns="http://www.w3.org/2000/svg">
<g filter="url(#filter0_i_370_14)">
<path d="M116 66C116 93.6142 93.6142 116 66 116C38.3858 116 16 93.6142 16 66C16 38.3858 38.3858 16 66 16C93.6142 16 116 38.3858 116 66Z" fill="#91D0F2"/>
</g>
<g filter="url(#filter1_d_370_14)">
<circle cx="66" cy="66" r="36" fill="white"/>
</g>
<path d="M52.4954 73.332H53.9514V74.4412H52.4954V75.9949H51.456V74.4412H50V73.332H51.456V71.7783H52.4954V73.332ZM80.8701 76.4261V80.7461C80.8701 82.2536 79.4619 83.6193 76.9049 84.5915C74.516 85.4998 71.3505 86 67.9915 86C64.6324 86 61.4669 85.4998 59.078 84.5915C56.521 83.6193 55.1128 82.2536 55.1128 80.7461V76.4261C55.1128 74.9185 56.521 73.5524 59.0779 72.5795C61.4672 71.6704 64.6327 71.1698 67.9915 71.1698C71.3502 71.1698 74.5158 71.6704 76.905 72.5795C79.462 73.5524 80.8701 74.9185 80.8701 76.4261ZM79.8307 80.7461V78.5654C79.1593 79.2112 78.1738 79.7909 76.9049 80.2735C74.5163 81.182 71.3508 81.6823 67.9915 81.6823C64.632 81.6823 61.4665 81.182 59.0779 80.2735C57.8091 79.7909 56.8235 79.2112 56.1521 78.5654V80.7461C56.1521 81.4541 56.7867 82.1914 57.9258 82.8444V81.6598H58.9652V83.3562C59.7519 83.6916 60.6859 83.9909 61.7446 84.2341V82.8206H62.784V84.4471C63.6461 84.6035 64.5758 84.7238 65.5634 84.7994V83.3259H66.6028V84.8612C67.0555 84.8805 67.5184 84.8909 67.9915 84.8909C68.4652 84.8909 68.9288 84.8805 69.3822 84.8611V83.3259H70.4216V84.7993C71.4092 84.7235 72.3389 84.6031 73.201 84.4468V82.8207H74.2404V84.2337C75.2983 83.9905 76.2315 83.6914 77.0177 83.3562V81.6598H78.0571V82.8443C79.1962 82.1913 79.8307 81.4541 79.8307 80.7461ZM79.8307 76.4261C79.8307 74.4645 74.9685 72.279 67.9915 72.279C61.0144 72.279 56.1521 74.4645 56.1521 76.4261C56.1521 78.3876 61.0144 80.5731 67.9915 80.5731C74.9685 80.5731 79.8307 78.3876 79.8307 76.4261ZM75.0645 74.1162C73.1694 73.6336 70.6575 73.368 67.9915 73.368V74.4771C70.5786 74.4771 73.0048 74.7321 74.8233 75.1951C76.8828 75.7194 77.3038 76.2994 77.3038 76.4261C77.3038 76.5527 76.8828 77.1327 74.8233 77.6571C73.0048 78.12 70.5786 78.375 67.9915 78.375C65.4051 78.375 62.9791 78.12 61.1604 77.6571C59.1002 77.1326 58.679 76.5527 58.679 76.4261C58.679 76.3124 59.0451 75.7853 60.8357 75.282C62.4268 74.8349 64.6043 74.5538 66.9671 74.4904L66.941 73.3816C64.4999 73.447 62.2377 73.741 60.571 74.2094C58.5984 74.7638 57.6396 75.4888 57.6396 76.4261C57.6396 77.4048 58.743 78.182 60.9192 78.736C62.8146 79.2184 65.3262 79.4842 67.9914 79.4842C70.6574 79.4842 73.1693 79.2185 75.0644 78.736C77.24 78.1821 78.3431 77.4049 78.3431 76.4261C78.3431 75.4472 77.2401 74.6701 75.0645 74.1162ZM57.0416 60.1226C58.6848 58.0609 61.1915 55.9385 64.1001 54.1462C67.0096 52.3539 69.9858 51.0983 72.4804 50.6105C75.1502 50.0886 77.0096 50.5199 77.716 51.8254L77.7161 51.8256L77.7162 51.8257C78.0548 52.4504 78.393 53.0761 78.7314 53.7017C79.0674 54.3233 79.4034 54.9448 79.7399 55.5657C80.4465 56.8715 79.8668 58.8057 78.1082 61.0124C76.465 63.074 73.9582 65.1965 71.0497 66.9888C68.1401 68.781 65.1639 70.0367 62.6694 70.5244C61.93 70.669 61.2526 70.7404 60.6449 70.7404C59.0579 70.7404 57.9445 70.2535 57.4337 69.3095C57.095 68.6847 56.7567 68.0589 56.4184 67.4332C56.0824 66.8117 55.7463 66.1902 55.4098 65.5693L55.4097 65.5689L55.4096 65.5688C54.7034 64.2633 55.283 62.3291 57.0416 60.1226ZM77.831 54.2561C77.8266 54.248 77.8222 54.24 77.8179 54.2319C77.5391 55.1495 76.957 56.1775 76.084 57.2726C74.4413 59.3335 71.9346 61.4556 69.0256 63.2481C66.1154 65.0407 63.1393 66.2966 60.6453 66.7846C59.9059 66.9292 59.2286 67.0007 58.6209 67.0007C58.1396 67.0007 57.7025 66.9552 57.312 66.8664C57.3142 66.8705 57.3165 66.8747 57.3187 66.8788C57.6569 67.5043 57.995 68.1297 58.3337 68.7545C58.6655 69.3677 59.5602 69.6677 60.8524 69.6257L60.2973 68.6L61.1974 68.0453L61.9924 69.5145C62.8309 69.3854 63.78 69.1464 64.8108 68.7924L64.1479 67.5698L65.0475 67.0142L65.811 68.4222C66.6308 68.0978 67.4923 67.7061 68.383 67.2448L67.6928 65.9682L68.5931 65.4139L69.3121 66.7438C69.7137 66.5187 70.1199 66.2806 70.53 66.028C70.94 65.7754 71.3364 65.519 71.7197 65.2605L71.0005 63.9318L71.9005 63.3771L72.5908 64.6523C73.4101 64.0602 74.1584 63.4602 74.8314 62.8651L74.07 61.4548L74.9706 60.9011L75.6318 62.1259C76.4348 61.3501 77.1034 60.5925 77.6274 59.882L76.8327 58.4129L77.7329 57.8583L78.2876 58.8839C78.9678 57.7107 79.1717 56.7337 78.8399 56.1205C78.5034 55.4998 78.1672 54.8779 77.831 54.2561ZM56.3098 65.0143L56.3099 65.0145C56.7662 65.8587 58.3169 66.1124 60.4579 65.6936C62.8379 65.2279 65.6961 64.0183 68.5059 62.2875C74.5466 58.5653 77.7335 54.0789 76.8159 52.3801C75.8967 50.6823 70.6621 51.3846 64.6196 55.1068C58.5778 58.8298 55.391 63.3163 56.3098 65.0143ZM57.5979 64.2219C57.1393 63.3734 57.7305 62.1115 59.3546 60.471C60.7692 59.042 62.8199 57.4713 65.1287 56.048L65.129 56.0479C67.4391 54.6256 69.7395 53.5158 71.6061 52.9229C73.75 52.2419 75.0694 52.3268 75.5278 53.1752C75.9864 54.0219 75.3952 55.2833 73.7708 56.9238C72.3559 58.3527 70.3053 59.9234 67.9967 61.3465C65.688 62.7685 63.388 63.8784 61.5202 64.4719C60.5653 64.7753 59.7739 64.9269 59.1493 64.9269C58.3715 64.9268 57.8523 64.6916 57.5979 64.2219ZM58.4981 63.6674C58.5572 63.7765 59.1936 64.0538 61.2237 63.4087C63.016 62.8392 65.2368 61.7656 67.4771 60.3858C69.7174 59.0049 71.6989 57.4892 73.0566 56.1181C74.5942 54.5653 74.6871 53.8392 74.6279 53.7296C74.5684 53.6194 73.932 53.3415 71.9028 53.9859C70.1118 54.5548 67.8906 55.6283 65.6488 57.0085C63.4081 58.3897 61.4266 59.9054 60.0692 61.2765C58.5313 62.8298 58.4387 63.5575 58.4981 63.6674ZM56.1521 48.6764H55.1128V56.9705H56.1521V48.6764ZM58.1089 48.6764H57.0696V52.8235H58.1089V48.6764ZM80.0348 48.6764H78.9954V52.1544H80.0348V48.6764ZM68.0946 46H67.0552V50.549H68.0946V46ZM80.544 68.1858V66.632H79.5046V68.1858H78.0508V69.2949H79.5046V70.8465H80.544V69.2949H82V68.1858H80.544Z" fill="#C858BC"/>
<defs>
<filter id="filter0_i_370_14" x="16" y="16" width="100" height="100" filterUnits="userSpaceOnUse" color-interpolation-filters="sRGB">
<feFlood flood-opacity="0" result="BackgroundImageFix"/>
<feBlend mode="normal" in="SourceGraphic" in2="BackgroundImageFix" result="shape"/>
<feColorMatrix in="SourceAlpha" type="matrix" values="0 0 0 0 0 0 0 0 0 0 0 0 0 0 0 0 0 0 127 0" result="hardAlpha"/>
<feOffset/>
<feGaussianBlur stdDeviation="2"/>
<feComposite in2="hardAlpha" operator="arithmetic" k2="-1" k3="1"/>
<feColorMatrix type="matrix" values="0 0 0 0 0 0 0 0 0 0 0 0 0 0 0 0 0 0 0.1 0"/>
<feBlend mode="normal" in2="shape" result="effect1_innerShadow_370_14"/>
</filter>
<filter id="filter1_d_370_14" x="0" y="0" width="132" height="132" filterUnits="userSpaceOnUse" color-interpolation-filters="sRGB">
<feFlood flood-opacity="0" result="BackgroundImageFix"/>
<feColorMatrix in="SourceAlpha" type="matrix" values="0 0 0 0 0 0 0 0 0 0 0 0 0 0 0 0 0 0 127 0" result="hardAlpha"/>
<feOffset/>
<feGaussianBlur stdDeviation="15"/>
<feComposite in2="hardAlpha" operator="out"/>
<feColorMatrix type="matrix" values="0 0 0 0 0.031612 0 0 0 0 0.193043 0 0 0 0 0.334296 0 0 0 0.1 0"/>
<feBlend mode="normal" in2="BackgroundImageFix" result="effect1_dropShadow_370_14"/>
<feBlend mode="normal" in="SourceGraphic" in2="effect1_dropShadow_370_14" result="shape"/>
</filter>
</defs>
</svg>
