<svg width="132" height="132" viewBox="0 0 132 132" fill="none" xmlns="http://www.w3.org/2000/svg">
<g filter="url(#filter0_i_370_9)">
<circle cx="66" cy="66" r="50" fill="#91CFF2"/>
</g>
<g filter="url(#filter1_d_370_9)">
<circle cx="66" cy="66" r="36" fill="white"/>
</g>
<path d="M74.5 57.25H75.6333V58.5H74.5V57.25Z" fill="#C858BC"/>
<path d="M71.1 80.6875C71.0994 80.1075 70.8902 79.5515 70.5184 79.1414C70.1466 78.7313 69.6425 78.5007 69.1167 78.5H62.8833C62.3575 78.5007 61.8534 78.7313 61.4816 79.1414C61.1097 79.5515 60.9006 80.1075 60.9 80.6875V81.3125C60.9006 81.8925 61.1097 82.4485 61.4816 82.8586C61.8534 83.2687 62.3575 83.4993 62.8833 83.5H69.1167C69.6425 83.4993 70.1466 83.2687 70.5184 82.8586C70.8902 82.4485 71.0994 81.8925 71.1 81.3125V80.6875ZM69.9667 81.3125C69.9664 81.5611 69.8768 81.7994 69.7174 81.9751C69.5581 82.1509 69.342 82.2497 69.1167 82.25H62.8833C62.658 82.2497 62.4419 82.1509 62.2826 81.9751C62.1232 81.7994 62.0336 81.5611 62.0333 81.3125V80.6875C62.0336 80.4389 62.1232 80.2006 62.2826 80.0249C62.4419 79.8491 62.658 79.7503 62.8833 79.75H69.1167C69.342 79.7503 69.5581 79.8491 69.7174 80.0249C69.8768 80.2006 69.9664 80.4389 69.9667 80.6875V81.3125Z" fill="#C858BC"/>
<path d="M49 69.75V75.8438C49.0004 76.2166 49.1349 76.574 49.3739 76.8376C49.6129 77.1013 49.937 77.2496 50.275 77.25H56.3667V83.8125C56.3673 84.3925 56.5764 84.9485 56.9482 85.3586C57.3201 85.7687 57.8242 85.9993 58.35 86H69.9667V84.75H58.35C58.1246 84.7497 57.9086 84.6509 57.7492 84.4751C57.5899 84.2994 57.5002 84.0611 57.5 83.8125V77.25H74.5V83.8125C74.4998 84.0611 74.4101 84.2994 74.2508 84.4751C74.0914 84.6509 73.8754 84.7497 73.65 84.75H71.1V86H73.65C74.1758 85.9993 74.6799 85.7687 75.0518 85.3586C75.4236 84.9485 75.6327 84.3925 75.6333 83.8125V77.25H81.725C82.063 77.2496 82.3871 77.1013 82.6261 76.8376C82.8652 76.574 82.9996 76.2166 83 75.8438V58.5H81.8667V75.8438C81.8667 75.8852 81.8517 75.9249 81.8252 75.9542C81.7986 75.9835 81.7626 76 81.725 76H80.5434L79.8209 71.4535C79.5799 69.8065 78.8308 68.3018 77.7002 67.1934C78.304 66.5544 78.7838 65.7867 79.1104 64.9369C79.4369 64.0871 79.6035 63.173 79.6 62.25V60.342C79.9635 59.9339 80.167 59.3846 80.1667 58.8125V58.1875C80.167 57.6154 79.9635 57.0661 79.6 56.658V56C79.6004 55.366 79.5211 54.735 79.3644 54.125H81.725C81.7626 54.125 81.7986 54.1415 81.8252 54.1708C81.8517 54.2001 81.8667 54.2398 81.8667 54.2812V57.25H83V54.2812C82.9996 53.9084 82.8652 53.551 82.6261 53.2874C82.3871 53.0237 82.063 52.8754 81.725 52.875H78.9181C78.2215 51.3774 77.0536 50.2114 75.6333 49.5955V48.1875C75.6327 47.6075 75.4236 47.0515 75.0518 46.6414C74.6799 46.2313 74.1758 46.0007 73.65 46H58.35C57.8242 46.0007 57.3201 46.2313 56.9482 46.6414C56.5764 47.0515 56.3673 47.6075 56.3667 48.1875V52.875H50.275C49.937 52.8754 49.6129 53.0237 49.3739 53.2874C49.1349 53.551 49.0004 53.9084 49 54.2812V68.5H50.1333V54.2812C50.1333 54.2398 50.1483 54.2001 50.1748 54.1708C50.2014 54.1415 50.2374 54.125 50.275 54.125H62.6V52.875H57.5V48.1875C57.5002 47.9389 57.5899 47.7006 57.7492 47.5249C57.9086 47.3491 58.1246 47.2503 58.35 47.25H61.4667V47.5625C61.4673 48.1425 61.6764 48.6985 62.0482 49.1086C62.4201 49.5187 62.9242 49.7493 63.45 49.75H68.55C69.0758 49.7493 69.5799 49.5187 69.9518 49.1086C70.3236 48.6985 70.5327 48.1425 70.5333 47.5625V47.25H73.65C73.8754 47.2503 74.0914 47.3491 74.2508 47.5249C74.4101 47.7006 74.4998 47.9389 74.5 48.1875V49.2389C73.1793 48.9705 71.8154 49.1794 70.611 49.8345C69.4066 50.4896 68.4261 51.556 67.8152 52.875H63.7333V54.125H67.3689C67.2122 54.735 67.1329 55.366 67.1333 56V56.658C66.7698 57.0661 66.5663 57.6154 66.5667 58.1875V58.8125C66.5663 59.3846 66.7698 59.9339 67.1333 60.342V62.25C67.1298 63.173 67.2964 64.0871 67.6229 64.9369C67.9495 65.7867 68.4292 66.5544 69.033 67.1934C67.9026 68.3018 67.1535 69.8065 66.9123 71.4534L66.1898 76.0003H50.275C50.2374 76.0003 50.2014 75.9839 50.1748 75.9545C50.1483 75.9252 50.1333 75.8855 50.1333 75.8441V69.75H49ZM69.4 47.5625C69.3998 47.8111 69.3101 48.0494 69.1508 48.2251C68.9914 48.4009 68.7754 48.4997 68.55 48.5H63.45C63.2246 48.4997 63.0086 48.4009 62.8492 48.2251C62.6899 48.0494 62.6002 47.8111 62.6 47.5625V47.25H69.4V47.5625ZM78.4667 62.25C78.4696 63.0398 78.3204 63.8213 78.0289 64.5427C77.7374 65.2641 77.3102 65.9089 76.7757 66.4345C76.5403 66.2749 76.2959 66.1321 76.0439 66.007L75.3532 63.7216L76.5619 62.8309C76.8703 62.6324 77.14 62.3684 77.3552 62.0541C77.5705 61.7398 77.727 61.3815 77.8158 61H78.1833C78.2781 61 78.3728 60.9926 78.4667 60.9777V62.25ZM73.7689 63.3858C73.6447 63.4599 73.5058 63.4989 73.3646 63.4994C73.2234 63.4998 73.0843 63.4616 72.9598 63.3883L70.7935 61.8081C70.7824 61.8003 70.7709 61.7925 70.7593 61.7851C70.5189 61.6352 70.3189 61.4177 70.1796 61.1547C70.0404 60.8917 69.9669 60.5927 69.9667 60.2881V56.6241C71.8597 56.6027 73.6771 55.8021 75.0627 54.3793L76.7667 56.2588V60.2648C76.7663 60.5677 76.6935 60.8652 76.5556 61.1272C76.4178 61.3891 76.2197 61.6064 75.9815 61.757C75.97 61.7642 75.9588 61.7719 75.9478 61.78L73.7689 63.3858ZM74.9825 66.4477C74.5322 66.8725 73.9592 67.1058 73.3667 67.1058C72.7742 67.1058 72.2011 66.8725 71.7508 66.4477L72.3558 64.4463C72.3661 64.4541 72.3771 64.461 72.3877 64.4677C72.687 64.6528 73.0245 64.7495 73.3677 64.7484C73.7108 64.7474 74.0478 64.6487 74.3462 64.4618C74.3563 64.4554 74.3663 64.4486 74.3761 64.4415L74.9825 66.4477ZM79.0333 58.1875V58.8125C79.0331 59.0611 78.9435 59.2994 78.7841 59.4751C78.6248 59.6509 78.4087 59.7497 78.1833 59.75H77.9V57.25H78.1833C78.4087 57.2503 78.6248 57.3491 78.7841 57.5249C78.9435 57.7006 79.0331 57.9389 79.0333 58.1875ZM68.2667 56C68.2667 54.5082 68.804 53.0774 69.7604 52.0225C70.7169 50.9676 72.0141 50.375 73.3667 50.375C74.7193 50.375 76.0165 50.9676 76.9729 52.0225C77.9293 53.0774 78.4667 54.5082 78.4667 56V56.0223C78.3728 56.0074 78.2781 56 78.1833 56H77.9C77.9 55.9179 77.8853 55.8366 77.8569 55.7608C77.8284 55.685 77.7867 55.6161 77.734 55.558L75.4674 53.058C75.3611 52.9409 75.217 52.875 75.0667 52.875C74.9164 52.875 74.7723 52.9409 74.666 53.058L74.4739 53.2698C73.8702 53.9393 73.1521 54.4701 72.3612 54.8315C71.5702 55.1928 70.7221 55.3776 69.866 55.375H69.4C69.2497 55.375 69.1056 55.4408 68.9993 55.5581C68.893 55.6753 68.8333 55.8342 68.8333 56H68.55C68.4552 56 68.3605 56.0074 68.2667 56.0223V56ZM67.7 58.8125V58.1875C67.7002 57.9389 67.7899 57.7006 67.9492 57.5249C68.1086 57.3491 68.3246 57.2503 68.55 57.25H68.8333V59.75H68.55C68.3246 59.7497 68.1086 59.6509 67.9492 59.4751C67.7899 59.2994 67.7002 59.0611 67.7 58.8125ZM68.2667 62.25V60.9777C68.3605 60.9926 68.4552 61 68.55 61H68.9121C68.9995 61.3889 69.1571 61.7543 69.3757 62.0743C69.5943 62.3943 69.8692 62.6623 70.184 62.8622L71.3769 63.7323L70.6898 66.0069C70.4378 66.132 70.1933 66.2748 69.9579 66.4345C69.4233 65.909 68.9961 65.2641 68.7045 64.5427C68.413 63.8213 68.2637 63.0398 68.2667 62.25ZM68.0294 71.6641C68.0299 71.6606 68.0305 71.6571 68.031 71.6537C68.1663 70.7288 68.4961 69.8518 68.994 69.0928C69.4919 68.3339 70.1441 67.7141 70.8983 67.2832C71.5679 67.9734 72.4503 68.3573 73.3668 68.3573C74.2833 68.3573 75.1657 67.9734 75.8354 67.2832C76.5895 67.7141 77.2417 68.3338 77.7397 69.0928C78.2376 69.8518 78.5674 70.7288 78.7026 71.6537C78.7031 71.6571 78.7037 71.6606 78.7042 71.6641L79.3931 76H67.3405L68.0294 71.6641Z" fill="#C858BC"/>
<path d="M51.2667 71.3125C51.2673 71.8925 51.4764 72.4485 51.8482 72.8586C52.2201 73.2687 52.7242 73.4993 53.25 73.5H64.0167C64.5425 73.4993 65.0466 73.2687 65.4184 72.8586C65.7903 72.4485 65.9994 71.8925 66 71.3125V60.6875C65.9994 60.1075 65.7903 59.5515 65.4184 59.1414C65.0466 58.7313 64.5425 58.5007 64.0167 58.5H53.25C52.7242 58.5007 52.2201 58.7313 51.8482 59.1414C51.4764 59.5515 51.2673 60.1075 51.2667 60.6875V71.3125ZM52.4 60.6875C52.4002 60.4389 52.4899 60.2006 52.6492 60.0249C52.8086 59.8491 53.0246 59.7503 53.25 59.75H64.0167C64.242 59.7503 64.4581 59.8491 64.6174 60.0249C64.7768 60.2006 64.8664 60.4389 64.8667 60.6875V71.3125C64.8664 71.5611 64.7768 71.7994 64.6174 71.9751C64.4581 72.1509 64.242 72.2497 64.0167 72.25H53.25C53.0246 72.2497 52.8086 72.1509 52.6492 71.9751C52.4899 71.7994 52.4002 71.5611 52.4 71.3125V60.6875Z" fill="#C858BC"/>
<path d="M55.5021 70.2817C55.5843 70.3377 55.678 70.3696 55.7745 70.3744C55.871 70.3792 55.9671 70.3566 56.0534 70.309L62.8534 66.559C62.9476 66.5071 63.0267 66.4273 63.082 66.3286C63.1373 66.2298 63.1666 66.1161 63.1666 66C63.1666 65.8839 63.1373 65.7702 63.082 65.6714C63.0267 65.5727 62.9476 65.4929 62.8534 65.441L56.0534 61.691C55.967 61.6434 55.871 61.6209 55.7746 61.6257C55.6781 61.6304 55.5843 61.6623 55.5021 61.7184C55.4199 61.7744 55.3521 61.8526 55.3051 61.9456C55.258 62.0387 55.2333 62.1435 55.2333 62.25V69.75C55.2333 69.8565 55.258 69.9613 55.305 70.0544C55.3521 70.1474 55.4199 70.2257 55.5021 70.2817ZM56.3667 63.2612L61.3329 66L56.3667 68.7388V63.2612Z" fill="#C858BC"/>
<path d="M51.2667 55.375H52.4V56.625H51.2667V55.375Z" fill="#C858BC"/>
<path d="M53.5333 55.375H54.6667V56.625H53.5333V55.375Z" fill="#C858BC"/>
<path d="M55.8 55.375H56.9333V56.625H55.8V55.375Z" fill="#C858BC"/>
<path d="M71.1 57.25H72.2333V58.5H71.1V57.25Z" fill="#C858BC"/>
<path d="M73.3667 61C73.0151 61 72.8 60.7977 72.8 60.6875H71.6667C71.6667 61.5637 72.4134 62.25 73.3667 62.25C74.3199 62.25 75.0667 61.5637 75.0667 60.6875H73.9333C73.9333 60.7977 73.7182 61 73.3667 61Z" fill="#C858BC"/>
<defs>
<filter id="filter0_i_370_9" x="16" y="16" width="100" height="100" filterUnits="userSpaceOnUse" color-interpolation-filters="sRGB">
<feFlood flood-opacity="0" result="BackgroundImageFix"/>
<feBlend mode="normal" in="SourceGraphic" in2="BackgroundImageFix" result="shape"/>
<feColorMatrix in="SourceAlpha" type="matrix" values="0 0 0 0 0 0 0 0 0 0 0 0 0 0 0 0 0 0 127 0" result="hardAlpha"/>
<feOffset/>
<feGaussianBlur stdDeviation="2"/>
<feComposite in2="hardAlpha" operator="arithmetic" k2="-1" k3="1"/>
<feColorMatrix type="matrix" values="0 0 0 0 0 0 0 0 0 0 0 0 0 0 0 0 0 0 0.1 0"/>
<feBlend mode="normal" in2="shape" result="effect1_innerShadow_370_9"/>
</filter>
<filter id="filter1_d_370_9" x="0" y="0" width="132" height="132" filterUnits="userSpaceOnUse" color-interpolation-filters="sRGB">
<feFlood flood-opacity="0" result="BackgroundImageFix"/>
<feColorMatrix in="SourceAlpha" type="matrix" values="0 0 0 0 0 0 0 0 0 0 0 0 0 0 0 0 0 0 127 0" result="hardAlpha"/>
<feOffset/>
<feGaussianBlur stdDeviation="15"/>
<feComposite in2="hardAlpha" operator="out"/>
<feColorMatrix type="matrix" values="0 0 0 0 0.031612 0 0 0 0 0.193043 0 0 0 0 0.334296 0 0 0 0.1 0"/>
<feBlend mode="normal" in2="BackgroundImageFix" result="effect1_dropShadow_370_9"/>
<feBlend mode="normal" in="SourceGraphic" in2="effect1_dropShadow_370_9" result="shape"/>
</filter>
</defs>
</svg>
