<svg width="40" height="40" viewBox="0 0 40 40" fill="none" xmlns="http://www.w3.org/2000/svg">
<path d="M7.07077 27.3176C7.07077 27.0046 7.32453 26.7508 7.63757 26.7508H21.3407C21.6538 26.7508 21.9075 27.0046 21.9075 27.3176C21.9075 27.6307 21.6538 27.8844 21.3407 27.8844H7.63757C7.32453 27.8844 7.07077 27.6307 7.07077 27.3176ZM7.63757 23.6823H17.6481C17.9611 23.6823 18.2149 23.4286 18.2149 23.1155C18.2149 22.8025 17.9611 22.5487 17.6481 22.5487H7.63757C7.32453 22.5487 7.07077 22.8025 7.07077 23.1155C7.07077 23.4286 7.32453 23.6823 7.63757 23.6823ZM30.8377 31.9614V38.6869C30.8377 39.4109 30.2487 39.9999 29.5246 39.9999H20.4908C19.7667 39.9999 19.1777 39.4109 19.1777 38.6869V34.58C17.6738 34.9294 16.1002 35.1067 14.4891 35.1067C13.8213 35.1067 13.15 35.0755 12.4906 35.0138L5.48996 39.8981C5.39255 39.966 5.27911 40 5.16567 40C5.05482 40 4.94405 39.9676 4.84802 39.9026C4.65377 39.7711 4.56049 39.5335 4.61352 39.305L6.01895 33.2506C2.24049 31.397 0 28.4197 0 25.2166C0 23.0198 1.02348 20.9434 2.95976 19.2118C4.81223 17.5552 7.33304 16.3598 10.2497 15.7548C10.5562 15.6914 10.8563 15.8881 10.9198 16.1946C10.9834 16.5011 10.7865 16.8011 10.48 16.8647C7.79741 17.4211 5.39498 18.5548 3.71547 20.0568C2.0264 21.5673 1.1336 23.3515 1.1336 25.2166C1.1336 28.08 3.29271 30.7719 6.90923 32.4175C7.1549 32.5293 7.28761 32.7987 7.22656 33.0616L6.05142 38.124L12.0137 33.9642C12.1253 33.8863 12.2611 33.8514 12.3966 33.8652C13.0848 33.9367 13.7887 33.973 14.4891 33.973C16.106 33.973 17.6808 33.7846 19.1777 33.414V31.9613C19.1777 31.2373 19.7667 30.6483 20.4908 30.6483H24.9462C26.8168 29.103 27.8447 27.1806 27.8447 25.2165C27.8447 23.1179 26.6819 21.0834 24.5704 19.4879C24.3206 19.2991 24.2712 18.9437 24.4598 18.6939C24.6486 18.4442 25.004 18.3947 25.2538 18.5835C27.6555 20.3984 28.9783 22.754 28.9783 25.2165C28.9783 27.1593 28.1471 29.0472 26.6114 30.6483H29.5245C30.2486 30.6483 30.8377 31.2374 30.8377 31.9614ZM29.704 31.9614C29.704 31.8642 29.6219 31.782 29.5246 31.782H20.4908C20.3935 31.782 20.3113 31.8642 20.3113 31.9614V38.6869C20.3113 38.7841 20.3935 38.8663 20.4908 38.8663H29.5246C29.6219 38.8663 29.704 38.7841 29.704 38.6869V31.9614ZM27.1917 35.3241C27.1917 35.5266 27.0836 35.7137 26.9083 35.8149L23.6739 37.6822C23.5862 37.7328 23.4883 37.7581 23.3905 37.7581C23.2927 37.7581 23.1948 37.7329 23.1071 37.6822C22.9317 37.581 22.8237 37.3939 22.8237 37.1913V33.4567C22.8237 33.2542 22.9317 33.0671 23.1071 32.9659C23.2825 32.8646 23.4985 32.8646 23.6739 32.9659L26.9083 34.8332C27.0836 34.9345 27.1917 35.1216 27.1917 35.3241ZM25.4913 35.3241L23.9573 34.4385V36.2097L25.4913 35.3241ZM36.3008 5.92411C36.397 5.92411 36.4944 5.89965 36.5837 5.84808L38.7728 4.58427C39.0439 4.42776 39.1368 4.08112 38.9802 3.81003C38.8238 3.53893 38.4772 3.44606 38.206 3.60258L36.0169 4.86638C35.7458 5.0229 35.653 5.36953 35.8095 5.64063C35.9144 5.82241 36.1049 5.92411 36.3008 5.92411ZM32.6521 3.36687C32.7415 3.41845 32.8389 3.4429 32.9351 3.4429C33.1309 3.4429 33.3215 3.34128 33.4264 3.15942L34.7596 0.850282C34.9161 0.57919 34.8232 0.232552 34.5521 0.0760343C34.2811 -0.0804833 33.9344 0.0123908 33.7779 0.283483L32.4447 2.59262C32.2882 2.86371 32.3811 3.21035 32.6521 3.36687ZM36.2 9.51178C36.2 9.82482 36.4538 10.0786 36.7668 10.0786H39.4332C39.7462 10.0786 40 9.82482 40 9.51178C40 9.19875 39.7462 8.94499 39.4332 8.94499H36.7668C36.4538 8.94499 36.2 9.19875 36.2 9.51178ZM12.1866 15.7322C12.488 14.6072 13.206 13.6691 14.2084 13.0904L17.1731 11.3787C17.3032 11.3035 17.4581 11.2831 17.6032 11.3221C17.6606 11.3374 17.7143 11.3618 17.7633 11.3933C20.8101 9.11308 23.2125 6.47325 24.5888 3.88946L24.5367 3.79918C23.8944 2.68679 24.2769 1.25927 25.3893 0.616923C26.5019 -0.025261 27.9293 0.357248 28.5716 1.46955L30.8845 5.47553C32.113 4.83998 33.6416 5.2786 34.3402 6.4888C35.0389 7.69892 34.6544 9.24183 33.4899 9.98822L35.8028 13.9942C36.113 14.5314 36.1948 15.159 36.0334 15.7614C35.872 16.3637 35.4873 16.8663 34.95 17.1765C34.5929 17.3828 34.1958 17.4881 33.7927 17.4881C33.5895 17.4881 33.3848 17.4613 33.1829 17.4072C32.5806 17.2458 32.078 16.8611 31.7679 16.3239L31.7157 16.2336C28.8156 16.1343 25.363 16.881 21.8954 18.3538L25.9879 23.8624C26.3963 24.4122 26.3246 25.1713 25.8211 25.6282L24.9208 26.4452C24.6769 26.6664 24.3589 26.7879 24.0327 26.7879C23.9908 26.7879 23.9487 26.7859 23.9067 26.7818C23.5418 26.7466 23.207 26.5584 22.9882 26.2655L18.7067 20.5364L18.5573 20.6227C17.8911 21.0073 17.1501 21.2038 16.3978 21.2038C16.0182 21.2038 15.6358 21.1538 15.2585 21.0527C14.1336 20.7513 13.1955 20.0333 12.6168 19.0309C12.038 18.0285 11.8853 16.857 12.1866 15.7322ZM25.0778 24.5384L21.0847 19.1634L19.6953 19.9656L23.8963 25.5869C23.9329 25.636 23.9814 25.6502 24.0156 25.6535C24.0463 25.6564 24.1055 25.6541 24.159 25.6056L25.0593 24.7886C25.13 24.7244 25.1379 24.6192 25.0778 24.5384ZM31.4528 6.45998L32.9215 9.00385C33.545 8.57171 33.7445 7.72418 33.3585 7.0556C32.9725 6.3871 32.1388 6.13609 31.4528 6.45998ZM25.5184 3.23238L32.7495 15.757C32.9083 16.032 33.1663 16.2292 33.4763 16.3122C33.7862 16.3951 34.1082 16.3535 34.3832 16.1948C34.6582 16.036 34.8554 15.7779 34.9385 15.468C35.0215 15.1582 34.9798 14.8361 34.8211 14.5611L27.5899 2.03643C27.3687 1.65319 26.9657 1.4387 26.5521 1.4387C26.3494 1.4387 26.144 1.4902 25.9562 1.5987C25.6812 1.7574 25.484 2.01554 25.4011 2.32542C25.3181 2.63529 25.3597 2.9574 25.5184 3.23238ZM18.3849 12.344L21.2918 17.379C24.6915 15.9143 28.1019 15.118 31.0568 15.0925L25.2476 5.03043C23.7481 7.57673 21.3532 10.1321 18.3849 12.344ZM13.5984 18.4641C14.0257 19.2042 14.7194 19.7347 15.5518 19.9577C16.3841 20.1807 17.2502 20.0682 17.9904 19.6409L20.4642 18.2126L17.249 12.6438L14.7751 14.072C14.035 14.4993 13.5046 15.1931 13.2815 16.0254C13.0585 16.8578 13.1711 17.724 13.5984 18.4641ZM3.10955 6.55236C3.10955 4.65407 4.65393 3.10962 6.55231 3.10962C8.45069 3.10962 9.99506 4.65399 9.99506 6.55236C9.99506 8.45065 8.45069 9.99502 6.55231 9.99502C4.65393 9.99502 3.10955 8.45065 3.10955 6.55236ZM4.24316 6.55236C4.24316 7.82564 5.27903 8.86142 6.55231 8.86142C7.82559 8.86142 8.86146 7.82564 8.86146 6.55236C8.86146 5.27909 7.82559 4.24322 6.55231 4.24322C5.27903 4.24322 4.24316 5.27909 4.24316 6.55236ZM0 7.1509V5.95382C0 5.42443 0.430607 4.99383 0.959919 4.99383C1.42874 4.99383 1.61368 4.63545 1.65911 4.52557C1.70462 4.41569 1.82737 4.03148 1.49579 3.69999C1.31449 3.51877 1.21457 3.27772 1.21457 3.0212C1.21457 2.76477 1.31441 2.52364 1.49579 2.34234L2.34219 1.49587C2.71644 1.12154 3.32551 1.12154 3.69984 1.49587C4.03142 1.82744 4.41563 1.70469 4.52542 1.65919C4.6353 1.61368 4.99368 1.42882 4.99368 0.959998C4.99368 0.430608 5.42429 2.17648e-06 5.9536 2.17648e-06H7.15069C7.68 2.17648e-06 8.11061 0.430608 8.11061 0.959998C8.11061 1.42882 8.46899 1.61368 8.57887 1.65919C8.68866 1.70469 9.07304 1.82728 9.40445 1.49587C9.77878 1.12154 10.3878 1.12154 10.7621 1.49587L11.6086 2.34234C11.7899 2.52364 11.8897 2.76469 11.8897 3.02112C11.8897 3.27756 11.7899 3.51869 11.6085 3.69999C11.277 4.03148 11.3998 4.41569 11.4453 4.52557C11.4908 4.63537 11.6756 4.99383 12.1445 4.99383C12.6738 4.99383 13.1044 5.42443 13.1044 5.95382V7.1509C13.1044 7.68021 12.6738 8.11082 12.1445 8.11082C11.6756 8.11082 11.4907 8.4692 11.4453 8.57908C11.3998 8.68887 11.277 9.07316 11.6086 9.40466C11.9829 9.77899 11.9829 10.3881 11.6086 10.7623L10.7621 11.6088C10.5809 11.7901 10.3398 11.89 10.0833 11.89C9.82688 11.89 9.58575 11.7902 9.40445 11.6088C9.07296 11.2774 8.68883 11.4 8.57887 11.4455C8.46907 11.491 8.11061 11.6759 8.11061 12.1448C8.11061 12.6741 7.68 13.1047 7.15069 13.1047H5.95376C5.42445 13.1047 4.99385 12.6741 4.99385 12.1448C4.99385 11.6749 4.63571 11.4901 4.52599 11.4447C4.41611 11.3991 4.03223 11.2766 3.7 11.6089C3.51879 11.7902 3.27765 11.8901 3.02121 11.8901C2.76478 11.8901 2.52356 11.7902 2.34235 11.6089L1.49595 10.7625C1.31466 10.5813 1.21474 10.3401 1.21474 10.0836C1.21474 9.82717 1.31457 9.58604 1.49595 9.40474C1.82745 9.07324 1.7047 8.68904 1.65919 8.57924C1.61368 8.46936 1.42883 8.11098 0.96 8.11098C0.430607 8.11082 0 7.68021 0 7.1509ZM1.1336 6.98475C1.83733 7.04605 2.43053 7.47892 2.70648 8.14531C2.98251 8.81171 2.86915 9.53729 2.41482 10.0783L3.0264 10.6898C3.56777 10.235 4.29352 10.1214 4.95968 10.3973C5.62591 10.6732 6.05862 11.2668 6.11984 11.9712H6.98462C7.04591 11.2675 7.47879 10.6743 8.14518 10.3983C8.8115 10.1224 9.53708 10.2356 10.0781 10.6898L10.6897 10.0783C10.2354 9.53729 10.1221 8.81171 10.3981 8.14531C10.6741 7.479 11.2672 7.04605 11.9709 6.98475V6.11998C11.2672 6.05868 10.674 5.62581 10.3981 4.95941C10.1221 4.29302 10.2354 3.56752 10.6896 3.02647L10.0781 2.41489C9.53692 2.86914 8.81142 2.98242 8.1451 2.70647C7.47879 2.43044 7.04591 1.83732 6.98462 1.1336H6.11984C6.05854 1.83732 5.62567 2.43052 4.95935 2.70647C4.29296 2.9825 3.56737 2.86914 3.0264 2.41481L2.41482 3.02639C2.86907 3.56752 2.98243 4.29302 2.7064 4.95933C2.43053 5.62581 1.83733 6.05868 1.1336 6.11998V6.98475ZM39.9555 22.0543C39.7554 23.7327 38.9483 25.3294 38.485 26.1317C38.0217 26.9341 37.0426 28.4313 35.6891 29.4438C34.8117 30.1002 33.928 30.4304 33.0718 30.4304C32.4739 30.4304 31.8893 30.2694 31.3294 29.9461L31.1258 29.8285C30.7904 29.6349 30.5505 29.3218 30.45 28.9467C30.3495 28.5716 30.4007 28.1805 30.5943 27.8451L31.4082 26.4355C31.8084 25.7422 32.6982 25.5038 33.3916 25.904L33.869 26.1797C34.0043 26.2579 34.1645 26.2314 34.2676 26.1139C34.7127 25.6064 35.1227 25.0299 35.4862 24.4003C35.8496 23.7708 36.144 23.1274 36.3609 22.4882C36.4111 22.3402 36.3539 22.1883 36.2186 22.1101L35.7412 21.8346C35.4058 21.641 35.1659 21.3278 35.0653 20.9527C34.9649 20.5777 35.0161 20.1864 35.2097 19.8511L36.0236 18.4415C36.4237 17.7482 37.3135 17.5098 38.007 17.91L38.2106 18.0275C39.5725 18.8138 40.1758 20.2062 39.9555 22.0543ZM37.6438 19.0092L37.4402 18.8917C37.2883 18.8039 37.093 18.8562 37.0053 19.0082L36.1915 20.4178C36.1493 20.4909 36.1382 20.5766 36.1604 20.6592C36.1825 20.7418 36.235 20.8105 36.3081 20.8527L36.7855 21.1283C37.393 21.4791 37.6599 22.1881 37.4344 22.8525C37.1937 23.5618 36.8685 24.2732 36.4679 24.967C36.0674 25.6607 35.6138 26.298 35.1199 26.8613C34.6572 27.389 33.9099 27.5122 33.3023 27.1614L32.8249 26.8859C32.7749 26.8571 32.7202 26.8433 32.6662 26.8433C32.5561 26.8433 32.4488 26.9004 32.3899 27.0024L31.576 28.412C31.5338 28.4851 31.5228 28.5708 31.5449 28.6534C31.567 28.736 31.6195 28.8047 31.6926 28.8469L31.8962 28.9645C32.8615 29.5217 33.88 29.3816 35.0101 28.5361C36.2459 27.6116 37.1653 26.1503 37.5034 25.5649C37.8414 24.9796 38.6472 23.4525 38.8299 21.9202C38.9969 20.5186 38.609 19.5665 37.6438 19.0092Z" fill="#C858BC"/>
</svg>
