<svg width="34" height="40" viewBox="0 0 34 40" fill="none" xmlns="http://www.w3.org/2000/svg">
<path d="M25.5 11.25H26.6333V12.5H25.5V11.25Z" fill="#C858BC"/>
<path d="M22.1 34.6875C22.0994 34.1075 21.8902 33.5515 21.5184 33.1414C21.1466 32.7313 20.6425 32.5007 20.1167 32.5H13.8833C13.3575 32.5007 12.8534 32.7313 12.4816 33.1414C12.1097 33.5515 11.9006 34.1075 11.9 34.6875V35.3125C11.9006 35.8925 12.1097 36.4485 12.4816 36.8586C12.8534 37.2687 13.3575 37.4993 13.8833 37.5H20.1167C20.6425 37.4993 21.1466 37.2687 21.5184 36.8586C21.8902 36.4485 22.0994 35.8925 22.1 35.3125V34.6875ZM20.9667 35.3125C20.9664 35.5611 20.8768 35.7994 20.7174 35.9751C20.5581 36.1509 20.342 36.2497 20.1167 36.25H13.8833C13.658 36.2497 13.4419 36.1509 13.2826 35.9751C13.1232 35.7994 13.0336 35.5611 13.0333 35.3125V34.6875C13.0336 34.4389 13.1232 34.2006 13.2826 34.0249C13.4419 33.8491 13.658 33.7503 13.8833 33.75H20.1167C20.342 33.7503 20.5581 33.8491 20.7174 34.0249C20.8768 34.2006 20.9664 34.4389 20.9667 34.6875V35.3125Z" fill="#C858BC"/>
<path d="M0 23.75V29.8438C0.00039368 30.2166 0.13485 30.574 0.373874 30.8376C0.612897 31.1013 0.93697 31.2496 1.275 31.25H7.36667V37.8125C7.36727 38.3925 7.57642 38.9485 7.94823 39.3586C8.32005 39.7687 8.82417 39.9993 9.35 40H20.9667V38.75H9.35C9.12464 38.7497 8.90858 38.6509 8.74923 38.4751C8.58988 38.2994 8.50024 38.0611 8.5 37.8125V31.25H25.5V37.8125C25.4998 38.0611 25.4101 38.2994 25.2508 38.4751C25.0914 38.6509 24.8754 38.7497 24.65 38.75H22.1V40H24.65C25.1758 39.9993 25.6799 39.7687 26.0518 39.3586C26.4236 38.9485 26.6327 38.3925 26.6333 37.8125V31.25H32.725C33.063 31.2496 33.3871 31.1013 33.6261 30.8376C33.8652 30.574 33.9996 30.2166 34 29.8438V12.5H32.8667V29.8438C32.8667 29.8852 32.8517 29.9249 32.8252 29.9542C32.7986 29.9835 32.7626 30 32.725 30H31.5434L30.8209 25.4535C30.5799 23.8065 29.8308 22.3018 28.7002 21.1934C29.304 20.5544 29.7838 19.7867 30.1104 18.9369C30.4369 18.0871 30.6035 17.173 30.6 16.25V14.342C30.9635 13.9339 31.167 13.3846 31.1667 12.8125V12.1875C31.167 11.6154 30.9635 11.0661 30.6 10.658V10C30.6004 9.36599 30.5211 8.73499 30.3644 8.125H32.725C32.7626 8.125 32.7986 8.14146 32.8252 8.17076C32.8517 8.20007 32.8667 8.23981 32.8667 8.28125V11.25H34V8.28125C33.9996 7.90842 33.8652 7.55099 33.6261 7.28736C33.3871 7.02373 33.063 6.87543 32.725 6.875H29.9181C29.2215 5.37739 28.0536 4.21138 26.6333 3.59547V2.1875C26.6327 1.60754 26.4236 1.05153 26.0518 0.641435C25.6799 0.231342 25.1758 0.000661675 24.65 0H9.35C8.82417 0.000661675 8.32005 0.231342 7.94823 0.641435C7.57642 1.05153 7.36727 1.60754 7.36667 2.1875V6.875H1.275C0.93697 6.87543 0.612897 7.02373 0.373874 7.28736C0.13485 7.55099 0.00039368 7.90842 0 8.28125V22.5H1.13333V8.28125C1.13333 8.23981 1.14826 8.20007 1.17483 8.17076C1.20139 8.14146 1.23743 8.125 1.275 8.125H13.6V6.875H8.5V2.1875C8.50024 1.93894 8.58988 1.70064 8.74923 1.52488C8.90858 1.34913 9.12464 1.25027 9.35 1.25H12.4667V1.5625C12.4673 2.14246 12.6764 2.69847 13.0482 3.10857C13.4201 3.51866 13.9242 3.74934 14.45 3.75H19.55C20.0758 3.74934 20.5799 3.51866 20.9518 3.10857C21.3236 2.69847 21.5327 2.14246 21.5333 1.5625V1.25H24.65C24.8754 1.25027 25.0914 1.34913 25.2508 1.52488C25.4101 1.70064 25.4998 1.93894 25.5 2.1875V3.23891C24.1793 2.97048 22.8154 3.17936 21.611 3.83448C20.4066 4.48959 19.4261 5.55596 18.8152 6.875H14.7333V8.125H18.3689C18.2122 8.73499 18.1329 9.36599 18.1333 10V10.658C17.7698 11.0661 17.5663 11.6154 17.5667 12.1875V12.8125C17.5663 13.3846 17.7698 13.9339 18.1333 14.342V16.25C18.1298 17.173 18.2964 18.0871 18.6229 18.9369C18.9495 19.7867 19.4292 20.5544 20.033 21.1934C18.9026 22.3018 18.1535 23.8065 17.9123 25.4534L17.1898 30.0003H1.275C1.23743 30.0003 1.20139 29.9839 1.17483 29.9545C1.14826 29.9252 1.13333 29.8855 1.13333 29.8441V23.75H0ZM20.4 1.5625C20.3998 1.81106 20.3101 2.04936 20.1508 2.22512C19.9914 2.40087 19.7754 2.49973 19.55 2.5H14.45C14.2246 2.49973 14.0086 2.40087 13.8492 2.22512C13.6899 2.04936 13.6002 1.81106 13.6 1.5625V1.25H20.4V1.5625ZM29.4667 16.25C29.4696 17.0398 29.3204 17.8213 29.0289 18.5427C28.7374 19.2641 28.3102 19.9089 27.7757 20.4345C27.5403 20.2749 27.2959 20.1321 27.0439 20.007L26.3532 17.7216L27.5619 16.8309C27.8703 16.6324 28.14 16.3684 28.3552 16.0541C28.5705 15.7398 28.727 15.3815 28.8158 15H29.1833C29.2781 15 29.3728 14.9926 29.4667 14.9777V16.25ZM24.7689 17.3858C24.6447 17.4599 24.5058 17.4989 24.3646 17.4994C24.2234 17.4998 24.0843 17.4616 23.9598 17.3883L21.7935 15.8081C21.7824 15.8003 21.7709 15.7925 21.7593 15.7851C21.5189 15.6352 21.3189 15.4177 21.1796 15.1547C21.0404 14.8917 20.9669 14.5927 20.9667 14.2881V10.6241C22.8597 10.6027 24.6771 9.80207 26.0627 8.3793L27.7667 10.2588V14.2648C27.7663 14.5677 27.6935 14.8652 27.5556 15.1272C27.4178 15.3891 27.2197 15.6064 26.9815 15.757C26.97 15.7642 26.9588 15.7719 26.9478 15.78L24.7689 17.3858ZM25.9825 20.4477C25.5322 20.8725 24.9592 21.1058 24.3667 21.1058C23.7742 21.1058 23.2011 20.8725 22.7508 20.4477L23.3558 18.4463C23.3661 18.4541 23.3771 18.461 23.3877 18.4677C23.687 18.6528 24.0245 18.7495 24.3677 18.7484C24.7108 18.7474 25.0478 18.6487 25.3462 18.4618C25.3563 18.4554 25.3663 18.4486 25.3761 18.4415L25.9825 20.4477ZM30.0333 12.1875V12.8125C30.0331 13.0611 29.9435 13.2994 29.7841 13.4751C29.6248 13.6509 29.4087 13.7497 29.1833 13.75H28.9V11.25H29.1833C29.4087 11.2503 29.6248 11.3491 29.7841 11.5249C29.9435 11.7006 30.0331 11.9389 30.0333 12.1875ZM19.2667 10C19.2667 8.50816 19.804 7.07742 20.7604 6.02252C21.7169 4.96763 23.0141 4.375 24.3667 4.375C25.7193 4.375 27.0165 4.96763 27.9729 6.02252C28.9293 7.07742 29.4667 8.50816 29.4667 10V10.0223C29.3728 10.0074 29.2781 10 29.1833 10H28.9C28.9 9.91792 28.8853 9.83665 28.8569 9.76082C28.8284 9.68499 28.7867 9.61609 28.734 9.55805L26.4674 7.05805C26.3611 6.94085 26.217 6.87502 26.0667 6.87502C25.9164 6.87502 25.7723 6.94085 25.666 7.05805L25.4739 7.26984C24.8702 7.93934 24.1521 8.47012 23.3612 8.83147C22.5702 9.19282 21.7221 9.37756 20.866 9.375H20.4C20.2497 9.375 20.1056 9.44085 19.9993 9.55806C19.893 9.67527 19.8333 9.83424 19.8333 10H19.55C19.4552 10 19.3605 10.0074 19.2667 10.0223V10ZM18.7 12.8125V12.1875C18.7002 11.9389 18.7899 11.7006 18.9492 11.5249C19.1086 11.3491 19.3246 11.2503 19.55 11.25H19.8333V13.75H19.55C19.3246 13.7497 19.1086 13.6509 18.9492 13.4751C18.7899 13.2994 18.7002 13.0611 18.7 12.8125ZM19.2667 16.25V14.9777C19.3605 14.9926 19.4552 15 19.55 15H19.9121C19.9995 15.3889 20.1571 15.7543 20.3757 16.0743C20.5943 16.3943 20.8692 16.6623 21.184 16.8622L22.3769 17.7323L21.6898 20.0069C21.4378 20.132 21.1933 20.2748 20.9579 20.4345C20.4233 19.909 19.9961 19.2641 19.7045 18.5427C19.413 17.8213 19.2637 17.0398 19.2667 16.25ZM19.0294 25.6641C19.0299 25.6606 19.0305 25.6571 19.031 25.6537C19.1663 24.7288 19.4961 23.8518 19.994 23.0928C20.4919 22.3339 21.1441 21.7141 21.8983 21.2832C22.5679 21.9734 23.4503 22.3573 24.3668 22.3573C25.2833 22.3573 26.1657 21.9734 26.8354 21.2832C27.5895 21.7141 28.2417 22.3338 28.7397 23.0928C29.2376 23.8518 29.5674 24.7288 29.7026 25.6537C29.7031 25.6571 29.7037 25.6606 29.7042 25.6641L30.3931 30H18.3405L19.0294 25.6641Z" fill="#C858BC"/>
<path d="M2.26667 25.3125C2.26727 25.8925 2.47642 26.4485 2.84823 26.8586C3.22005 27.2687 3.72417 27.4993 4.25 27.5H15.0167C15.5425 27.4993 16.0466 27.2687 16.4184 26.8586C16.7903 26.4485 16.9994 25.8925 17 25.3125V14.6875C16.9994 14.1075 16.7903 13.5515 16.4184 13.1414C16.0466 12.7313 15.5425 12.5007 15.0167 12.5H4.25C3.72417 12.5007 3.22005 12.7313 2.84823 13.1414C2.47642 13.5515 2.26727 14.1075 2.26667 14.6875V25.3125ZM3.4 14.6875C3.40024 14.4389 3.48988 14.2006 3.64923 14.0249C3.80858 13.8491 4.02464 13.7503 4.25 13.75H15.0167C15.242 13.7503 15.4581 13.8491 15.6174 14.0249C15.7768 14.2006 15.8664 14.4389 15.8667 14.6875V25.3125C15.8664 25.5611 15.7768 25.7994 15.6174 25.9751C15.4581 26.1509 15.242 26.2497 15.0167 26.25H4.25C4.02464 26.2497 3.80858 26.1509 3.64923 25.9751C3.48988 25.7994 3.40024 25.5611 3.4 25.3125V14.6875Z" fill="#C858BC"/>
<path d="M6.50207 24.2817C6.58425 24.3377 6.67804 24.3696 6.77455 24.3744C6.87105 24.3792 6.96705 24.3566 7.05344 24.309L13.8534 20.559C13.9476 20.5071 14.0267 20.4273 14.082 20.3286C14.1373 20.2298 14.1666 20.1161 14.1666 20C14.1666 19.8839 14.1373 19.7702 14.082 19.6714C14.0267 19.5727 13.9476 19.4929 13.8534 19.441L7.05344 15.691C6.96705 15.6434 6.87105 15.6209 6.77455 15.6257C6.67806 15.6304 6.58427 15.6623 6.5021 15.7184C6.41994 15.7744 6.35211 15.8526 6.30507 15.9456C6.25803 16.0387 6.23334 16.1435 6.23333 16.25V23.75C6.23332 23.8565 6.25801 23.9613 6.30504 24.0544C6.35208 24.1474 6.4199 24.2257 6.50207 24.2817ZM7.36667 17.2612L12.3329 20L7.36667 22.7388V17.2612Z" fill="#C858BC"/>
<path d="M2.26667 9.375H3.4V10.625H2.26667V9.375Z" fill="#C858BC"/>
<path d="M4.53333 9.375H5.66667V10.625H4.53333V9.375Z" fill="#C858BC"/>
<path d="M6.8 9.375H7.93333V10.625H6.8V9.375Z" fill="#C858BC"/>
<path d="M22.1 11.25H23.2333V12.5H22.1V11.25Z" fill="#C858BC"/>
<path d="M24.3667 15C24.0151 15 23.8 14.7977 23.8 14.6875H22.6667C22.6667 15.5637 23.4134 16.25 24.3667 16.25C25.3199 16.25 26.0667 15.5637 26.0667 14.6875H24.9333C24.9333 14.7977 24.7182 15 24.3667 15Z" fill="#C858BC"/>
</svg>
