<svg width="32" height="40" viewBox="0 0 32 40" fill="none" xmlns="http://www.w3.org/2000/svg">
<path d="M2.49537 27.332H3.95136V28.4412H2.49537V29.9949H1.456V28.4412H0V27.332H1.456V25.7783H2.49537V27.332ZM30.8701 30.4261V34.7461C30.8701 36.2536 29.4619 37.6193 26.9049 38.5915C24.516 39.4998 21.3505 40 17.9915 40C14.6324 40 11.4669 39.4998 9.07801 38.5915C6.52103 37.6193 5.11284 36.2536 5.11284 34.7461V30.4261C5.11284 28.9185 6.52103 27.5524 9.07793 26.5795C11.4672 25.6704 14.6327 25.1698 17.9915 25.1698C21.3502 25.1698 24.5158 25.6704 26.905 26.5795C29.462 27.5524 30.8701 28.9185 30.8701 30.4261ZM29.8307 34.7461V32.5654C29.1593 33.2112 28.1738 33.7909 26.9049 34.2735C24.5163 35.182 21.3508 35.6823 17.9915 35.6823C14.632 35.6823 11.4665 35.182 9.07793 34.2735C7.80906 33.7909 6.8235 33.2112 6.15213 32.5654V34.7461C6.15213 35.4541 6.78668 36.1914 7.92581 36.8444V35.6598H8.96518V37.3562C9.75189 37.6916 10.6859 37.9909 11.7446 38.2341V36.8206H12.784V38.4471C13.6461 38.6035 14.5758 38.7238 15.5634 38.7994V37.3259H16.6028V38.8612C17.0555 38.8805 17.5184 38.8909 17.9915 38.8909C18.4652 38.8909 18.9288 38.8805 19.3822 38.8611V37.3259H20.4216V38.7993C21.4092 38.7235 22.3389 38.6031 23.201 38.4468V36.8207H24.2404V38.2337C25.2983 37.9905 26.2315 37.6914 27.0177 37.3562V35.6598H28.0571V36.8443C29.1962 36.1913 29.8307 35.4541 29.8307 34.7461ZM29.8307 30.4261C29.8307 28.4645 24.9685 26.279 17.9915 26.279C11.0144 26.279 6.15213 28.4645 6.15213 30.4261C6.15213 32.3876 11.0144 34.5731 17.9915 34.5731C24.9685 34.5731 29.8307 32.3876 29.8307 30.4261ZM25.0645 28.1162C23.1694 27.6336 20.6575 27.368 17.9915 27.368V28.4771C20.5786 28.4771 23.0048 28.7321 24.8233 29.1951C26.8828 29.7194 27.3038 30.2994 27.3038 30.4261C27.3038 30.5527 26.8828 31.1327 24.8233 31.6571C23.0048 32.12 20.5786 32.375 17.9915 32.375C15.4051 32.375 12.9791 32.12 11.1604 31.6571C9.1002 31.1326 8.67905 30.5527 8.67905 30.4261C8.67905 30.3124 9.04512 29.7853 10.8357 29.282C12.4268 28.8349 14.6043 28.5538 16.9671 28.4904L16.941 27.3816C14.4999 27.447 12.2377 27.741 10.571 28.2094C8.59844 28.7638 7.6396 29.4888 7.6396 30.4261C7.6396 31.4048 8.74295 32.182 10.9192 32.736C12.8146 33.2184 15.3262 33.4842 17.9914 33.4842C20.6574 33.4842 23.1693 33.2185 25.0644 32.736C27.24 32.1821 28.3431 31.4049 28.3431 30.4261C28.3431 29.4472 27.2401 28.6701 25.0645 28.1162ZM7.04157 14.1226C8.68476 12.0609 11.1915 9.93845 14.1001 8.14619C17.0096 6.35392 19.9858 5.0983 22.4804 4.61053C25.1502 4.08862 27.0096 4.51991 27.716 5.82544L27.7161 5.8256L27.7162 5.82568C28.0548 6.4504 28.393 7.07607 28.7314 7.70175C29.0674 8.3233 29.4034 8.94477 29.7399 9.5657C30.4465 10.8715 29.8668 12.8057 28.1082 15.0124C26.465 17.074 23.9582 19.1965 21.0497 20.9888C18.1401 22.781 15.1639 24.0367 12.6694 24.5244C11.93 24.669 11.2526 24.7404 10.6449 24.7404C9.05789 24.7404 7.94452 24.2535 7.4337 23.3095C7.09501 22.6847 6.7567 22.0589 6.41838 21.4332C6.08236 20.8117 5.74635 20.1902 5.40981 19.5693L5.40966 19.5689L5.40959 19.5688C4.70341 18.2633 5.28296 16.3291 7.04157 14.1226ZM27.831 8.25605C27.8266 8.24797 27.8222 8.23997 27.8179 8.23189C27.5391 9.14945 26.957 10.1775 26.084 11.2726C24.4413 13.3335 21.9346 15.4556 19.0256 17.2481C16.1154 19.0407 13.1393 20.2966 10.6453 20.7846C9.90591 20.9292 9.22861 21.0007 8.62085 21.0007C8.13958 21.0007 7.70254 20.9552 7.31197 20.8664C7.3142 20.8705 7.3165 20.8747 7.31873 20.8788C7.6569 21.5043 7.99499 22.1297 8.33368 22.7545C8.66546 23.3677 9.56017 23.6677 10.8524 23.6257L10.2973 22.6L11.1974 22.0453L11.9924 23.5145C12.8309 23.3854 13.78 23.1464 14.8108 22.7924L14.1479 21.5698L15.0475 21.0142L15.811 22.4222C16.6308 22.0978 17.4923 21.7061 18.383 21.2448L17.6928 19.9682L18.5931 19.4139L19.3121 20.7438C19.7137 20.5187 20.1199 20.2806 20.53 20.028C20.94 19.7754 21.3364 19.519 21.7197 19.2605L21.0005 17.9318L21.9005 17.3771L22.5908 18.6523C23.4101 18.0602 24.1584 17.4602 24.8314 16.8651L24.07 15.4548L24.9706 14.9011L25.6318 16.1259C26.4348 15.3501 27.1034 14.5925 27.6274 13.882L26.8327 12.4129L27.7329 11.8583L28.2876 12.8839C28.9678 11.7107 29.1717 10.7337 28.8399 10.1205C28.5034 9.49979 28.1672 8.87792 27.831 8.25605ZM6.30979 19.0143L6.30986 19.0145C6.7662 19.8587 8.3169 20.1124 10.4579 19.6936C12.8379 19.2279 15.6961 18.0183 18.5059 16.2875C24.5466 12.5653 27.7335 8.07886 26.8159 6.38014C25.8967 4.68229 20.6621 5.38464 14.6196 9.10676C8.5778 12.8298 5.39103 17.3163 6.30979 19.0143ZM7.59789 18.2219C7.13933 17.3734 7.73045 16.1115 9.35457 14.471C10.7692 13.042 12.8199 11.4713 15.1287 10.048L15.129 10.0479C17.4391 8.62556 19.7395 7.51584 21.6061 6.92288C23.75 6.24192 25.0694 6.32683 25.5278 7.17516C25.9864 8.02191 25.3952 9.28331 23.7708 10.9238C22.3559 12.3527 20.3053 13.9234 17.9967 15.3465C15.688 16.7685 13.388 17.8784 11.5202 18.4719C10.5653 18.7753 9.77386 18.9269 9.14926 18.9269C8.37153 18.9268 7.85226 18.6916 7.59789 18.2219ZM8.49809 17.6674C8.55717 17.7765 9.19365 18.0538 11.2237 17.4087C13.016 16.8392 15.2368 15.7656 17.4771 14.3858C19.7174 13.0049 21.6989 11.4892 23.0566 10.1181C24.5942 8.56528 24.6871 7.83917 24.6279 7.72963C24.5684 7.61945 23.932 7.3415 21.9028 7.98595C20.1118 8.55483 17.8906 9.62827 15.6488 11.0085C13.4081 12.3897 11.4266 13.9054 10.0692 15.2765C8.53134 16.8298 8.43871 17.5575 8.49809 17.6674ZM6.15213 2.6764H5.11276V10.9705H6.15213V2.6764ZM8.10892 2.6764H7.06955V6.82347H8.10892V2.6764ZM30.0348 2.6764H28.9954V6.15439H30.0348V2.6764ZM18.0946 0H17.0552V4.54898H18.0946V0ZM30.544 22.1858V20.632H29.5046V22.1858H28.0508V23.2949H29.5046V24.8465H30.544V23.2949H32V22.1858H30.544Z" fill="#C858BC"/>
</svg>
