<svg width="40" height="40" viewBox="0 0 40 40" fill="none" xmlns="http://www.w3.org/2000/svg">
<path d="M40 37.3333V36.6667C40 36.313 39.8595 35.9739 39.6095 35.7239C39.3594 35.4738 39.0203 35.3333 38.6667 35.3333H38.1413C38.1962 35.1827 38.2327 35.026 38.25 34.8667L39.324 23.5133C39.3509 23.2377 39.3198 22.9595 39.2328 22.6965C39.1458 22.4336 39.0049 22.1917 38.8189 21.9865C38.633 21.7812 38.4062 21.6171 38.1532 21.5046C37.9001 21.3921 37.6263 21.3338 37.3493 21.3333H21.8281C21.0814 18.5041 20.6913 15.5927 20.6667 12.6667V8.66667C20.6667 6.36812 19.7536 4.16372 18.1283 2.53841C16.503 0.913093 14.2986 0 12.0001 0C9.70154 0 7.49715 0.913093 5.87184 2.53841C4.24652 4.16372 3.33343 6.36812 3.33343 8.66667V12.6667C3.29794 16.2479 2.72512 19.8035 1.63411 23.2147C1.12446 23.6446 0.714363 24.1801 0.432222 24.7842C0.15008 25.3884 0.00263837 26.0466 0.000109817 26.7133V38C-0.005407 38.524 0.197132 39.0289 0.563309 39.4038C0.929486 39.7787 1.42941 39.9931 1.95344 40H37.3333C38.0406 40 38.7189 39.7191 39.219 39.219C39.7191 38.7189 40 38.0406 40 37.3333ZM37.828 22.8787C37.8905 22.9469 37.9379 23.0275 37.9671 23.1152C37.9963 23.203 38.0066 23.296 37.9973 23.388L36.9233 34.7373C36.9095 34.8997 36.8353 35.0511 36.7153 35.1614C36.5953 35.2717 36.4383 35.3331 36.2753 35.3333H21.0581C20.8952 35.3331 20.7383 35.2718 20.6183 35.1616C20.4984 35.0514 20.4241 34.9003 20.4101 34.738L19.3334 23.388C19.3242 23.296 19.3345 23.203 19.3636 23.1152C19.3928 23.0275 19.4402 22.9469 19.5027 22.8787C19.5633 22.8112 19.6376 22.7574 19.7206 22.7208C19.8035 22.6843 19.8934 22.6658 19.9841 22.6667H37.3493C37.4396 22.6662 37.5289 22.6848 37.6114 22.7214C37.6939 22.7579 37.7677 22.8115 37.828 22.8787ZM19.9841 21.3333C19.719 21.3345 19.4568 21.3888 19.2131 21.4932C18.9695 21.5975 18.7492 21.7497 18.5654 21.9407L15.7334 21.4947C15.6209 21.4766 15.5186 21.4188 15.4452 21.3316C15.3718 21.2445 15.3321 21.1339 15.3334 21.02V20.3167C16.1804 19.7333 16.9024 18.9868 17.457 18.1207C18.0116 17.2547 18.3878 16.2866 18.5634 15.2733C18.8679 15.2068 19.1583 15.0872 19.4214 14.92C19.5803 17.0833 19.9245 19.2289 20.4501 21.3333H19.9841ZM18.0001 11.3333C18.3537 11.3333 18.6928 11.4738 18.9429 11.7239C19.1929 11.9739 19.3334 12.313 19.3334 12.6667C19.3334 13.0203 19.1929 13.3594 18.9429 13.6095C18.6928 13.8595 18.3537 14 18.0001 14C17.8423 14.0001 17.6896 14.0561 17.5692 14.1582C17.4489 14.2602 17.3686 14.4017 17.3427 14.5573C16.6727 18.574 14.0461 20 12.0001 20C9.95408 20 7.32742 18.574 6.65743 14.5573C6.63155 14.4017 6.55128 14.2602 6.43092 14.1582C6.31056 14.0561 6.1579 14.0001 6.00009 14C5.64647 14 5.30733 13.8595 5.05729 13.6095C4.80724 13.3594 4.66676 13.0203 4.66676 12.6667C4.66676 12.313 4.80724 11.9739 5.05729 11.7239C5.30733 11.4738 5.64647 11.3333 6.00009 11.3333C6.1769 11.3333 6.34647 11.2631 6.4715 11.1381C6.59652 11.013 6.66676 10.8435 6.66676 10.6667C6.66459 10.4886 6.72891 10.3161 6.84715 10.183C6.96538 10.0498 7.12903 9.96557 7.30609 9.94667C9.70218 9.84769 11.9889 8.91675 13.7727 7.314C14.0511 7.92853 14.4615 8.47415 14.9747 8.91201C15.4879 9.34988 16.0914 9.66923 16.7421 9.84733C16.9059 9.88246 17.0531 9.97151 17.1603 10.1002C17.2675 10.2289 17.3285 10.3899 17.3334 10.5573V10.6667C17.3334 10.8435 17.4036 11.013 17.5287 11.1381C17.6537 11.2631 17.8232 11.3333 18.0001 11.3333ZM10.0001 21.02V20.982C11.2922 21.4506 12.7079 21.4506 14.0001 20.982V21.02C13.9971 21.4533 14.1505 21.8732 14.4321 22.2025C14.7138 22.5318 15.1048 22.7485 15.5334 22.8127L16.1754 22.914C15.4407 24.52 14.0414 25.3333 12.0001 25.3333C9.95875 25.3333 8.55875 24.5193 7.82809 22.9133L8.46942 22.8127C8.8975 22.7479 9.28788 22.531 9.56902 22.2017C9.85015 21.8725 10.0032 21.4529 10.0001 21.02ZM12.0001 1.33333C12.9635 1.33193 13.9177 1.52065 14.8081 1.88869C15.6984 2.25673 16.5074 2.79684 17.1886 3.47809C17.8699 4.15933 18.41 4.96831 18.778 5.85866C19.1461 6.74902 19.3348 7.70325 19.3334 8.66667V10.3653C19.107 10.231 18.8619 10.1313 18.6061 10.0693C18.5098 9.70258 18.3166 9.36847 18.0468 9.10199C17.7771 8.83552 17.4406 8.64647 17.0727 8.55467C16.6091 8.42248 16.1802 8.19022 15.8161 7.87427C15.452 7.55831 15.1616 7.16635 14.9654 6.726C14.8737 6.53501 14.7377 6.36876 14.5686 6.24117C14.3994 6.11358 14.2022 6.02837 13.9934 5.99267C13.7842 5.9564 13.5694 5.96998 13.3665 6.0323C13.1636 6.09462 12.9782 6.20392 12.8254 6.35133C11.2677 7.73748 9.27641 8.5388 7.19276 8.618C6.78746 8.65528 6.4025 8.81259 6.08708 9.06981C5.77167 9.32704 5.54014 9.67249 5.4221 10.062C5.15617 10.1232 4.90136 10.2253 4.66676 10.3647V8.66667C4.66906 6.72245 5.44241 4.85852 6.81717 3.48375C8.19194 2.10898 10.0559 1.33563 12.0001 1.33333ZM4.5781 14.9193C4.84118 15.0871 5.13189 15.207 5.43676 15.2733C5.61236 16.2866 5.98851 17.2547 6.54315 18.1207C7.0978 18.9868 7.81978 19.7333 8.66675 20.3167V21.02C8.66791 21.1344 8.62776 21.2454 8.55367 21.3326C8.47958 21.4198 8.37652 21.4773 8.26342 21.4947L3.9101 22.1807C3.69916 22.2125 3.49083 22.2598 3.28677 22.322C3.96215 19.9035 4.39474 17.4237 4.5781 14.9193ZM1.33344 38V26.7133C1.33607 25.9342 1.6175 25.1817 2.1268 24.5921C2.6361 24.0025 3.33963 23.6146 4.1101 23.4987L6.47409 23.1267C7.07609 24.6507 8.52675 26.6667 12.0001 26.6667C15.4734 26.6667 16.9241 24.6507 17.5261 23.1273L18.0121 23.204C18.0041 23.307 18.0041 23.4104 18.0121 23.5133L19.0834 34.8667C19.1006 35.026 19.1371 35.1827 19.1921 35.3333H18.6667C18.3131 35.3333 17.974 35.4738 17.7239 35.7239C17.4739 35.9739 17.3334 36.313 17.3334 36.6667V37.3333C17.3362 37.8028 17.4641 38.2631 17.7041 38.6667H1.95344C1.7829 38.6602 1.62187 38.5865 1.50564 38.4615C1.38942 38.3365 1.32749 38.1706 1.33344 38ZM38.6667 37.3333C38.6667 37.687 38.5262 38.0261 38.2761 38.2761C38.0261 38.5262 37.687 38.6667 37.3333 38.6667H20.0001C19.6464 38.6667 19.3073 38.5262 19.0572 38.2761C18.8072 38.0261 18.6667 37.687 18.6667 37.3333V36.6667H38.6667V37.3333Z" fill="#C858BC"/>
<path d="M23.3333 33.3333H24.6666C25.0202 33.3333 25.3594 33.1929 25.6094 32.9428C25.8595 32.6928 25.9999 32.3536 25.9999 32V30.6667C25.9984 30.329 25.8688 30.0044 25.6373 29.7585C25.4058 29.5126 25.0896 29.3638 24.7526 29.342C24.8385 28.8619 25.0681 28.4192 25.4111 28.0724C25.754 27.7257 26.1941 27.4912 26.6733 27.4C26.6903 27.7408 26.8374 28.0621 27.0842 28.2977C27.331 28.5333 27.6587 28.6654 27.9999 28.6667H29.3333C29.6745 28.6654 30.0022 28.5333 30.249 28.2977C30.4958 28.0621 30.6429 27.7408 30.6599 27.4C31.1404 27.4884 31.5822 27.7219 31.9259 28.0692C32.2696 28.4164 32.4985 28.8606 32.5819 29.342C32.2447 29.3635 31.9281 29.5122 31.6963 29.7581C31.4645 30.004 31.3348 30.3287 31.3332 30.6667V32C31.3332 32.3536 31.4737 32.6928 31.7238 32.9428C31.9738 33.1929 32.313 33.3333 32.6666 33.3333H33.9999C34.3535 33.3333 34.6927 33.1929 34.9427 32.9428C35.1928 32.6928 35.3332 32.3536 35.3332 32V30.6667C35.3332 30.313 35.1928 29.9739 34.9427 29.7239C34.6927 29.4738 34.3535 29.3333 33.9999 29.3333H33.9412C33.8287 28.6034 33.5302 27.9146 33.0746 27.3333H34.6666C34.8434 27.3333 35.013 27.2631 35.138 27.1381C35.263 27.013 35.3332 26.8435 35.3332 26.6667C35.3332 26.4899 35.263 26.3203 35.138 26.1953C35.013 26.0702 34.8434 26 34.6666 26H30.6666C30.6666 25.6464 30.5261 25.3072 30.2761 25.0572C30.026 24.8071 29.6869 24.6667 29.3333 24.6667H27.9999C27.6463 24.6667 27.3072 24.8071 27.0571 25.0572C26.8071 25.3072 26.6666 25.6464 26.6666 26H22.6666C22.4898 26 22.3202 26.0702 22.1952 26.1953C22.0702 26.3203 21.9999 26.4899 21.9999 26.6667C21.9999 26.8435 22.0702 27.013 22.1952 27.1381C22.3202 27.2631 22.4898 27.3333 22.6666 27.3333H24.2606C23.8049 27.9146 23.5065 28.6034 23.3939 29.3333H23.3333C22.9796 29.3333 22.6405 29.4738 22.3905 29.7239C22.1404 29.9739 21.9999 30.313 21.9999 30.6667V32C21.9999 32.3536 22.1404 32.6928 22.3905 32.9428C22.6405 33.1929 22.9796 33.3333 23.3333 33.3333ZM33.9999 32H32.6666V30.6667H33.9999V32ZM27.9999 26H29.3333V27.3333H27.9999V26ZM23.3333 30.6667H24.6666V32H23.3333V30.6667Z" fill="#C858BC"/>
<path d="M33.8052 10.4073L30.2666 3.622C30.1115 3.33334 29.881 3.0921 29.5998 2.92394C29.3185 2.75578 28.997 2.66698 28.6693 2.66698C28.3416 2.66698 28.02 2.75578 27.7387 2.92394C27.4575 3.0921 27.227 3.33334 27.0719 3.622L23.5279 10.4073C23.371 10.7098 23.3076 11.0521 23.3458 11.3907C23.384 11.7293 23.5222 12.0488 23.7426 12.3087L25.5226 14.364C25.259 14.5478 25.0435 14.7925 24.8945 15.0773C24.7455 15.3621 24.6673 15.6786 24.6666 16V17.3333C24.6666 17.8638 24.8773 18.3725 25.2524 18.7475C25.6275 19.1226 26.1362 19.3333 26.6666 19.3333H30.6666C31.197 19.3333 31.7057 19.1226 32.0808 18.7475C32.4559 18.3725 32.6666 17.8638 32.6666 17.3333V16C32.6659 15.6786 32.5877 15.3621 32.4387 15.0773C32.2897 14.7925 32.0742 14.5478 31.8106 14.364L33.5986 12.2973C33.8159 12.038 33.9515 11.72 33.9883 11.3836C34.025 11.0473 33.9614 10.7075 33.8052 10.4073ZM29.3333 10.6667C29.3333 10.7985 29.2942 10.9274 29.2209 11.037C29.1476 11.1467 29.0435 11.2321 28.9217 11.2826C28.7999 11.333 28.6658 11.3462 28.5365 11.3205C28.4072 11.2948 28.2884 11.2313 28.1952 11.1381C28.1019 11.0448 28.0385 10.926 28.0127 10.7967C27.987 10.6674 28.0002 10.5334 28.0507 10.4115C28.1011 10.2897 28.1866 10.1856 28.2962 10.1124C28.4058 10.0391 28.5347 10 28.6666 10C28.8434 10 29.013 10.0702 29.138 10.1953C29.263 10.3203 29.3333 10.4899 29.3333 10.6667ZM31.3332 17.3333C31.3332 17.5101 31.263 17.6797 31.138 17.8047C31.013 17.9298 30.8434 18 30.6666 18H26.6666C26.4898 18 26.3202 17.9298 26.1952 17.8047C26.0702 17.6797 25.9999 17.5101 25.9999 17.3333V16C25.9999 15.8232 26.0702 15.6536 26.1952 15.5286C26.3202 15.4036 26.4898 15.3333 26.6666 15.3333H30.6666C30.8434 15.3333 31.013 15.4036 31.138 15.5286C31.263 15.6536 31.3332 15.8232 31.3332 16V17.3333ZM32.5826 11.436L30.3626 14H26.9713L24.7593 11.4453C24.7095 11.3884 24.6781 11.3178 24.6693 11.2427C24.6605 11.1676 24.6747 11.0916 24.7099 11.0247L27.9999 4.71933V8.78933C27.5551 8.9466 27.1802 9.25605 26.9415 9.66299C26.7028 10.0699 26.6156 10.5482 26.6954 11.0132C26.7752 11.4782 27.0168 11.9 27.3775 12.2041C27.7382 12.5082 28.1948 12.675 28.6666 12.675C29.1384 12.675 29.595 12.5082 29.9557 12.2041C30.3164 11.9 30.558 11.4782 30.6378 11.0132C30.7176 10.5482 30.6304 10.0699 30.3917 9.66299C30.153 9.25605 29.7781 8.9466 29.3333 8.78933V4.72L32.6232 11.0247C32.658 11.0895 32.6727 11.1633 32.6654 11.2365C32.6582 11.3098 32.6294 11.3792 32.5826 11.436Z" fill="#C858BC"/>
</svg>
