<svg width="59" height="59" viewBox="0 0 59 59" fill="none" xmlns="http://www.w3.org/2000/svg">
<path opacity="0.45" d="M29.4619 55.1042C15.1143 55.1042 3.4996 43.4651 3.4996 29.0874C3.4996 14.7097 15.1143 3.07066 29.4619 3.07066C43.8095 3.07066 55.4242 14.7097 55.4242 29.0874C55.4242 43.4651 43.8095 55.1042 29.4619 55.1042ZM29.4619 0.160889C13.5201 0.160889 0.595917 13.1122 0.595917 29.0874C0.595917 45.0627 13.5201 58.014 29.4619 58.014C45.4037 58.014 58.3279 45.0627 58.3279 29.0874C58.3279 13.1122 45.4037 0.160889 29.4619 0.160889Z" fill="#76C4EF"/>
<path opacity="0.432" d="M29.4619 55.1042C15.1143 55.1042 3.4996 43.4651 3.4996 29.0874C3.4996 14.7097 15.1143 3.07066 29.4619 3.07066C43.8095 3.07066 55.4242 14.7097 55.4242 29.0874C55.4242 43.4651 43.8095 55.1042 29.4619 55.1042ZM29.4619 0.160889C13.5201 0.160889 0.595917 13.1122 0.595917 29.0874C0.595917 45.0627 13.5201 58.014 29.4619 58.014C45.4037 58.014 58.3279 45.0627 58.3279 29.0874C58.3279 13.1122 45.4037 0.160889 29.4619 0.160889Z" fill="#76C4EF"/>
<path opacity="0.414" d="M29.4626 55.1614C15.0581 55.1614 3.44334 43.4652 3.44334 29.0875C3.44334 14.6528 15.115 3.01368 29.4626 3.01368C43.8102 3.01368 55.4818 14.7098 55.4818 29.0875C55.4818 43.5223 43.8671 55.1614 29.4626 55.1614ZM29.4626 0.218018C13.5777 0.218018 0.653534 13.1694 0.653534 29.0875C0.653534 45.0057 13.5777 57.957 29.4626 57.957C45.3474 57.957 58.2716 45.0057 58.2716 29.0875C58.2716 13.1694 45.3474 0.218018 29.4626 0.218018Z" fill="#76C4EF"/>
<path opacity="0.396" d="M29.4613 55.2182C15.0568 55.2182 3.38514 43.5221 3.38514 29.0873C3.38514 14.6526 15.0568 2.95646 29.4613 2.95646C43.8658 2.95646 55.5375 14.6526 55.5375 29.0873C55.5375 43.5221 43.8658 55.2182 29.4613 55.2182ZM29.4613 0.274902C13.5765 0.274902 0.709198 13.1692 0.709198 29.0873C0.709198 45.0055 13.5765 57.8998 29.4613 57.8998C45.3461 57.8998 58.2134 45.0055 58.2134 29.0873C58.2134 13.1692 45.3461 0.274902 29.4613 0.274902Z" fill="#76C4EF"/>
<path opacity="0.378" d="M29.4613 55.2753C15.0568 55.2753 3.32821 43.5792 3.32821 29.0873C3.32821 14.6526 14.9999 2.8994 29.4613 2.8994C43.9228 2.8994 55.5944 14.5955 55.5944 29.0873C55.5944 43.5221 43.8658 55.2753 29.4613 55.2753ZM29.4613 0.274902C13.5765 0.274902 0.709198 13.1692 0.709198 29.0873C0.709198 45.0055 13.5765 57.8998 29.4613 57.8998C45.3461 57.8998 58.2134 45.0055 58.2134 29.0873C58.2134 13.1692 45.3461 0.274902 29.4613 0.274902Z" fill="#76C4EF"/>
<path opacity="0.36" d="M29.461 55.3324C14.9996 55.3324 3.27097 43.5792 3.27097 29.0874C3.27097 14.5956 14.9996 2.84242 29.461 2.84242C43.9225 2.84242 55.6511 14.5956 55.6511 29.0874C55.6511 43.5792 43.9225 55.3324 29.461 55.3324ZM29.461 0.332031C13.6331 0.332031 0.765839 13.2263 0.765839 29.0874C0.765839 44.9485 13.6331 57.8428 29.461 57.8428C45.2889 57.8428 58.1562 44.9485 58.1562 29.0874C58.1562 13.2263 45.2889 0.332031 29.461 0.332031Z" fill="#76C4EF"/>
<path opacity="0.342" d="M29.4618 55.3896C15.0003 55.3896 3.21482 43.6364 3.21482 29.0875C3.21482 14.5386 14.9434 2.78544 29.4618 2.78544C43.9802 2.78544 55.7088 14.5386 55.7088 29.0875C55.7088 43.6364 43.9233 55.3896 29.4618 55.3896ZM29.4618 0.38916C13.6339 0.38916 0.823547 13.2264 0.823547 29.0875C0.823547 44.9486 13.6339 57.7858 29.4618 57.7858C45.2897 57.7858 58.1001 44.9486 58.1001 29.0875C58.1001 13.2264 45.2897 0.38916 29.4618 0.38916Z" fill="#76C4EF"/>
<path opacity="0.324" d="M29.4618 55.3896C14.9434 55.3896 3.21482 43.5793 3.21482 29.0875C3.21482 14.5957 15.0003 2.78544 29.4618 2.78544C43.9233 2.78544 55.7088 14.5957 55.7088 29.0875C55.7088 43.5793 43.9802 55.3896 29.4618 55.3896ZM29.4618 0.38916C13.6339 0.38916 0.823547 13.2264 0.823547 29.0875C0.823547 44.9486 13.6339 57.7858 29.4618 57.7858C45.2897 57.7858 58.1001 44.9486 58.1001 29.0875C58.1001 13.2264 45.2897 0.38916 29.4618 0.38916Z" fill="#76C4EF"/>
<path opacity="0.306" d="M29.4615 55.4464C14.9431 55.4464 3.15754 43.6362 3.15754 29.0873C3.15754 14.5385 14.9431 2.72822 29.4615 2.72822C43.9799 2.72822 55.7654 14.5385 55.7654 29.0873C55.7654 43.6362 43.9799 55.4464 29.4615 55.4464ZM29.4615 0.446045C13.6905 0.446045 0.880142 13.2833 0.880142 29.0873C0.880142 44.8914 13.6905 57.7286 29.4615 57.7286C45.2324 57.7286 58.0428 44.8914 58.0428 29.0873C58.0428 13.2833 45.2324 0.446045 29.4615 0.446045Z" fill="#76C4EF"/>
<path opacity="0.288" d="M29.4621 55.5036C14.8868 55.5036 3.10123 43.6933 3.10123 29.0874C3.10123 14.4815 14.8868 2.67124 29.4621 2.67124C44.0374 2.67124 55.8229 14.4815 55.8229 29.0874C55.8229 43.6933 44.0374 55.5036 29.4621 55.5036ZM29.4621 0.503174C13.6911 0.503174 0.937714 13.2833 0.937714 29.0874C0.937714 44.8915 13.6911 57.6716 29.4621 57.6716C45.2331 57.6716 57.9865 44.8915 57.9865 29.0874C57.9865 13.2833 45.2331 0.503174 29.4621 0.503174Z" fill="#76C4EF"/>
<path opacity="0.27" d="M29.4621 55.5606C14.8868 55.5606 3.0443 43.6933 3.0443 29.0874C3.0443 14.4815 14.8868 2.61419 29.4621 2.61419C44.0374 2.61419 55.8799 14.4815 55.8799 29.0874C55.8799 43.6933 44.0374 55.5606 29.4621 55.5606ZM29.4621 0.503174C13.7481 0.503174 0.937714 13.2833 0.937714 29.0874C0.937714 44.8344 13.6911 57.6716 29.4621 57.6716C45.2331 57.6716 57.9865 44.8915 57.9865 29.0874C57.9865 13.3404 45.1761 0.503174 29.4621 0.503174Z" fill="#76C4EF"/>
<path opacity="0.252" d="M29.4618 55.6177C14.8295 55.6177 2.98708 43.7504 2.98708 29.0875C2.98708 14.4245 14.8295 2.5572 29.4618 2.5572C44.0941 2.5572 55.9365 14.4245 55.9365 29.0875C55.9365 43.7504 44.0941 55.6177 29.4618 55.6177ZM29.4618 0.560303C13.7478 0.560303 0.994354 13.3405 0.994354 29.0875C0.994354 44.8345 13.7478 57.6147 29.4618 57.6147C45.1758 57.6147 57.9292 44.8345 57.9292 29.0875C57.9292 13.3405 45.1758 0.560303 29.4618 0.560303Z" fill="#76C4EF"/>
<path opacity="0.234" d="M29.4615 55.6746C14.8292 55.6746 2.92985 43.8073 2.92985 29.0873C2.92985 14.4243 14.7723 2.49998 29.4615 2.49998C44.1507 2.49998 55.9932 14.3673 55.9932 29.0873C55.9932 43.7503 44.0938 55.6746 29.4615 55.6746ZM29.4615 0.617188C13.7475 0.617188 1.05099 13.3403 1.05099 29.0873C1.05099 44.8343 13.7475 57.5574 29.4615 57.5574C45.1755 57.5574 57.872 44.8343 57.872 29.0873C57.872 13.3403 45.1755 0.617188 29.4615 0.617188Z" fill="#76C4EF"/>
<path opacity="0.216" d="M29.4612 55.7318C14.772 55.7318 2.87262 43.8074 2.87262 29.0874C2.87262 14.3674 14.772 2.443 29.4612 2.443C44.1504 2.443 56.0498 14.3674 56.0498 29.0874C56.0498 43.8074 44.1504 55.7318 29.4612 55.7318ZM29.4612 0.674316C13.8041 0.674316 1.10764 13.3974 1.10764 29.0874C1.10764 44.7773 13.8041 57.5004 29.4612 57.5004C45.1183 57.5004 57.8148 44.7773 57.8148 29.0874C57.8148 13.3974 45.1183 0.674316 29.4612 0.674316Z" fill="#76C4EF"/>
<path opacity="0.198" d="M29.4612 55.7318C14.772 55.7318 2.87262 43.8074 2.87262 29.0874C2.87262 14.3674 14.772 2.443 29.4612 2.443C44.1504 2.443 56.0498 14.3674 56.0498 29.0874C56.0498 43.8074 44.1504 55.7318 29.4612 55.7318ZM29.4612 0.674316C13.8041 0.674316 1.10764 13.3974 1.10764 29.0874C1.10764 44.7773 13.8041 57.5004 29.4612 57.5004C45.1183 57.5004 57.8148 44.7773 57.8148 29.0874C57.8148 13.3974 45.1183 0.674316 29.4612 0.674316Z" fill="#76C4EF"/>
<path opacity="0.18" d="M29.4619 55.7889C14.7157 55.7889 2.81635 43.8075 2.81635 29.0875C2.81635 14.3104 14.7727 2.38602 29.4619 2.38602C44.1511 2.38602 56.1074 14.3674 56.1074 29.0875C56.1074 43.8645 44.208 55.7889 29.4619 55.7889ZM29.4619 0.731445C13.8048 0.731445 1.16524 13.3975 1.16524 29.0875C1.16524 44.7774 13.8617 57.4435 29.4619 57.4435C45.062 57.4435 57.7585 44.7203 57.7585 29.0875C57.7585 13.3975 45.119 0.731445 29.4619 0.731445Z" fill="#76C4EF"/>
<path opacity="0.162" d="M29.4615 55.846C14.7154 55.846 2.75906 43.8646 2.75906 29.0875C2.75906 14.3105 14.7154 2.32904 29.4615 2.32904C44.2077 2.32904 56.164 14.3105 56.164 29.0875C56.164 43.8646 44.2077 55.846 29.4615 55.846ZM29.4615 0.788574C13.8614 0.788574 1.22182 13.4546 1.22182 29.0875C1.22182 44.7204 13.8614 57.3865 29.4615 57.3865C45.0617 57.3865 57.7012 44.7204 57.7012 29.0875C57.7012 13.4546 45.0617 0.788574 29.4615 0.788574Z" fill="#76C4EF"/>
<path opacity="0.144" d="M29.4615 55.9031C14.7154 55.9031 2.70212 43.9217 2.70212 29.0875C2.70212 14.2534 14.6584 2.27199 29.4615 2.27199C44.2646 2.27199 56.2209 14.2534 56.2209 29.0875C56.2209 43.9217 44.2077 55.9031 29.4615 55.9031ZM29.4615 0.788574C13.8614 0.788574 1.22182 13.4546 1.22182 29.0875C1.22182 44.7204 13.8614 57.3865 29.4615 57.3865C45.0617 57.3865 57.7012 44.7204 57.7012 29.0875C57.7012 13.4546 45.0617 0.788574 29.4615 0.788574Z" fill="#76C4EF"/>
<path opacity="0.126" d="M29.4623 55.96C14.6592 55.96 2.64595 43.9215 2.64595 29.0874C2.64595 14.2532 14.6592 2.21476 29.4623 2.21476C44.2654 2.21476 56.2786 14.2532 56.2786 29.0874C56.2786 43.9215 44.2654 55.96 29.4623 55.96ZM29.4623 0.845459C13.9191 0.845459 1.27951 13.5115 1.27951 29.0874C1.27951 44.6632 13.9191 57.3293 29.4623 57.3293C45.0055 57.3293 57.6451 44.6632 57.6451 29.0874C57.6451 13.5115 45.0055 0.845459 29.4623 0.845459Z" fill="#76C4EF"/>
<path opacity="0.108" d="M29.462 56.0171C14.6589 56.0171 2.58872 43.9786 2.58872 29.0874C2.58872 14.2533 14.602 2.15778 29.462 2.15778C44.322 2.15778 56.3352 14.1963 56.3352 29.0874C56.3352 43.9216 44.2651 56.0171 29.462 56.0171ZM29.462 0.902588C13.9188 0.902588 1.33615 13.5116 1.33615 29.0874C1.33615 44.6633 13.9188 57.2723 29.462 57.2723C45.0052 57.2723 57.5878 44.6633 57.5878 29.0874C57.5878 13.5116 45.0052 0.902588 29.462 0.902588Z" fill="#76C4EF"/>
<path opacity="0.09" d="M29.462 56.0171C14.602 56.0171 2.58872 43.9786 2.58872 29.0874C2.58872 14.1963 14.602 2.15778 29.462 2.15778C44.322 2.15778 56.3352 14.1963 56.3352 29.0874C56.3352 43.9786 44.322 56.0171 29.462 56.0171ZM29.462 0.902588C13.9188 0.902588 1.33615 13.5116 1.33615 29.0874C1.33615 44.6633 13.9188 57.2723 29.462 57.2723C45.0052 57.2723 57.5878 44.6633 57.5878 29.0874C57.5878 13.5116 45.0052 0.902588 29.462 0.902588Z" fill="#76C4EF"/>
<path opacity="0.072" d="M29.4619 56.0742C14.6019 56.0742 2.53173 43.9787 2.53173 29.0875C2.53173 14.1963 14.6019 2.1008 29.4619 2.1008C44.3219 2.1008 56.3921 14.1963 56.3921 29.0875C56.3921 43.9787 44.3219 56.0742 29.4619 56.0742ZM29.4619 0.959717C13.9756 0.959717 1.39304 13.5687 1.39304 29.0875C1.39304 44.6063 13.9756 57.2153 29.4619 57.2153C44.9482 57.2153 57.5308 44.6063 57.5308 29.0875C57.5308 13.5687 44.9482 0.959717 29.4619 0.959717Z" fill="#76C4EF"/>
<path opacity="0.054" d="M29.4616 56.1311C14.5446 56.1311 2.47445 44.0356 2.47445 29.0873C2.47445 14.1391 14.5446 2.04358 29.4616 2.04358C44.3785 2.04358 56.4487 14.1391 56.4487 29.0873C56.4487 44.0356 44.3785 56.1311 29.4616 56.1311ZM29.4616 1.0166C13.9753 1.0166 1.44962 13.5686 1.44962 29.0873C1.44962 44.6061 13.9753 57.1581 29.4616 57.1581C44.9479 57.1581 57.4735 44.6061 57.4735 29.0873C57.4735 13.5686 44.9479 1.0166 29.4616 1.0166Z" fill="#76C4EF"/>
<path opacity="0.036" d="M29.4616 56.1882C14.5446 56.1882 2.41751 44.0356 2.41751 29.0873C2.41751 14.1391 14.5446 1.98653 29.4616 1.98653C44.3785 1.98653 56.5057 14.1391 56.5057 29.0873C56.5057 44.0356 44.3785 56.1882 29.4616 56.1882ZM29.4616 1.0166C13.9753 1.0166 1.44962 13.5686 1.44962 29.0873C1.44962 44.6061 13.9753 57.1581 29.4616 57.1581C44.9479 57.1581 57.4735 44.6061 57.4735 29.0873C57.4735 13.5686 44.9479 1.0166 29.4616 1.0166Z" fill="#76C4EF"/>
<path opacity="0.018" d="M29.462 56.2453C14.4881 56.2453 2.36095 44.0927 2.36095 29.0874C2.36095 14.0821 14.4881 1.92955 29.462 1.92955C44.4358 1.92955 56.563 14.0821 56.563 29.0874C56.563 44.0927 44.4358 56.2453 29.462 56.2453ZM29.462 1.07373C14.0326 1.07373 1.50693 13.6257 1.50693 29.0874C1.50693 44.5491 14.0326 57.1011 29.462 57.1011C44.8913 57.1011 57.417 44.5491 57.417 29.0874C57.417 13.6257 44.8913 1.07373 29.462 1.07373Z" fill="#76C4EF"/>
<path d="M29.226 57.3141C44.4059 57.3141 56.7117 44.6757 56.7117 29.0855C56.7117 13.4953 44.4059 0.856934 29.226 0.856934C14.0461 0.856934 1.74028 13.4953 1.74028 29.0855C1.74028 44.6757 14.0461 57.3141 29.226 57.3141Z" fill="white" fill-opacity="0.7" stroke="#76C4EF" stroke-miterlimit="10"/>
</svg>
