<svg width="90" height="90" viewBox="0 0 90 90" fill="none" xmlns="http://www.w3.org/2000/svg">
<path d="M45.0004 0.118652C20.4484 0.118652 0.476562 20.0925 0.476562 44.6425C0.476562 69.1925 20.4484 89.1663 45.0004 89.1663C69.5523 89.1663 89.5242 69.1925 89.5242 44.6425C89.5242 20.0925 69.5523 0.118652 45.0004 0.118652ZM62.7005 46.2024L36.7283 62.8988C36.424 63.0962 36.0725 63.1941 35.7246 63.1941C35.4203 63.1941 35.1123 63.1179 34.8369 62.9677C34.239 62.6416 33.8694 62.0182 33.8694 61.3389V27.946C33.8694 27.2667 34.239 26.6434 34.8369 26.3173C35.4239 25.9948 36.1594 26.0146 36.7283 26.3861L62.7005 43.0826C63.2296 43.4231 63.552 44.012 63.552 44.6425C63.552 45.2729 63.2296 45.8616 62.7005 46.2024Z" fill="white"/>
</svg>
