<svg width="58" height="58" viewBox="0 0 58 58" fill="none" xmlns="http://www.w3.org/2000/svg">
<path d="M55.1936 9.35484H50.9034L52.113 8.14526C52.2438 8.01443 52.3329 7.84776 52.3689 7.66632C52.405 7.48488 52.3865 7.29682 52.3157 7.1259C52.2449 6.95499 52.125 6.8089 51.9712 6.70611C51.8174 6.60331 51.6366 6.54843 51.4516 6.54839H47.4075L45.7723 2.45939C45.703 2.28549 45.5832 2.13637 45.4282 2.03132C45.2733 1.92626 45.0904 1.87011 44.9032 1.87011C44.716 1.87011 44.5331 1.92626 44.3782 2.03132C44.2233 2.13637 44.1034 2.28549 44.0342 2.45939L42.3989 6.54839H38.3548C38.1698 6.54843 37.989 6.60331 37.8352 6.70611C37.6814 6.8089 37.5615 6.95499 37.4908 7.1259C37.42 7.29682 37.4014 7.48488 37.4375 7.66632C37.4736 7.84776 37.5627 8.01443 37.6935 8.14526L38.903 9.35484H36.4792C36.4644 7.75956 36.0326 6.1959 35.2267 4.81908C34.4207 3.44225 33.2687 2.30014 31.885 1.50613C30.1566 0.520033 28.2012 0.000962663 26.2113 0H24.3048C22.3149 0.000962663 20.3595 0.520033 18.6311 1.50613C17.2474 2.30014 16.0954 3.44225 15.2895 4.81908C14.4836 6.1959 14.0518 7.75956 14.0369 9.35484H2.80645C2.06213 9.35484 1.3483 9.65052 0.821991 10.1768C0.295679 10.7031 0 11.417 0 12.1613V43.9677C0 44.7121 0.295679 45.4259 0.821991 45.9522C1.3483 46.4785 2.06213 46.7742 2.80645 46.7742H21.1756C19.7951 48.3418 18.9477 50.3071 18.7555 52.3871H17.7742C17.0299 52.3871 16.316 52.6828 15.7897 53.2091C15.2634 53.7354 14.9677 54.4492 14.9677 55.1936C14.9677 55.9379 15.2634 56.6517 15.7897 57.178C16.316 57.7043 17.0299 58 17.7742 58H40.2258C40.9701 58 41.684 57.7043 42.2103 57.178C42.7366 56.6517 43.0323 55.9379 43.0323 55.1936C43.0323 54.4492 42.7366 53.7354 42.2103 53.2091C41.684 52.6828 40.9701 52.3871 40.2258 52.3871H39.2445C39.0523 50.3071 38.2049 48.3418 36.8244 46.7742H55.1936C55.9379 46.7742 56.6517 46.4785 57.178 45.9522C57.7043 45.4259 58 44.7121 58 43.9677V12.1613C58 11.417 57.7043 10.7031 57.178 10.1768C56.6517 9.65052 55.9379 9.35484 55.1936 9.35484ZM55.1936 11.2258C55.4417 11.2258 55.6796 11.3244 55.855 11.4998C56.0305 11.6752 56.129 11.9132 56.129 12.1613V37.4194H54.2581V14.0323C54.2581 13.7842 54.1595 13.5462 53.9841 13.3708C53.8086 13.1953 53.5707 13.0968 53.3226 13.0968H49.4656L48.8107 11.4513L49.0325 11.2258H55.1936ZM15.9032 14.9677L16.8555 16.2372C16.9165 17.7442 17.3813 19.2072 18.2011 20.4732C19.021 21.7392 20.1659 22.7617 21.5161 23.4339V25.6641L17.4 28.1337L12.4419 29.5519C11.0139 29.9587 9.75742 30.8199 8.86275 32.0049C7.96808 33.1899 7.48401 34.6342 7.48387 36.119V37.4194H5.6129V14.9677H15.9032ZM22.4254 27.3002L23.7894 28.2095L21.4282 30.5716L19.4487 29.087L22.4254 27.3002ZM28.0907 27.3002L31.0674 29.087L29.0879 30.5716L26.7268 28.2095L28.0907 27.3002ZM27.129 25.6931L25.2581 26.9419L23.3871 25.6949V24.1046C24.6176 24.394 25.8985 24.394 27.129 24.1046V25.6931ZM25.2581 22.4516C23.5219 22.4496 21.8575 21.7591 20.6298 20.5314C19.4022 19.3038 18.7117 17.6394 18.7097 15.9032V14.0323C18.7097 13.2879 19.0054 12.5741 19.5317 12.0478C20.058 11.5215 20.7718 11.2258 21.5161 11.2258H24.0111C26.2368 11.2211 28.4018 10.4994 30.1853 9.16774L30.6408 8.82629L31.0206 9.39506C31.5335 10.1629 31.807 11.0657 31.8065 11.9892V15.9032C31.8045 17.6394 31.1139 19.3038 29.8863 20.5314C28.6587 21.7591 26.9942 22.4496 25.2581 22.4516ZM9.35484 36.119C9.3541 35.0408 9.70484 33.9918 10.3539 33.1309C11.003 32.2699 11.915 31.6441 12.9518 31.3481L17.5871 30.029L20.9548 32.5548C21.135 32.6899 21.3578 32.7555 21.5824 32.7395C21.807 32.7235 22.0183 32.6271 22.1775 32.4678L24.3226 30.3228V37.4194H9.35484V36.119ZM26.1935 30.319L28.3386 32.4641C28.4974 32.6239 28.7084 32.721 28.933 32.7377C29.1576 32.7544 29.3807 32.6894 29.5613 32.5548L32.929 30.029L37.5634 31.3537C38.5994 31.6492 39.511 32.2742 40.1602 33.134C40.8093 33.9938 41.1608 35.0417 41.1613 36.119V37.4194H26.1935V30.319ZM46.8406 26.5369L47.6825 28.6361L45.3869 27.2591C45.2414 27.1716 45.0748 27.1255 44.9051 27.1255C44.7354 27.1255 44.5688 27.1716 44.4233 27.2591L42.1276 28.6361L42.9696 26.5369C43.0374 26.3669 43.0539 26.1808 43.017 26.0015C42.98 25.8223 42.8914 25.6578 42.7619 25.5284L40.6131 23.3871H43.0323C43.2193 23.3872 43.4022 23.3311 43.5571 23.2262C43.712 23.1214 43.8319 22.9724 43.9013 22.7987L44.9032 20.2925L45.9051 22.7987C45.9745 22.9724 46.0944 23.1214 46.2494 23.2262C46.4043 23.3311 46.5871 23.3872 46.7742 23.3871H49.1934L47.0483 25.5322C46.9188 25.6615 46.8301 25.826 46.7932 26.0052C46.7563 26.1845 46.7728 26.3706 46.8406 26.5406V26.5369ZM41.1426 31.4117L44.9032 29.1553L49.0989 31.6727C49.2667 31.7736 49.4621 31.8193 49.6573 31.8034C49.8525 31.7874 50.0378 31.7105 50.187 31.5836C50.3363 31.4567 50.4419 31.2862 50.489 31.0961C50.5361 30.9059 50.5224 30.7058 50.4497 30.5239L48.807 26.419L52.113 23.113C52.2438 22.9822 52.3329 22.8155 52.3689 22.6341C52.405 22.4526 52.3865 22.2646 52.3157 22.0936C52.2449 21.9227 52.125 21.7766 51.9712 21.6738C51.8174 21.5711 51.6366 21.5162 51.4516 21.5161H47.4075L45.7723 17.4271C45.703 17.2532 45.5832 17.1041 45.4282 16.9991C45.2733 16.894 45.0904 16.8379 44.9032 16.8379C44.716 16.8379 44.5331 16.894 44.3782 16.9991C44.2233 17.1041 44.1034 17.2532 44.0342 17.4271L42.3989 21.5161H38.3548C38.1698 21.5162 37.989 21.5711 37.8352 21.6738C37.6814 21.7766 37.5615 21.9227 37.4908 22.0936C37.42 22.2646 37.4014 22.4526 37.4375 22.6341C37.4736 22.8155 37.5627 22.9822 37.6935 23.113L40.9995 26.419L39.5027 30.1516C39.0514 29.8983 38.5728 29.6971 38.0761 29.5519L33.118 28.1337L29 25.6641V23.4339C30.3502 22.7617 31.4951 21.7392 32.315 20.4732C33.1349 19.2072 33.5996 17.7442 33.6606 16.2372L34.6129 14.9677H39.5925L39.3567 15.5562C39.2841 15.7381 39.2703 15.9382 39.3174 16.1283C39.3646 16.3185 39.4702 16.489 39.6194 16.6159C39.7686 16.7428 39.9539 16.8197 40.1492 16.8356C40.3444 16.8516 40.5397 16.8059 40.7076 16.7049L44.9032 14.1875L49.0989 16.7049C49.2667 16.8059 49.4621 16.8516 49.6573 16.8356C49.8525 16.8197 50.0378 16.7428 50.187 16.6159C50.3363 16.489 50.4419 16.3185 50.489 16.1283C50.5361 15.9382 50.5224 15.7381 50.4497 15.5562L50.214 14.9677H52.3871V37.4194H43.0323V36.119C43.0354 34.3645 42.358 32.677 41.1426 31.4117ZM43.0323 8.41935C43.2193 8.41942 43.4022 8.36339 43.5571 8.2585C43.712 8.15361 43.8319 8.00467 43.9013 7.83094L44.9032 5.32477L45.9051 7.83094C45.9745 8.00467 46.0944 8.15361 46.2494 8.2585C46.4043 8.36339 46.5871 8.41942 46.7742 8.41935H49.1934L47.0483 10.5644C46.9188 10.6938 46.8301 10.8583 46.7932 11.0375C46.7563 11.2168 46.7728 11.4029 46.8406 11.5729L47.6825 13.6721L45.3869 12.2951C45.2414 12.2076 45.0748 12.1615 44.9051 12.1615C44.7354 12.1615 44.5688 12.2076 44.4233 12.2951L42.1276 13.6721L42.9696 11.5729C43.0374 11.4029 43.0539 11.2168 43.017 11.0375C42.98 10.8583 42.8914 10.6938 42.7619 10.5644L40.6131 8.41935H43.0323ZM40.9995 11.4513L40.3409 13.0968H35.7084C35.9701 12.4958 36.167 11.8686 36.2958 11.2258H40.774L40.9995 11.4513ZM19.5591 3.13106C21.0047 2.30606 22.6403 1.87177 24.3048 1.87097H26.2113C27.8758 1.87177 29.5114 2.30606 30.957 3.13106C32.6206 4.07574 33.8414 5.64189 34.3514 7.48575C34.8615 9.32961 34.6191 11.3005 33.6774 12.9658V11.9892C33.6785 10.6964 33.2956 9.43244 32.5773 8.35761L31.6493 6.96468C31.5787 6.85885 31.4873 6.76854 31.3806 6.69925C31.2739 6.62997 31.1542 6.58317 31.0288 6.56172C30.9034 6.54026 30.775 6.54461 30.6513 6.57449C30.5277 6.60436 30.4114 6.65915 30.3097 6.73548L29.0617 7.67097C27.6026 8.7605 25.8312 9.35095 24.0101 9.35484H21.5161C20.4358 9.35664 19.3893 9.73183 18.5539 10.4168C17.7186 11.1019 17.1456 12.0546 16.9323 13.1136C16.4371 12.2889 16.1121 11.3734 15.9762 10.4211C15.8404 9.46875 15.8965 8.49887 16.1413 7.56859C16.3861 6.63831 16.8146 5.76642 17.4016 5.00431C17.9886 4.2422 18.7222 3.60528 19.5591 3.13106ZM2.80645 11.2258H14.2194C14.3481 11.8686 14.5451 12.4958 14.8068 13.0968H4.67742C4.42931 13.0968 4.19137 13.1953 4.01593 13.3708C3.8405 13.5462 3.74194 13.7842 3.74194 14.0323V37.4194H1.87097V12.1613C1.87097 11.9132 1.96953 11.6752 2.14496 11.4998C2.3204 11.3244 2.55835 11.2258 2.80645 11.2258ZM41.1613 55.1936C41.1613 55.4417 41.0627 55.6796 40.8873 55.855C40.7119 56.0305 40.4739 56.129 40.2258 56.129H17.7742C17.5261 56.129 17.2881 56.0305 17.1127 55.855C16.9373 55.6796 16.8387 55.4417 16.8387 55.1936C16.8387 54.9454 16.9373 54.7075 17.1127 54.5321C17.2881 54.3566 17.5261 54.2581 17.7742 54.2581H40.2258C40.4739 54.2581 40.7119 54.3566 40.8873 54.5321C41.0627 54.7075 41.1613 54.9454 41.1613 55.1936ZM35.047 47.5965C36.3403 48.8839 37.1563 50.5737 37.3604 52.3871H20.6396C20.8437 50.5737 21.6597 48.8839 22.953 47.5965L23.7744 46.7742H34.2256L35.047 47.5965ZM55.1936 44.9032H2.80645C2.55835 44.9032 2.3204 44.8047 2.14496 44.6292C1.96953 44.4538 1.87097 44.2158 1.87097 43.9677V39.2903H56.129V43.9677C56.129 44.2158 56.0305 44.4538 55.855 44.6292C55.6796 44.8047 55.4417 44.9032 55.1936 44.9032Z" fill="#76C4EF"/>
<path d="M29 43.9677C30.0333 43.9677 30.871 43.1301 30.871 42.0968C30.871 41.0635 30.0333 40.2258 29 40.2258C27.9667 40.2258 27.129 41.0635 27.129 42.0968C27.129 43.1301 27.9667 43.9677 29 43.9677Z" fill="#76C4EF"/>
</svg>
