<svg width="58" height="58" viewBox="0 0 58 58" fill="none" xmlns="http://www.w3.org/2000/svg">
<path d="M52.3334 45.0981C53.4792 43.5227 54.1001 41.6268 54.1083 39.679C54.1207 39.4229 54.0307 39.1723 53.8583 38.9825C53.6859 38.7927 53.4451 38.6792 53.189 38.6669C52.6577 38.6471 52.208 39.0555 52.1768 39.5862C52.1841 41.13 51.7085 42.6374 50.8166 43.8975C48.9306 46.2793 45.3518 46.4001 44.6528 46.4001C44.1189 46.4001 43.6861 46.8329 43.6861 47.3668C43.6861 47.9007 44.1189 48.3335 44.6528 48.3335C45.5074 48.3335 49.8934 48.1778 52.3334 45.0981Z" fill="#76C4EF"/>
<path d="M32.8685 32.867C32.8685 32.3331 32.4357 31.9003 31.9018 31.9003C31.3679 31.9003 30.9351 32.3331 30.9351 32.867C30.9351 35.0025 32.6663 36.7336 34.8019 36.7336V37.7003C34.8019 38.2341 35.2347 38.6669 35.7687 38.6669C36.3026 38.6669 36.7354 38.2341 36.7354 37.7003V36.7336C38.871 36.7336 40.6023 35.0025 40.6023 32.867C40.6023 30.7315 38.871 29.0004 36.7354 29.0004V25.1337C37.8032 25.1337 38.6688 25.9993 38.6688 27.0671C38.6688 27.6009 39.1016 28.0337 39.6355 28.0337C40.1694 28.0337 40.6023 27.6009 40.6023 27.0671C40.6023 24.9316 38.871 23.2004 36.7354 23.2004V22.2338C36.7354 21.6999 36.3026 21.2671 35.7687 21.2671C35.2347 21.2671 34.8019 21.6999 34.8019 22.2338V23.2004C32.6663 23.2004 30.9351 24.9316 30.9351 27.0671C30.9351 29.2025 32.6663 30.9337 34.8019 30.9337V34.8003C33.7341 34.8003 32.8685 33.9347 32.8685 32.867ZM32.8685 27.0671C32.8685 25.9993 33.7341 25.1337 34.8019 25.1337V29.0004C33.7341 29.0004 32.8685 28.1348 32.8685 27.0671ZM36.7354 30.9337C37.8032 30.9337 38.6688 31.7992 38.6688 32.867C38.6688 33.9347 37.8032 34.8003 36.7354 34.8003V30.9337Z" fill="#76C4EF"/>
<path d="M57.195 32.6456C54.8131 22.5238 49.5174 16.6591 45.693 13.5958C50.4889 13.9573 52.0328 15.9525 52.0782 16.0124C52.3811 16.4447 52.9748 16.5542 53.4119 16.2583C53.849 15.9624 53.968 15.3706 53.6791 14.9288C53.6095 14.8244 52.2667 12.9065 48.3621 12.0288C49.3605 11.2081 49.9512 9.99268 49.9795 8.70061C49.8502 6.55845 48.3588 4.74194 46.2827 4.19794C46.3678 3.49968 46.4111 2.79695 46.4122 2.09353C46.4112 1.44548 46.0855 0.841061 45.5449 0.483746C45.0042 0.126431 44.3204 0.0637542 43.7238 0.316817C43.2357 0.537771 42.7824 0.828557 42.3781 1.18004C41.9037 1.66754 41.2506 1.93994 40.5704 1.93403C39.8912 1.93881 39.2394 1.66653 38.7655 1.18004C37.0618 -0.393347 34.4349 -0.393347 32.7312 1.18004C32.2567 1.66861 31.6026 1.94115 30.9215 1.93403C30.2425 1.93967 29.5907 1.66724 29.1176 1.18004C28.7144 0.829312 28.2624 0.538875 27.7758 0.317784C27.1796 0.0664169 26.4971 0.129949 25.9575 0.487052C25.418 0.844156 25.0928 1.44748 25.0912 2.09449C25.0912 4.49953 25.5669 8.78955 28.5782 11.6702C26.9956 12.6324 25.5176 13.7569 24.168 15.0254V7.73396C24.168 5.52999 21.0503 3.86734 16.9176 3.86734C12.7849 3.86734 9.6672 5.52999 9.6672 7.73396V17.473C6.27692 17.8113 3.86688 19.3338 3.86688 21.2671V45.854C1.53129 46.4813 0 47.7535 0 49.3001V54.1334C0 56.3374 3.11767 58 7.2504 58C10.9462 58 13.8241 56.6689 14.3916 54.81C16.0603 55.6935 17.9305 56.1267 19.8178 56.0667C23.9505 56.0667 27.0682 54.404 27.0682 52.2001V39.6336C27.0682 37.4296 23.9505 35.7669 19.8178 35.7669C19.3335 35.7666 18.8495 35.7908 18.3677 35.8394V21.2671C18.3677 19.1501 15.4898 17.5378 11.6006 17.4131V10.4106C13.2453 11.2465 15.0736 11.6557 16.9176 11.6006C18.7616 11.6557 20.59 11.2465 22.2346 10.4106V17.0032C21.5975 17.7156 20.9575 18.4919 20.3263 19.3522C20.0372 19.7826 20.1392 20.3644 20.5575 20.6709C20.9758 20.9773 21.5613 20.8992 21.8846 20.4938C22.5055 19.6533 23.1709 18.8466 23.878 18.0772C23.8857 18.0685 23.8925 18.0598 23.9002 18.052C25.7456 16.0013 27.9127 14.2647 30.3164 12.9104C30.7902 13.139 31.2916 13.3056 31.808 13.4063L29.3158 15.7321C28.9255 16.0967 28.9047 16.7087 29.2694 17.0989C29.6341 17.4892 30.2461 17.5099 30.6363 17.1453L34.5032 13.5387H34.8116V16.4387C34.8116 16.9725 35.2444 17.4053 35.7783 17.4053C36.3122 17.4053 36.745 16.9725 36.745 16.4387V13.5339H37.0534L40.9203 17.1405C41.1728 17.3764 41.5319 17.4596 41.8624 17.3589C42.193 17.2582 42.4447 16.9889 42.5227 16.6523C42.6008 16.3157 42.4933 15.9631 42.2408 15.7272L39.7322 13.3918C40.2455 13.2902 40.7436 13.1229 41.2142 12.894C43.7692 14.2763 52.1681 19.7379 55.3138 33.0883C56.6817 38.8999 56.1887 43.3455 53.8492 46.2986C50.8563 50.0734 45.663 50.2668 44.6528 50.2668H30.9351C30.4011 50.2668 29.9683 50.6996 29.9683 51.2334C29.9683 51.7673 30.4011 52.2001 30.9351 52.2001H44.6528C46.2962 52.2001 51.9081 51.8608 55.3641 47.4992C58.0883 44.0589 58.7051 39.0613 57.195 32.6456ZM7.2504 47.3668C10.4473 47.3668 12.5674 48.5268 12.5674 49.3001C12.5674 50.0734 10.4473 51.2334 7.2504 51.2334C4.05346 51.2334 1.93344 50.0734 1.93344 49.3001C1.93344 48.5268 4.05346 47.3668 7.2504 47.3668ZM7.2504 56.0667C4.05346 56.0667 1.93344 54.9067 1.93344 54.1334V51.9768C3.57805 52.8126 5.40637 53.2218 7.2504 53.1667C9.09444 53.2218 10.9228 52.8126 12.5674 51.9768V54.1334C12.5674 54.9067 10.4473 56.0667 7.2504 56.0667ZM19.8178 54.1334C16.6208 54.1334 14.5008 52.9734 14.5008 52.2001V42.3102C16.1454 43.1461 17.9737 43.5553 19.8178 43.5002C21.6618 43.5553 23.4901 43.1461 25.1347 42.3102V52.2001C25.1347 52.9734 23.0147 54.1334 19.8178 54.1334ZM25.1347 39.6336C25.1347 40.4069 23.0147 41.5669 19.8178 41.5669C16.6208 41.5669 14.5008 40.4069 14.5008 39.6336C14.5008 38.8602 16.6208 37.7003 19.8178 37.7003C23.0147 37.7003 25.1347 38.8602 25.1347 39.6336ZM12.5674 39.6336V46.6234C10.9228 45.7876 9.09444 45.3784 7.2504 45.4335C6.76613 45.4332 6.28215 45.4574 5.80032 45.506V23.9438C7.44494 24.7796 9.27325 25.1888 11.1173 25.1337C12.9613 25.1888 14.7896 24.7796 16.4342 23.9438V36.1874C14.0987 36.8148 12.5674 38.0869 12.5674 39.6336ZM16.4342 21.2671C16.4342 22.0404 14.3142 23.2004 11.1173 23.2004C7.92034 23.2004 5.80032 22.0404 5.80032 21.2671C5.80032 20.4938 7.92034 19.3338 11.1173 19.3338C14.3142 19.3338 16.4342 20.4938 16.4342 21.2671ZM16.9176 9.66727C13.7207 9.66727 11.6006 8.50728 11.6006 7.73396C11.6006 6.96063 13.7207 5.80065 16.9176 5.80065C20.1146 5.80065 22.2346 6.96063 22.2346 7.73396C22.2346 8.50728 20.1146 9.66727 16.9176 9.66727ZM48.046 8.70061C48.046 10.285 46.3301 11.5851 44.1791 11.6006C43.8193 11.5983 43.4609 11.5571 43.1099 11.4778C44.513 9.981 45.4883 8.13481 45.9337 6.13221C47.0974 6.47505 47.9343 7.49274 48.046 8.70061ZM27.9073 2.68802C28.7237 3.45297 29.8027 3.87515 30.9215 3.86734C32.041 3.87574 33.1208 3.45352 33.9377 2.68802C34.4155 2.2056 35.0664 1.93419 35.7455 1.93419C36.4245 1.93419 37.0754 2.2056 37.5532 2.68802C38.3701 3.45409 39.4505 3.87639 40.5704 3.86734C41.6902 3.87599 42.7704 3.45375 43.5875 2.68802C43.8554 2.45126 44.1535 2.25104 44.474 2.09256C44.474 3.88764 44.1405 8.32555 41.0257 10.7586C40.3249 11.2849 39.4755 11.5756 38.5992 11.589C39.4361 10.1517 40.0985 8.61965 40.5723 7.0254C40.6649 6.69248 40.5728 6.33547 40.3307 6.08886C40.0886 5.84224 39.7334 5.74349 39.3988 5.82979C39.0642 5.9161 38.801 6.17435 38.7085 6.50727C38.173 8.32436 37.3499 10.0439 36.2704 11.6006H35.2766C34.1992 10.0425 33.3759 8.32339 32.8376 6.50727C32.6942 5.99289 32.161 5.6921 31.6466 5.83545C31.1321 5.97879 30.8313 6.51198 30.9747 7.02637C31.449 8.62199 32.112 10.1553 32.9497 11.5938C32.0559 11.5892 31.1874 11.2967 30.473 10.7596C27.3582 8.32748 27.0247 3.88957 27.0247 2.10029C27.345 2.25377 27.6422 2.45163 27.9073 2.68802Z" fill="#76C4EF"/>
<path d="M52.3334 45.0981C53.4792 43.5227 54.1001 41.6268 54.1083 39.679C54.1207 39.4229 54.0307 39.1723 53.8583 38.9825C53.6859 38.7927 53.4451 38.6792 53.189 38.6669C52.6581 38.6481 52.209 39.056 52.1768 39.5862C52.1841 41.13 51.7085 42.6374 50.8166 43.8975C48.9306 46.2793 45.3518 46.4001 44.6528 46.4001C44.1189 46.4001 43.6861 46.8329 43.6861 47.3668C43.6861 47.9007 44.1189 48.3335 44.6528 48.3335C45.5074 48.3335 49.8934 48.1778 52.3334 45.0981Z" fill="#76C4EF"/>
</svg>
