<svg width="108" height="110" viewBox="0 0 108 110" fill="none" xmlns="http://www.w3.org/2000/svg">
<path d="M8.66256 66.7993C7.28446 68.6212 7.05478 71.1265 8.20319 73.0623C9.46644 75.3398 12.2226 76.3647 14.7491 76.4785C15.8975 76.5924 17.1608 76.4785 18.0795 75.9092C19.1131 75.112 19.5724 73.7456 19.917 72.493C20.2615 71.2403 20.4912 69.9877 20.2615 68.7351C19.917 67.5964 19.1131 66.5715 18.0795 65.7744C16.7014 64.7495 14.864 63.7247 13.1414 64.0663C11.3039 64.4079 9.69612 65.3189 8.66256 66.7993Z" fill="#76C4EF"/>
<path d="M84.3428 83.6526C81.7014 84.3358 79.864 86.9549 79.864 89.6879C79.864 92.4208 81.4717 94.9261 83.6537 96.4064C87.788 99.1394 94.2191 98.1145 96.9753 94.0151C99.7314 89.9156 98.2385 83.4248 93.7597 81.2612C89.2809 78.9837 82.9647 81.8306 81.9311 86.7272" fill="#76C4EF"/>
<path d="M43.689 11.4567C38.9806 6.90173 34.0424 1.89129 27.6113 0.410935C20.2615 -1.29717 12.1078 2.46066 8.7774 9.06533C5.33217 15.67 7.05478 24.4383 12.5671 29.221C17.0459 33.2065 23.2474 34.4592 28.9894 36.395C34.6166 38.4447 40.5883 41.9748 41.8516 47.7824C42.7703 51.7679 41.2774 55.8674 39.3251 59.3975C37.3728 62.9276 34.7315 66.2299 33.2385 69.8739C29.5636 78.4144 31.9753 89.2324 39.0954 95.2677C46.2155 101.303 57.6996 101.645 65.0495 95.837C72.3993 90.0295 74.3516 78.4144 69.0689 70.7848C67.576 68.5074 65.5088 66.6854 63.9011 64.5218C62.2933 62.3582 61.03 59.7391 61.4894 57.0061C62.1784 52.4512 67.2314 49.946 71.8251 49.4905C76.4187 49.1488 81.0124 50.1737 85.606 49.4905C94.7933 48.124 102.028 38.6725 100.88 29.4487C99.7314 20.2249 90.4293 12.8232 81.1272 13.7342C73.7774 14.4174 67.6908 20.2249 60.4558 20.7943C54.0247 21.5914 47.8233 15.4423 43.689 11.4567Z" fill="#76C4EF"/>
<g filter="url(#filter0_d_455_11)">
<path d="M54 90C72.7777 90 88 75.2254 88 57C88 38.7746 72.7777 24 54 24C35.2223 24 20 38.7746 20 57C20 75.2254 35.2223 90 54 90Z" fill="white"/>
</g>
<path fill-rule="evenodd" clip-rule="evenodd" d="M46.0833 39.625C45.2089 39.625 44.5 40.3525 44.5 41.25V42.875H42.9167C40.2933 42.875 38.1667 45.0576 38.1667 47.75V70.5C38.1667 73.1924 40.2933 75.375 42.9167 75.375H65.0833C67.7067 75.375 69.8333 73.1924 69.8333 70.5V47.75C69.8333 45.0576 67.7067 42.875 65.0833 42.875H63.5V41.25C63.5 40.3525 62.7911 39.625 61.9167 39.625C61.0422 39.625 60.3333 40.3525 60.3333 41.25V42.875H47.6667V41.25C47.6667 40.3525 46.9578 39.625 46.0833 39.625ZM60.3333 47.75V46.125H47.6667V47.75C47.6667 48.6475 46.9578 49.375 46.0833 49.375C45.2089 49.375 44.5 48.6475 44.5 47.75V46.125H42.9167C42.0422 46.125 41.3333 46.8525 41.3333 47.75V52.625H66.6667V47.75C66.6667 46.8525 65.9578 46.125 65.0833 46.125H63.5V47.75C63.5 48.6475 62.7911 49.375 61.9167 49.375C61.0422 49.375 60.3333 48.6475 60.3333 47.75ZM41.3333 62.375V55.875H47.6667V62.375H41.3333ZM41.3333 65.625V70.5C41.3333 71.3975 42.0422 72.125 42.9167 72.125H47.6667V65.625H41.3333ZM50.8333 65.625V72.125H57.1667V65.625H50.8333ZM60.3333 65.625V72.125H65.0833C65.9578 72.125 66.6667 71.3975 66.6667 70.5V65.625H60.3333ZM66.6667 62.375H60.3333V55.875H66.6667V62.375ZM57.1667 62.375H50.8333V55.875H57.1667V62.375Z" fill="#76C4EF"/>
<defs>
<filter id="filter0_d_455_11" x="0" y="4" width="108" height="106" filterUnits="userSpaceOnUse" color-interpolation-filters="sRGB">
<feFlood flood-opacity="0" result="BackgroundImageFix"/>
<feColorMatrix in="SourceAlpha" type="matrix" values="0 0 0 0 0 0 0 0 0 0 0 0 0 0 0 0 0 0 127 0" result="hardAlpha"/>
<feOffset/>
<feGaussianBlur stdDeviation="10"/>
<feComposite in2="hardAlpha" operator="out"/>
<feColorMatrix type="matrix" values="0 0 0 0 0.0196078 0 0 0 0 0.133333 0 0 0 0 0.239216 0 0 0 0.2 0"/>
<feBlend mode="normal" in2="BackgroundImageFix" result="effect1_dropShadow_455_11"/>
<feBlend mode="normal" in="SourceGraphic" in2="effect1_dropShadow_455_11" result="shape"/>
</filter>
</defs>
</svg>
