<svg width="94" height="100" viewBox="0 0 94 100" fill="none" xmlns="http://www.w3.org/2000/svg">
<path d="M1.66256 66.7993C0.284464 68.6212 0.0547813 71.1265 1.20319 73.0623C2.46644 75.3398 5.22262 76.3647 7.74913 76.4785C8.89754 76.5924 10.1608 76.4785 11.0795 75.9092C12.1131 75.112 12.5724 73.7456 12.917 72.493C13.2615 71.2403 13.4912 69.9877 13.2615 68.7351C12.917 67.5964 12.1131 66.5715 11.0795 65.7744C9.70142 64.7495 7.86397 63.7247 6.14135 64.0663C4.3039 64.4079 2.69612 65.3189 1.66256 66.7993Z" fill="#76C4EF"/>
<path d="M77.3428 83.6526C74.7014 84.3358 72.864 86.9549 72.864 89.6879C72.864 92.4208 74.4717 94.9261 76.6537 96.4064C80.788 99.1394 87.2191 98.1145 89.9753 94.0151C92.7314 89.9156 91.2385 83.4248 86.7597 81.2612C82.2809 78.9837 75.9647 81.8306 74.9311 86.7272" fill="#76C4EF"/>
<path d="M36.689 11.4567C31.9806 6.90173 27.0424 1.89129 20.6113 0.410935C13.2615 -1.29717 5.10778 2.46066 1.7774 9.06533C-1.66783 15.67 0.0547813 24.4383 5.56715 29.221C10.0459 33.2065 16.2474 34.4592 21.9894 36.395C27.6166 38.4447 33.5883 41.9748 34.8516 47.7824C35.7703 51.7679 34.2774 55.8674 32.3251 59.3975C30.3728 62.9276 27.7315 66.2299 26.2385 69.8739C22.5636 78.4144 24.9753 89.2324 32.0954 95.2677C39.2155 101.303 50.6996 101.645 58.0495 95.837C65.3993 90.0295 67.3516 78.4144 62.0689 70.7848C60.576 68.5074 58.5088 66.6854 56.9011 64.5218C55.2933 62.3582 54.03 59.7391 54.4894 57.0061C55.1784 52.4512 60.2314 49.946 64.8251 49.4905C69.4187 49.1488 74.0124 50.1737 78.606 49.4905C87.7933 48.124 95.0283 38.6725 93.8799 29.4487C92.7314 20.2249 83.4293 12.8232 74.1272 13.7342C66.7774 14.4174 60.6908 20.2249 53.4558 20.7943C47.0247 21.5914 40.8233 15.4423 36.689 11.4567Z" fill="#76C4EF"/>
</svg>
