<svg width="32" height="37" viewBox="0 0 32 37" fill="none" xmlns="http://www.w3.org/2000/svg">
<path fill-rule="evenodd" clip-rule="evenodd" d="M8.08332 0.625C7.20887 0.625 6.49999 1.35254 6.49999 2.25V3.875H4.91666C2.29331 3.875 0.166656 6.05761 0.166656 8.75V31.5C0.166656 34.1924 2.2933 36.375 4.91666 36.375H27.0833C29.7067 36.375 31.8333 34.1924 31.8333 31.5V8.75C31.8333 6.05761 29.7067 3.875 27.0833 3.875H25.5V2.25C25.5 1.35254 24.7911 0.625 23.9167 0.625C23.0422 0.625 22.3333 1.35254 22.3333 2.25V3.875H9.66666V2.25C9.66666 1.35254 8.95778 0.625 8.08332 0.625ZM22.3333 8.75V7.125H9.66666V8.75C9.66666 9.64746 8.95778 10.375 8.08332 10.375C7.20887 10.375 6.49999 9.64746 6.49999 8.75V7.125H4.91666C4.04221 7.125 3.33332 7.85254 3.33332 8.75V13.625H28.6667V8.75C28.6667 7.85254 27.9578 7.125 27.0833 7.125H25.5V8.75C25.5 9.64746 24.7911 10.375 23.9167 10.375C23.0422 10.375 22.3333 9.64746 22.3333 8.75ZM3.33332 23.375V16.875H9.66666V23.375H3.33332ZM3.33332 26.625V31.5C3.33332 32.3975 4.04221 33.125 4.91666 33.125H9.66666V26.625H3.33332ZM12.8333 26.625V33.125H19.1667V26.625H12.8333ZM22.3333 26.625V33.125H27.0833C27.9578 33.125 28.6667 32.3975 28.6667 31.5V26.625H22.3333ZM28.6667 23.375H22.3333V16.875H28.6667V23.375ZM19.1667 23.375H12.8333V16.875H19.1667V23.375Z" fill="#76C4EF"/>
</svg>
