<svg width="36" height="31" viewBox="0 0 36 31" fill="none" xmlns="http://www.w3.org/2000/svg">
<path fill-rule="evenodd" clip-rule="evenodd" d="M27.5 0.875C30.1234 0.875 32.25 3.05761 32.25 5.75V20.375H33.8333C34.7078 20.375 35.4167 21.1025 35.4167 22V25.25C35.4167 27.9424 33.29 30.125 30.6667 30.125H5.33333C2.70998 30.125 0.583328 27.9424 0.583328 25.25V22C0.583328 21.1025 1.29221 20.375 2.16666 20.375H3.75V5.75C3.75 3.05761 5.87664 0.875 8.5 0.875H27.5ZM6.91666 20.375H29.0833V5.75C29.0833 4.85254 28.3744 4.125 27.5 4.125H8.5C7.62554 4.125 6.91666 4.85254 6.91666 5.75V20.375ZM32.25 23.625H3.75V25.25C3.75 26.1475 4.45888 26.875 5.33333 26.875H30.6667C31.5411 26.875 32.25 26.1475 32.25 25.25V23.625Z" fill="#76C4EF"/>
</svg>
