<svg width="108" height="110" viewBox="0 0 108 110" fill="none" xmlns="http://www.w3.org/2000/svg">
<path d="M8.66256 66.7993C7.28446 68.6212 7.05478 71.1265 8.20319 73.0623C9.46644 75.3398 12.2226 76.3647 14.7491 76.4785C15.8975 76.5924 17.1608 76.4785 18.0795 75.9092C19.1131 75.112 19.5724 73.7456 19.917 72.493C20.2615 71.2403 20.4912 69.9877 20.2615 68.7351C19.917 67.5964 19.1131 66.5715 18.0795 65.7744C16.7014 64.7495 14.864 63.7247 13.1414 64.0663C11.3039 64.4079 9.69612 65.3189 8.66256 66.7993Z" fill="#76C4EF"/>
<path d="M84.3428 83.6526C81.7014 84.3358 79.864 86.9549 79.864 89.6879C79.864 92.4208 81.4717 94.9261 83.6537 96.4064C87.788 99.1394 94.2191 98.1145 96.9753 94.0151C99.7314 89.9156 98.2385 83.4248 93.7597 81.2612C89.2809 78.9837 82.9647 81.8306 81.9311 86.7272" fill="#76C4EF"/>
<path d="M43.689 11.4567C38.9806 6.90173 34.0424 1.89129 27.6113 0.410935C20.2615 -1.29717 12.1078 2.46066 8.7774 9.06533C5.33217 15.67 7.05478 24.4383 12.5671 29.221C17.0459 33.2065 23.2474 34.4592 28.9894 36.395C34.6166 38.4447 40.5883 41.9748 41.8516 47.7824C42.7703 51.7679 41.2774 55.8674 39.3251 59.3975C37.3728 62.9276 34.7315 66.2299 33.2385 69.8739C29.5636 78.4144 31.9753 89.2324 39.0954 95.2677C46.2155 101.303 57.6997 101.645 65.0495 95.837C72.3993 90.0295 74.3516 78.4144 69.0689 70.7848C67.576 68.5074 65.5088 66.6854 63.9011 64.5218C62.2933 62.3582 61.03 59.7391 61.4894 57.0061C62.1784 52.4512 67.2314 49.946 71.8251 49.4905C76.4187 49.1488 81.0124 50.1737 85.606 49.4905C94.7933 48.124 102.028 38.6725 100.88 29.4487C99.7315 20.2249 90.4293 12.8232 81.1272 13.7342C73.7774 14.4174 67.6908 20.2249 60.4558 20.7943C54.0247 21.5914 47.8233 15.4423 43.689 11.4567Z" fill="#76C4EF"/>
<g filter="url(#filter0_d_455_10)">
<path d="M54 90C72.7777 90 88 75.2254 88 57C88 38.7746 72.7777 24 54 24C35.2223 24 20 38.7746 20 57C20 75.2254 35.2223 90 54 90Z" fill="white"/>
</g>
<path fill-rule="evenodd" clip-rule="evenodd" d="M63.5 42.875C66.1234 42.875 68.25 45.0576 68.25 47.75V62.375H69.8333C70.7078 62.375 71.4167 63.1025 71.4167 64V67.25C71.4167 69.9424 69.29 72.125 66.6667 72.125H41.3333C38.71 72.125 36.5833 69.9424 36.5833 67.25V64C36.5833 63.1025 37.2922 62.375 38.1667 62.375H39.75V47.75C39.75 45.0576 41.8766 42.875 44.5 42.875H63.5ZM42.9167 62.375H65.0833V47.75C65.0833 46.8525 64.3744 46.125 63.5 46.125H44.5C43.6255 46.125 42.9167 46.8525 42.9167 47.75V62.375ZM68.25 65.625H39.75V67.25C39.75 68.1475 40.4589 68.875 41.3333 68.875H66.6667C67.5411 68.875 68.25 68.1475 68.25 67.25V65.625Z" fill="#76C4EF"/>
<defs>
<filter id="filter0_d_455_10" x="0" y="4" width="108" height="106" filterUnits="userSpaceOnUse" color-interpolation-filters="sRGB">
<feFlood flood-opacity="0" result="BackgroundImageFix"/>
<feColorMatrix in="SourceAlpha" type="matrix" values="0 0 0 0 0 0 0 0 0 0 0 0 0 0 0 0 0 0 127 0" result="hardAlpha"/>
<feOffset/>
<feGaussianBlur stdDeviation="10"/>
<feComposite in2="hardAlpha" operator="out"/>
<feColorMatrix type="matrix" values="0 0 0 0 0.0196078 0 0 0 0 0.133333 0 0 0 0 0.239216 0 0 0 0.2 0"/>
<feBlend mode="normal" in2="BackgroundImageFix" result="effect1_dropShadow_455_10"/>
<feBlend mode="normal" in="SourceGraphic" in2="effect1_dropShadow_455_10" result="shape"/>
</filter>
</defs>
</svg>
