<svg width="108" height="109" viewBox="0 0 108 109" fill="none" xmlns="http://www.w3.org/2000/svg">
<path d="M8.66256 66.7993C7.28446 68.6212 7.05478 71.1265 8.20319 73.0623C9.46644 75.3398 12.2226 76.3647 14.7491 76.4785C15.8975 76.5924 17.1608 76.4785 18.0795 75.9092C19.1131 75.112 19.5724 73.7456 19.917 72.493C20.2615 71.2403 20.4912 69.9877 20.2615 68.7351C19.917 67.5964 19.1131 66.5715 18.0795 65.7744C16.7014 64.7495 14.864 63.7247 13.1414 64.0663C11.3039 64.4079 9.69612 65.3189 8.66256 66.7993Z" fill="#76C4EF"/>
<path d="M84.3428 83.6526C81.7014 84.3358 79.864 86.9549 79.864 89.6879C79.864 92.4208 81.4717 94.9261 83.6537 96.4064C87.788 99.1394 94.2191 98.1145 96.9753 94.0151C99.7314 89.9156 98.2385 83.4248 93.7597 81.2612C89.2809 78.9837 82.9647 81.8306 81.9311 86.7272" fill="#76C4EF"/>
<path d="M43.689 11.4567C38.9806 6.90173 34.0424 1.89129 27.6113 0.410935C20.2615 -1.29717 12.1078 2.46066 8.7774 9.06533C5.33217 15.67 7.05478 24.4383 12.5671 29.221C17.0459 33.2065 23.2474 34.4592 28.9894 36.395C34.6166 38.4447 40.5883 41.9748 41.8516 47.7824C42.7703 51.7679 41.2774 55.8674 39.3251 59.3975C37.3728 62.9276 34.7315 66.2299 33.2385 69.8739C29.5636 78.4144 31.9753 89.2324 39.0954 95.2677C46.2155 101.303 57.6996 101.645 65.0495 95.837C72.3993 90.0295 74.3516 78.4144 69.0689 70.7848C67.576 68.5074 65.5088 66.6854 63.9011 64.5218C62.2933 62.3582 61.03 59.7391 61.4894 57.0061C62.1784 52.4512 67.2314 49.946 71.8251 49.4905C76.4187 49.1488 81.0124 50.1737 85.606 49.4905C94.7933 48.124 102.028 38.6725 100.88 29.4487C99.7314 20.2249 90.4293 12.8232 81.1272 13.7342C73.7774 14.4174 67.6908 20.2249 60.4558 20.7943C54.0247 21.5914 47.8233 15.4423 43.689 11.4567Z" fill="#76C4EF"/>
<g filter="url(#filter0_d_70_9)">
<path d="M54 89C72.7777 89 88 74.0015 88 55.5C88 36.9985 72.7777 22 54 22C35.2223 22 20 36.9985 20 55.5C20 74.0015 35.2223 89 54 89Z" fill="white"/>
</g>
<path d="M69 42.9565L64.0964 67.876C64.0964 67.876 63.4103 69.6037 61.5256 68.7751L50.2117 60.0306L50.1592 60.0048C51.6875 58.6215 63.5381 47.8807 64.0561 47.3938C64.8579 46.6398 64.3601 46.1909 63.4292 46.7605L45.9242 57.9665L39.1709 55.6759C39.1709 55.6759 38.1081 55.2948 38.0059 54.4662C37.9023 53.6363 39.2059 53.1874 39.2059 53.1874L66.7372 42.3001C66.7372 42.3001 69 41.2979 69 42.9565Z" fill="#76C4EF"/>
<defs>
<filter id="filter0_d_70_9" x="0" y="2" width="108" height="107" filterUnits="userSpaceOnUse" color-interpolation-filters="sRGB">
<feFlood flood-opacity="0" result="BackgroundImageFix"/>
<feColorMatrix in="SourceAlpha" type="matrix" values="0 0 0 0 0 0 0 0 0 0 0 0 0 0 0 0 0 0 127 0" result="hardAlpha"/>
<feOffset/>
<feGaussianBlur stdDeviation="10"/>
<feComposite in2="hardAlpha" operator="out"/>
<feColorMatrix type="matrix" values="0 0 0 0 0.0196078 0 0 0 0 0.133333 0 0 0 0 0.239216 0 0 0 0.2 0"/>
<feBlend mode="normal" in2="BackgroundImageFix" result="effect1_dropShadow_70_9"/>
<feBlend mode="normal" in="SourceGraphic" in2="effect1_dropShadow_70_9" result="shape"/>
</filter>
</defs>
</svg>
