<svg width="36" height="37" viewBox="0 0 36 37" fill="none" xmlns="http://www.w3.org/2000/svg">
<path d="M35.4167 18.5C35.4167 28.3721 27.619 36.375 18 36.375C8.38104 36.375 0.583328 28.3721 0.583328 18.5C0.583328 8.62791 8.38104 0.625 18 0.625C27.619 0.625 35.4167 8.62791 35.4167 18.5ZM3.76081 18.5C3.76081 26.571 10.1359 33.1139 18 33.1139C25.8641 33.1139 32.2392 26.571 32.2392 18.5C32.2392 10.429 25.8641 3.8861 18 3.8861C10.1359 3.8861 3.76081 10.429 3.76081 18.5Z" fill="#76C4EF"/>
<path d="M18 7.125C17.1255 7.125 16.4167 7.85254 16.4167 8.75V19.2583C16.4167 19.2583 16.4167 19.682 16.6173 20.0008C16.7515 20.271 16.9609 20.5058 17.2359 20.6688L24.5505 25.003C25.3078 25.4517 26.2762 25.1855 26.7134 24.4082C27.1506 23.631 26.8912 22.6372 26.1339 22.1884L19.5833 18.307V8.75C19.5833 7.85254 18.8744 7.125 18 7.125Z" fill="#76C4EF"/>
</svg>
