<svg width="58" height="59" viewBox="0 0 58 59" fill="none" xmlns="http://www.w3.org/2000/svg">
<path d="M27.9575 25.934V38.005C29.0041 38.1357 30.4169 38.2388 32.3003 38.2388C35.7309 38.2388 38.5276 37.4363 40.2846 35.8554C41.9629 34.3524 43.0338 32.0228 43.0338 28.9182C43.0338 25.9397 41.9849 23.8657 40.2846 22.4946C38.6643 21.1475 36.3869 20.4722 33.0884 20.4722L27.9575 20.5158V23.0002L33.3723 22.9612C37.4045 22.9612 39.6565 25.1612 39.6275 29.0191C39.6275 33.449 37.1414 35.7258 32.9563 35.7006C32.3003 35.7006 31.6234 35.7006 31.1749 35.6238V25.9328L27.9575 25.934Z" fill="#76C4EF"/>
<path d="M20.1759 35.7178C18.4942 35.7178 16.845 35.0483 16.1669 34.6447L15.4089 37.1383C16.3582 37.7528 18.1998 38.3397 20.3393 38.3397C24.6972 38.3397 27.1879 36.0136 27.1879 33.0649C27.1879 30.7078 25.4563 29.1005 23.3168 28.7267V28.6728C25.4807 27.9196 26.5632 26.4235 26.5632 24.5995C26.5632 22.3215 24.6972 20.3404 21.0684 20.3404C18.9567 20.3404 17.0049 20.9847 16.0047 21.6818L16.7638 24.0641C17.494 23.5814 18.9277 22.9635 20.3614 22.9635C22.2853 22.9635 23.1835 23.9563 23.1835 25.1372C23.1835 26.8786 21.2353 27.5745 19.688 27.5745H18.201V29.9867H19.7448C21.7707 29.9867 23.719 30.8706 23.719 32.9308C23.7526 34.2996 22.7199 35.7178 20.1759 35.7178Z" fill="#76C4EF"/>
<path d="M19.0737 15.6904C19.1421 15.7867 19.251 15.8474 19.3704 15.8474C19.4075 15.8474 19.4458 15.8417 19.484 15.828L19.4968 15.8245L28.6726 18.7377C28.7074 18.7491 28.7456 18.7549 28.7827 18.7549C28.8186 18.7549 28.8557 18.7491 28.8916 18.7377L37.7001 15.9426C37.7082 15.9426 37.7151 15.946 37.7232 15.946C37.8055 15.946 37.8867 15.9162 37.9481 15.8646L57.3127 9.7162C57.4622 9.6692 57.5631 9.53162 57.5631 9.378C57.5631 9.22323 57.4622 9.08565 57.3127 9.03865L28.8893 0.0171968C28.8186 -0.00573227 28.7421 -0.00573227 28.6714 0.0171968L0.250345 9.0375C0.101992 9.08451 0 9.22208 0 9.37685C0 9.53162 0.101992 9.66805 0.250345 9.71506L19.0737 15.6904ZM19.491 15.0747L10.6767 12.2774L18.8037 9.58092L27.3548 12.4677L19.491 15.0747ZM19.9267 9.20832L28.6587 6.31353L37.3072 9.1659L28.4767 12.0951L19.9267 9.20832ZM28.7815 18.0246L20.6476 15.4427L28.4767 12.8472L36.5318 15.5654L28.7815 18.0246ZM37.6792 15.1997L29.5998 12.4734L38.4441 9.53965L46.8133 12.2992L37.6792 15.1997ZM47.2908 6.60473L56.0227 9.37685L47.9352 11.9438C47.9062 11.9208 47.8738 11.9002 47.8379 11.8887L39.5776 9.16476L47.2804 6.60931C47.2839 6.60931 47.2873 6.60587 47.2908 6.60473ZM46.1364 6.23786L38.443 8.78987L29.7933 5.93749L37.3222 3.44051L46.1364 6.23786ZM28.7815 0.729145L36.1655 3.0725L28.6575 5.5626L21.2503 3.1195L28.7815 0.729145ZM20.1006 3.48408C20.111 3.48866 20.1203 3.49783 20.1307 3.50242L27.5229 5.93978L18.8037 8.83114L11.269 6.28716L20.1006 3.48408ZM10.1633 6.63912C10.1969 6.66663 10.2363 6.69186 10.2827 6.70791L17.6806 9.20374L9.52005 11.9105L1.538 9.378L10.1633 6.63912Z" fill="#76C4EF"/>
<path d="M57.7531 49.2826L29.3332 40.1041C29.2602 40.0801 29.1825 40.0801 29.1095 40.1041L0.688448 49.2826C0.540096 49.3308 0.440421 49.4684 0.440421 49.622C0.440421 49.7779 0.542414 49.9143 0.690766 49.9613L9.60698 52.7919C9.63363 52.8046 9.66145 52.8137 9.69043 52.8172L29.1107 58.9817C29.1455 58.9943 29.1837 59 29.2196 59C29.2567 59 29.2938 58.9943 29.3297 58.9817L57.7497 49.9613C57.898 49.9143 57.9988 49.7779 58 49.622C58 49.4672 57.9003 49.3308 57.7531 49.2826ZM37.7186 43.563L46.483 46.3936L38.6794 49.0121L30.0043 46.1333L37.6711 43.5905C37.6885 43.5848 37.7012 43.571 37.7186 43.563ZM37.5517 49.3881L29.0284 52.2474L20.2721 49.3595L28.8708 46.5082L37.5517 49.3881ZM29.2196 40.8184L36.5874 43.1984L28.8696 45.7584L21.4949 43.3119L29.2196 40.8184ZM20.3533 43.6822C20.3579 43.6845 20.3625 43.688 20.3672 43.6891L27.7373 46.1333L19.1363 48.9857L11.6109 46.5048L20.3533 43.6822ZM1.96915 49.6186L10.4774 46.8717C10.4936 46.8797 10.504 46.8911 10.5203 46.8957L18.0016 49.3629L9.76692 52.0938L1.96915 49.6186ZM10.9224 52.4618L19.1375 49.7378L27.9007 52.628L19.8989 55.313L10.9224 52.4618ZM29.2196 58.2686L21.0498 55.6753L29.0296 52.9983L37.2643 55.7154L29.2196 58.2686ZM38.363 55.368C38.3248 55.3302 38.2819 55.2981 38.2274 55.282L30.1596 52.6211L38.6806 49.7619L47.1598 52.5753L38.363 55.368ZM48.3177 52.2084L39.8036 49.3835L47.5168 46.796C47.5446 46.7868 47.569 46.7685 47.5922 46.7513L56.4701 49.6174L48.3177 52.2084Z" fill="#76C4EF"/>
<path d="M0.440421 12.2258V45.6736C0.440421 45.8697 0.601523 46.0302 0.799712 46.0302C1.00022 46.0302 1.16132 45.8708 1.16132 45.6736V12.2258C1.16132 12.0297 1.00022 11.8692 0.799712 11.8692C0.601523 11.8704 0.440421 12.0297 0.440421 12.2258Z" fill="#76C4EF"/>
<path d="M9.92802 15.9277V41.9717C9.92802 42.1391 10.0648 42.2755 10.2352 42.2755C10.4044 42.2755 10.5411 42.1402 10.5411 41.9717V15.9277C10.5411 15.7603 10.4044 15.6239 10.2352 15.6239C10.0648 15.6239 9.92802 15.7592 9.92802 15.9277Z" fill="#76C4EF"/>
<path d="M56.965 11.9472C56.7657 11.9472 56.6046 12.1066 56.6046 12.3038V45.7516C56.6046 45.9499 56.7657 46.1093 56.965 46.1093C57.1644 46.1093 57.3266 45.9499 57.3266 45.7516V12.3026C57.3255 12.1077 57.1644 11.9472 56.965 11.9472Z" fill="#76C4EF"/>
<path d="M47.2271 16.0045V42.0508C47.2271 42.2182 47.3638 42.3546 47.5354 42.3546C47.7046 42.3546 47.8413 42.2182 47.8413 42.0508V16.0045C47.8413 15.8371 47.7046 15.7007 47.5354 15.7007C47.3638 15.7007 47.2271 15.836 47.2271 16.0045Z" fill="#76C4EF"/>
</svg>
