<svg width="48" height="54" viewBox="0 0 48 54" fill="none" xmlns="http://www.w3.org/2000/svg">
<path d="M46.8943 11.3494L43.7619 10.8843L42.361 7.98427C41.8884 7.00498 40.5206 7.00539 40.0476 7.98427L38.6467 10.8843L35.5143 11.3494C34.457 11.5064 34.0344 12.835 34.7993 13.5972L37.066 15.8545L36.5309 19.042C36.3498 20.1223 37.4608 20.9372 38.4027 20.4312L41.2045 18.9263L44.0062 20.4312C44.9514 20.9392 46.0584 20.1185 45.8777 19.042L45.3426 15.8545L47.6092 13.5972C48.3746 12.835 47.952 11.5064 46.8943 11.3494ZM44.1643 14.8187C43.8603 15.1215 43.722 15.5574 43.7933 15.9851L44.2631 18.7816L41.8045 17.4612C41.4291 17.2593 40.9799 17.2593 40.6041 17.4612L38.1459 18.7816L38.6152 15.9847C38.687 15.5574 38.5483 15.1215 38.2443 14.8187L36.2554 12.8379L39.004 12.43C39.4242 12.3674 39.7871 12.098 39.975 11.7091L41.2041 9.16461L42.4332 11.7091C42.6211 12.098 42.9844 12.3674 43.4046 12.43L46.1531 12.8379L44.1643 14.8187Z" fill="#76C4EF"/>
<path d="M5.69666 7.98427L4.29578 10.8843L1.16337 11.3494C0.105651 11.5064 -0.316548 12.835 0.44841 13.5972L2.71506 15.8545L2.17995 19.0416C1.99849 20.1218 3.10983 20.9372 4.05141 20.4312L6.85357 18.9263L9.65532 20.4312C10.6005 20.9396 11.7074 20.1177 11.5268 19.042L10.9917 15.8545L13.2583 13.5972C14.0237 12.835 13.6007 11.5059 12.5434 11.349L9.41096 10.8838L8.01008 7.98386C7.53707 7.00498 6.16966 7.00539 5.69666 7.98427ZM8.08266 11.7091C8.27058 12.098 8.6339 12.3674 9.05408 12.43L11.8022 12.8379L9.8138 14.8183C9.50935 15.1215 9.37063 15.5574 9.44241 15.9851L9.91179 18.7816L7.4536 17.4616C7.07778 17.2598 6.62896 17.2593 6.25314 17.4616L3.79455 18.7821L4.26433 15.9855C4.3361 15.5578 4.19739 15.122 3.89334 14.8187L1.90453 12.8383L4.65265 12.43C5.07284 12.3678 5.43616 12.0984 5.62407 11.7091L6.85317 9.16461L8.08266 11.7091Z" fill="#76C4EF"/>
<path d="M10.6646 50.4244C10.6646 50.6328 10.4989 50.8026 10.2949 50.8026H7.9133C7.48546 50.8026 7.13907 51.1565 7.13907 51.5936C7.13907 52.0303 7.48546 52.3846 7.9133 52.3846H10.2949C11.2401 52.3846 12.0264 51.6813 12.1829 50.7605L12.7325 50.7601C15.4355 50.7601 15.3572 54.0004 19.6268 54H33.2117C34.8582 54 36.1978 52.6314 36.1978 50.9492C36.1978 50.1508 35.8962 49.4232 35.403 48.879C36.1276 48.3405 36.6123 47.4898 36.6438 46.534C36.6692 45.7516 36.4091 45.0084 35.9095 44.4246C36.6845 43.8902 37.2087 43.0078 37.2402 42.012C37.2684 41.1266 36.9321 40.3031 36.3204 39.697C38.4495 37.8756 37.1946 34.3086 34.405 34.3086C34.4046 34.3086 34.4033 34.3086 34.4029 34.3086H25.738C27.0171 30.3185 26.9784 30.6424 26.9784 25.9634C26.9784 24.053 25.4569 22.4986 23.5871 22.4986C21.8926 22.4986 20.4474 23.7931 20.2256 25.5094C19.6691 29.8068 18.9965 30.253 16.077 33.1254C15.2814 33.9082 14.2346 34.3395 13.1301 34.3395H12.1111C11.8546 33.5654 11.1381 33.0059 10.2949 33.0059H1.91864C0.860527 33.0059 0 33.8851 0 34.9662V50.4248C0 51.5054 0.860527 52.3846 1.91864 52.3846H4.29981C4.72766 52.3846 5.07405 52.0307 5.07405 51.5936C5.07405 51.1569 4.72766 50.8026 4.29981 50.8026H1.91864C1.7146 50.8026 1.54846 50.6332 1.54846 50.4248V34.9658C1.54846 34.7573 1.7146 34.588 1.91864 34.588H10.2949C10.4989 34.588 10.6646 34.7573 10.6646 34.9658V50.4244ZM12.2131 35.9212H13.1297C14.637 35.9212 16.0653 35.3328 17.1509 34.265C20.2345 31.2315 21.1414 30.5027 21.7604 25.7166C21.8809 24.7839 22.6661 24.0806 23.5871 24.0806C24.6028 24.0806 25.4295 24.9252 25.4295 25.963C25.4295 30.5789 25.5077 29.9432 24.0956 34.3474C23.852 35.1071 24.4073 35.8903 25.19 35.8903H34.4045C35.1981 35.8903 35.8437 36.5466 35.8445 37.354C35.8449 38.1653 35.1993 38.8261 34.4062 38.8265C33.0283 38.8277 36.4873 38.8273 30.7011 38.8273C30.2737 38.8273 29.9269 39.1816 29.9269 39.6183C29.9269 40.0555 30.2737 40.4094 30.7011 40.4094H34.2227C35.0485 40.4094 35.7191 41.1143 35.6921 41.9605C35.6675 42.7429 34.9969 43.3798 34.1969 43.3798C32.4101 43.3798 34.7348 43.3806 30.7011 43.3806C30.2737 43.3806 29.9269 43.7349 29.9269 44.1716C29.9269 44.6083 30.2737 44.9626 30.7011 44.9626C36.0546 44.9626 31.6959 44.9618 33.6594 44.9618C34.4642 44.9618 35.1231 45.6395 35.0957 46.4812C35.0703 47.2628 34.3997 47.8989 33.6013 47.8989C33.6013 47.8989 33.5033 47.8997 30.7011 47.8997C30.2733 47.8997 29.9269 48.254 29.9269 48.6907C29.9269 49.1278 30.2733 49.4817 30.7011 49.4817H33.2295C34.0138 49.4916 34.6489 50.1459 34.6489 50.9496C34.6489 51.7592 34.0041 52.418 33.2117 52.418H19.6336C19.6312 52.418 19.6292 52.418 19.6272 52.418C16.0286 52.418 16.3536 49.1781 12.7337 49.1781C12.7325 49.1781 12.7313 49.1781 12.7305 49.1781L12.2131 49.1785V35.9212Z" fill="#76C4EF"/>
<path d="M30.2293 11.0227C29.9233 11.3276 29.9172 11.8285 30.2156 12.1412C30.5144 12.4543 31.0044 12.4605 31.3104 12.1556L34.0517 9.42582C35.0058 8.47536 34.4787 6.81876 33.1605 6.62306L27.878 5.83905C27.8587 5.83617 27.8417 5.82381 27.8333 5.80568L25.471 0.915385C24.8815 -0.305334 23.1762 -0.304922 22.587 0.915385L20.2244 5.80568C20.2159 5.82381 20.199 5.83617 20.1796 5.83905L14.8971 6.62306C13.5789 6.81917 13.0523 8.47577 14.0059 9.42582L17.8283 13.2322C17.8424 13.2462 17.8489 13.2664 17.8457 13.2861L16.9432 18.6613C16.717 20.0077 18.1021 21.0241 19.2764 20.3933L24.0012 17.8555C24.0185 17.8464 24.0391 17.846 24.0564 17.8555L28.7813 20.3933C29.96 21.0266 31.3399 20.0028 31.1145 18.6613L30.5245 15.1475C30.4523 14.7166 30.0515 14.4269 29.6309 14.5011C29.2091 14.5752 28.926 14.9839 28.9986 15.4149L29.5886 18.9287C29.591 18.9444 29.5946 18.9662 29.5648 18.9885C29.535 19.0103 29.516 19.0004 29.5023 18.993L24.7775 16.4552C24.3089 16.2034 23.7492 16.2034 23.2806 16.4552L18.5558 18.993C18.5421 19.0004 18.5231 19.0103 18.4933 18.9885C18.4634 18.9662 18.4671 18.9444 18.4695 18.9287L19.3719 13.5539C19.4615 13.0208 19.2889 12.477 18.9094 12.0996L15.087 8.29285C15.0762 8.28173 15.0604 8.26648 15.0721 8.23064C15.0834 8.19438 15.1048 8.1915 15.1201 8.18903L20.4026 7.40502C20.9265 7.32715 21.3789 6.99097 21.6136 6.50606L23.9758 1.61535C23.9827 1.60134 23.9923 1.58157 24.029 1.58157C24.0661 1.58157 24.0754 1.60134 24.0827 1.61535L26.4449 6.50565C26.6792 6.99097 27.1316 7.32715 27.6558 7.4046L32.9383 8.18903C32.9537 8.19109 32.9746 8.19438 32.9863 8.23023C32.9976 8.26648 32.9823 8.28173 32.9714 8.29285L30.2293 11.0227Z" fill="#76C4EF"/>
</svg>
