<svg width="48" height="50" viewBox="0 0 48 50" fill="none" xmlns="http://www.w3.org/2000/svg">
<path d="M47.4647 35.7878C46.5412 34.4171 44.9746 34.0824 43.2728 34.8912L42.3708 35.2923C43.793 32.2308 43.9695 28.8179 43.2615 25.5943C42.4484 21.8918 40.4844 18.3051 37.4242 14.9337C37.1536 14.6355 36.695 14.6154 36.3997 14.8888C36.1045 15.162 36.0846 15.6252 36.3552 15.9234C39.2412 19.1028 41.0885 22.4632 41.8458 25.9114C42.6434 29.5435 42.1794 33.2893 40.1438 36.2825L31.1181 40.2961L31.1256 39.2666C31.1258 39.2407 31.1246 39.2147 31.122 39.1888C30.9136 37.0729 29.3121 35.387 27.2275 35.0892C27.2213 35.0882 27.2151 35.0874 27.2088 35.0867L19.1869 34.1539C16.1022 33.7105 15.3078 31.8435 11.1302 30.779C10.8415 28.3053 11.2263 25.6716 12.2809 23.0313C13.8691 19.0549 16.9762 15.1916 21.2836 11.829C22.889 12.9786 30.0515 13.1217 31.6543 11.6386C32.4754 12.2684 33.2591 12.9175 33.9892 13.5744C34.1274 13.6988 34.2997 13.7599 34.4713 13.7599C34.6709 13.7599 34.8697 13.6772 35.0129 13.5148C35.2793 13.2129 35.2528 12.75 34.9538 12.4809C34.1536 11.7609 33.2928 11.0505 32.39 10.3638C32.6015 9.45778 32.3054 8.39732 31.5241 7.76607C33.7944 4.28831 34.4548 2.01203 33.5427 0.819445C32.9162 0.000202284 32.1368 0.384677 31.804 0.548936C31.2399 0.827062 30.9323 0.841711 30.4132 0.49874C29.423 -0.155658 28.3821 -0.176752 27.36 0.49874C26.8343 0.846106 26.4204 0.846106 25.8949 0.49874C24.9046 -0.155658 23.8642 -0.176752 22.8418 0.49874C22.3167 0.845813 22.008 0.824328 21.4528 0.545616C21.1203 0.37872 20.3418 -0.0121025 19.7114 0.807238C18.8198 1.96623 19.4163 4.17073 21.5334 7.53023C21.4037 7.60103 21.2802 7.68413 21.1648 7.77906C20.3228 6.881 18.9432 5.94438 16.9482 6.16938C15.2935 6.35639 14.0733 5.80414 13.3409 5.30805C13.0083 5.08304 12.5579 5.17269 12.3349 5.50844C12.1119 5.84438 12.2008 6.29926 12.5333 6.52446C13.4669 7.15659 15.0185 7.86031 17.1091 7.62486C18.6505 7.45024 19.6963 8.24576 20.3474 9.05533C20.3385 9.08658 20.3302 9.11803 20.3226 9.14947C19.7673 9.15826 18.9373 9.21061 18.0234 9.4026C15.8253 9.86442 14.1937 10.9194 13.3048 12.4538C13.1026 12.8028 13.2188 13.2514 13.5644 13.4557C13.9101 13.6599 14.3542 13.5425 14.5564 13.1934C15.8786 10.9113 19.106 10.6322 20.3879 10.6147C20.3934 10.6308 20.3999 10.6467 20.4057 10.6628C15.8312 14.2266 12.6465 18.2009 10.9361 22.4831C9.85507 25.1899 9.42323 27.9016 9.64243 30.4787C8.9471 30.3748 8.24374 30.319 7.537 30.3141V29.8713C7.537 28.6995 6.59306 27.7463 5.43281 27.7463H2.10418C0.943938 27.7463 0 28.6996 0 29.8713V46.9264C0 48.0983 0.943938 49.0516 2.10418 49.0516H5.43272C6.59296 49.0516 7.5369 48.0982 7.5369 46.9264V46.7178L14.7978 49.4473C15.7736 49.814 16.7962 50 17.8373 50H28.6562C30.3102 50 31.923 49.5273 33.3201 48.6333C47.7527 39.393 46.8762 39.9679 46.9596 39.8933C48.1221 38.8511 48.3393 37.0861 47.4647 35.7878ZM30.2936 10.7709C27.642 11.447 25.0639 11.447 22.4118 10.7709C21.2738 10.4803 21.6035 8.43052 22.8265 8.74029C25.1992 9.34186 27.506 9.34186 29.8789 8.74029C31.0806 8.4356 31.4499 10.4757 30.2936 10.7709ZM20.7905 1.84885C20.7962 1.85168 20.8019 1.85461 20.8073 1.85734C21.7887 2.34992 22.6486 2.37668 23.6358 1.72443C24.8711 0.907727 25.0053 2.21721 26.6273 2.21721C27.4082 2.21721 27.8392 1.93244 28.1538 1.72443C28.6796 1.37697 29.0936 1.37716 29.6193 1.72443C30.6108 2.37971 31.4499 2.34738 32.4598 1.85549C32.609 2.39865 32.2713 4.0179 30.1212 7.25093C29.0535 7.23257 27.504 8.29166 23.1178 7.30581C20.9723 4.03099 20.6405 2.39602 20.7905 1.84885ZM46.0361 38.7621L32.5439 47.3967C31.3794 48.1419 30.035 48.5359 28.6563 48.5359H17.8374C16.9696 48.5359 16.1171 48.3809 15.3037 48.0751L7.5369 45.1554V37.2692C7.5369 36.8647 7.21229 36.5368 6.81188 36.5368C6.41147 36.5368 6.08686 36.8647 6.08686 37.2692V46.9268C6.08686 47.2911 5.79339 47.5874 5.43281 47.5874H2.10418C1.74351 47.5874 1.45014 47.291 1.45014 46.9268V29.8717C1.45014 29.5074 1.74351 29.2112 2.10418 29.2112H5.43272C5.79339 29.2112 6.08676 29.5075 6.08676 29.8717V33.8457C6.08676 34.2502 6.41137 34.578 6.81178 34.578C7.2122 34.578 7.5368 34.2502 7.5368 33.8457V31.7791C13.5349 31.8255 14.8835 35.0184 18.9928 35.6054C18.999 35.6064 19.0052 35.6071 19.0114 35.6078L27.0329 36.5405C28.4375 36.7453 29.5185 37.8749 29.6749 39.2971L29.6649 40.6901H22.1841C21.7837 40.6901 21.459 41.0179 21.459 41.4224C21.459 41.8269 21.7836 42.1547 22.1841 42.1547H30.3847C30.4763 42.1547 30.582 42.1342 30.6741 42.0937C30.6889 42.0871 43.8501 36.2348 43.8654 36.2279C44.8141 35.8022 45.6791 35.7413 46.2656 36.6118C46.7216 37.2883 46.6207 38.2029 46.0361 38.7621Z" fill="#76C4EF"/>
<path d="M26.5438 33.2249C26.9442 33.2249 27.2689 32.8971 27.2689 32.4926V31.2787C29.3044 30.9451 30.4921 29.2811 30.7505 27.7288C31.0733 25.7896 30.0675 24.1032 28.1884 23.4324C27.8563 23.3138 27.5508 23.2004 27.2688 23.091V18.4218C28.1266 18.5654 28.6416 19.0138 28.6791 19.0473C28.9736 19.3178 29.4294 19.2978 29.6997 19.0019C29.9712 18.7046 29.9527 18.2413 29.6583 17.9671C29.6072 17.9194 28.7191 17.1119 27.2688 16.9431V15.9017C27.2688 15.4972 26.9442 15.1693 26.5437 15.1693C26.1433 15.1693 25.8187 15.4972 25.8187 15.9017V17.0023C25.6438 17.036 25.4647 17.079 25.2807 17.135C24.0508 17.5091 23.1314 18.5742 22.8812 19.9146C22.6543 21.1309 23.0362 22.3006 23.8777 22.9672C24.3609 23.3499 24.9691 23.7003 25.8187 24.0749V29.8661C24.9801 29.8303 24.464 29.6713 23.5635 29.0763C23.2285 28.8551 22.779 28.9497 22.5598 29.2883C22.3406 29.6266 22.4345 30.0805 22.7697 30.3019C23.9533 31.084 24.7446 31.288 25.8187 31.3302V32.4926C25.8187 32.8971 26.1433 33.2249 26.5438 33.2249ZM24.7727 21.8149C24.3587 21.4869 24.18 20.8627 24.3063 20.1859C24.4235 19.5581 24.8508 18.7954 25.699 18.5374C25.7394 18.5251 25.779 18.5146 25.8187 18.5038V22.4594C25.3845 22.2405 25.044 22.0298 24.7727 21.8149ZM27.7051 24.8132C29.5094 25.4573 29.3976 27.0219 29.3204 27.4861C29.1604 28.4471 28.4619 29.4731 27.2688 29.7819V24.6545C27.41 24.7067 27.5541 24.7593 27.7051 24.8132Z" fill="#76C4EF"/>
</svg>
