<svg width="58" height="42" viewBox="0 0 58 42" fill="none" xmlns="http://www.w3.org/2000/svg">
<path d="M4.40347 9.34843H13.3638C13.833 9.34843 14.2134 8.98215 14.2134 8.53012C14.2134 8.07809 13.833 7.71182 13.3638 7.71182H4.40347C3.93426 7.71182 3.55386 8.07809 3.55386 8.53012C3.55386 8.98215 3.93414 9.34843 4.40347 9.34843Z" fill="#76C4EF"/>
<path d="M13.0566 13.288H9.51698C9.04777 13.288 8.66738 13.6542 8.66738 14.1063C8.66738 14.5583 9.04777 14.9246 9.51698 14.9246H13.0566C13.5258 14.9246 13.9062 14.5583 13.9062 14.1063C13.9062 13.6542 13.5258 13.288 13.0566 13.288Z" fill="#76C4EF"/>
<path d="M0.849609 18.9626H9.51698C9.9862 18.9626 10.3666 18.5964 10.3666 18.1443C10.3666 17.6923 9.9862 17.326 9.51698 17.326H0.849609C0.380398 17.326 0 17.6923 0 18.1443C0 18.5964 0.380398 18.9626 0.849609 18.9626Z" fill="#76C4EF"/>
<path d="M14.2134 33.4698C14.2134 33.0177 13.833 32.6515 13.3638 32.6515H4.40347C3.93426 32.6515 3.55386 33.0177 3.55386 33.4698C3.55386 33.9218 3.93426 34.2881 4.40347 34.2881H13.3638C13.833 34.2881 14.2134 33.9218 14.2134 33.4698Z" fill="#76C4EF"/>
<path d="M13.0566 27.0754H9.51698C9.04777 27.0754 8.66738 27.4417 8.66738 27.8937C8.66738 28.3458 9.04777 28.712 9.51698 28.712H13.0566C13.5258 28.712 13.9062 28.3458 13.9062 27.8937C13.9062 27.4417 13.5258 27.0754 13.0566 27.0754Z" fill="#76C4EF"/>
<path d="M10.3666 23.8557C10.3666 23.4036 9.9862 23.0374 9.51698 23.0374H0.849609C0.380398 23.0374 0 23.4036 0 23.8557C0 24.3077 0.380398 24.674 0.849609 24.674H9.51698C9.9862 24.674 10.3666 24.3077 10.3666 23.8557Z" fill="#76C4EF"/>
<path d="M36.1966 11.1618C36.666 11.1618 37.0463 10.7955 37.0463 10.3435V9.09442C37.0463 8.64239 36.666 8.27612 36.1966 8.27612C35.7273 8.27612 35.347 8.64239 35.347 9.09442V10.3435C35.347 10.7955 35.7273 11.1618 36.1966 11.1618Z" fill="#76C4EF"/>
<path d="M45.5379 12.0028C45.206 11.6833 44.6682 11.6833 44.3364 12.0028L43.4193 12.886C43.0875 13.2057 43.0875 13.7237 43.4193 14.0433C43.7514 14.3629 44.2891 14.3628 44.6209 14.0433L45.5379 13.1601C45.8696 12.8405 45.8696 12.3225 45.5379 12.0028Z" fill="#76C4EF"/>
<path d="M47.2608 20.1817C46.7915 20.1817 46.4112 20.548 46.4112 21C46.4112 21.452 46.7915 21.8183 47.2608 21.8183H48.5576C49.0269 21.8183 49.4072 21.452 49.4072 21C49.4072 20.548 49.0269 20.1817 48.5576 20.1817H47.2608Z" fill="#76C4EF"/>
<path d="M44.6209 27.9566C44.289 27.6371 43.7511 27.6371 43.4193 27.9566C43.0875 28.2763 43.0875 28.7943 43.4193 29.1139L44.3364 29.9971C44.6684 30.3167 45.2061 30.3166 45.5379 29.9971C45.8697 29.6774 45.8697 29.1594 45.5379 28.8398L44.6209 27.9566Z" fill="#76C4EF"/>
<path d="M35.347 31.6565V32.9055C35.347 33.3575 35.7273 33.7238 36.1966 33.7238C36.666 33.7238 37.0463 33.3575 37.0463 32.9055V31.6565C37.0463 31.2045 36.666 30.8382 36.1966 30.8382C35.7273 30.8382 35.347 31.2046 35.347 31.6565Z" fill="#76C4EF"/>
<path d="M27.7723 27.9566L26.8552 28.8398C26.5234 29.1595 26.5234 29.6775 26.8552 29.9971C27.1872 30.3167 27.725 30.3166 28.0567 29.9971L28.9737 29.1139C29.3055 28.7942 29.3055 28.2761 28.9737 27.9566C28.642 27.6371 28.1041 27.6371 27.7723 27.9566Z" fill="#76C4EF"/>
<path d="M23.8356 20.1817C23.3664 20.1817 22.986 20.548 22.986 21C22.986 21.452 23.3664 21.8183 23.8356 21.8183H25.1325C25.6017 21.8183 25.9821 21.452 25.9821 21C25.9821 20.548 25.6017 20.1817 25.1325 20.1817H23.8356Z" fill="#76C4EF"/>
<path d="M28.9738 12.886L28.0568 12.0028C27.725 11.6833 27.187 11.6833 26.8554 12.0028C26.5236 12.3225 26.5236 12.8405 26.8554 13.1601L27.7724 14.0433C28.1043 14.3629 28.6421 14.3628 28.9738 14.0433C29.3056 13.7237 29.3056 13.2057 28.9738 12.886Z" fill="#76C4EF"/>
<path d="M40.7653 21C40.7653 20.548 40.385 20.1817 39.9157 20.1817H37.0463V14.1062C37.0463 13.6541 36.666 13.2879 36.1966 13.2879C35.7273 13.2879 35.347 13.6541 35.347 14.1062V21C35.347 21.452 35.7273 21.8183 36.1966 21.8183H39.9157C40.3849 21.8183 40.7653 21.452 40.7653 21Z" fill="#76C4EF"/>
<path d="M52.3066 20.8649C52.775 20.8375 53.1316 20.4497 53.1032 19.9986C52.5627 11.4115 45.1365 4.68496 36.1965 4.68496C26.8563 4.68496 19.2574 12.0039 19.2574 21.0001C19.2574 29.9962 26.8563 37.3151 36.1965 37.3151C44.5645 37.3151 51.7047 31.41 52.9469 23.4414C53.0165 22.9945 52.6969 22.5778 52.2327 22.5107C51.7699 22.4438 51.3361 22.7514 51.2664 23.1985C50.1506 30.3575 43.7326 35.6786 36.1965 35.6786C27.7932 35.6786 20.9566 29.0939 20.9566 21.0002C20.9566 12.9065 27.7932 6.32168 36.1965 6.32168C44.2396 6.32168 50.9208 12.3729 51.407 20.0979C51.4354 20.5487 51.8377 20.8911 52.3066 20.8649Z" fill="#76C4EF"/>
<path d="M36.1965 0C33.2081 0 30.2801 0.597145 27.5851 1.71386H12.5947C12.1255 1.71386 11.7451 2.08013 11.7451 2.53216C11.7451 2.98419 12.1255 3.35047 12.5947 3.35047H24.3888C22.7941 4.33898 21.3261 5.53131 20.0318 6.9078C19.7168 7.24265 19.7433 7.76015 20.0911 8.06358C20.439 8.36701 20.9761 8.34137 21.2912 8.00641C25.0977 3.95831 30.5305 1.63661 36.1965 1.63661C47.282 1.63661 56.3008 10.323 56.3008 21C56.3008 31.6769 47.2821 40.3634 36.1965 40.3634C25.1111 40.3634 16.0924 31.677 16.0924 21C16.0924 17.2611 17.2013 13.6322 19.299 10.5054C19.5537 10.1258 19.4406 9.61934 19.0465 9.37407C18.6524 9.1289 18.1266 9.23757 17.8718 9.61727C15.596 13.0092 14.3932 16.9452 14.3932 21C14.3932 28.3938 18.3814 34.9066 24.3942 38.6495H12.5948C12.1256 38.6495 11.7452 39.0158 11.7452 39.4678C11.7452 39.9199 12.1256 40.2861 12.5948 40.2861H27.5734C30.2197 41.388 33.1352 42 36.1966 42C48.219 42 58 32.5795 58 21C58 9.42055 48.219 0 36.1965 0Z" fill="#76C4EF"/>
</svg>
